<svg width="321" height="459" viewBox="0 0 321 459" fill="none" xmlns="http://www.w3.org/2000/svg">
<g clip-path="url(#clip0_167_279)">
<g opacity="0.56" clip-path="url(#clip1_167_279)">
<path d="M306.013 191.213C309.124 212.608 296.472 221.226 291.452 210.046V204.882C292.417 204.529 293.858 204.446 295.549 205.701C300.547 194.708 297.944 187.2 291.452 181.496C289.005 179.329 285.997 177.431 282.648 175.689C280.107 174.776 277.701 173.708 275.399 172.505C271.52 170.462 267.942 168.025 264.551 165.245C262.85 163.856 261.201 162.383 259.573 160.838C258.038 159.376 256.534 157.851 255.041 156.254C253.299 154.398 251.577 152.458 249.845 150.447C247.823 148.082 245.801 145.624 243.737 143.083C242.327 141.341 240.896 139.547 239.433 137.732C237.774 135.668 236.084 133.553 234.341 131.416C233.429 130.296 232.184 129.519 230.836 129.187C229.498 128.845 228.067 128.938 226.76 129.55C223.463 131.116 222.809 134.859 228.254 137.068C228.793 137.483 229.633 137.784 230.836 137.898C229.851 137.66 229 137.38 228.254 137.068C226.211 135.565 228.337 132.619 230.836 132.785C232.609 132.899 234.58 134.59 235.358 139.485C234.445 142.834 232.786 144.535 230.836 145.012C229.332 145.386 227.652 145.012 226.003 144.12C224.78 143.446 223.577 142.472 222.498 141.279C219.47 137.96 217.344 132.962 218.101 128.098C218.557 125.142 220.092 122.238 223.141 119.801C223.141 119.801 223.991 119.449 225.568 119.366C225.703 119.355 225.848 119.345 226.003 119.345C230.639 119.221 240.553 121.398 252.977 138.282C255.145 141.227 257.489 144.037 260.029 146.661C271.914 158.971 283.249 170.203 287.18 167.091C287.18 167.091 289.212 157.965 293.288 167.62C293.288 167.62 297.229 180.459 303.036 185.675C304.644 187.117 305.701 189.077 306.013 191.213Z" fill="#033C2F"/>
<path d="M164.091 364.486L162.846 364.164V387.249L164.091 387.54L167.036 388.224L173.144 389.645L189.198 393.378L191.76 393.98L202.358 396.396L210.199 398.18C210.199 398.18 210.271 398.252 210.302 398.294C211.008 399.092 211.733 399.87 212.48 400.617C213.227 400.254 213.974 399.818 214.71 399.321L226.615 402.09L229.301 402.712L239.205 405.024L246.444 406.704V385.434L240.553 383.941L228.046 380.757L207.523 375.53L196.603 372.824L189.198 370.998V370.698C189.198 370.698 189.136 370.687 189.105 370.677C187.746 370.252 186.408 369.754 185.091 369.194C185.081 369.412 185.091 369.619 185.102 369.827L175.073 367.275L165.563 364.859C165.2 364.527 164.848 364.206 164.506 363.863C164.599 364.133 164.692 364.392 164.786 364.652L164.091 364.486ZM164.091 429.333V430.484C161.291 435.96 159.434 442.006 158.74 448.394H158.428V728.287L154.353 732.082L154.27 732.321L147.799 749.65V251.363L164.091 255.781L189.198 262.594V267.012C184.718 268.101 180.611 270.051 176.992 272.726C174.939 274.251 173.051 276.004 171.34 277.953C168.353 281.334 165.906 285.327 164.091 289.796C160.928 297.606 159.694 306.846 160.969 316.76C161.55 321.271 162.618 325.648 164.091 329.806C168.633 342.656 177.106 353.503 187.414 360.213C188.005 360.597 188.597 360.97 189.198 361.323V322.972L220.486 297.315L226.003 292.794C230.255 298.674 233.584 305.466 235.638 312.809C234.424 312.695 233.201 312.633 231.977 312.633C230.919 312.633 229.861 312.674 228.835 312.767C228.606 312.788 228.389 312.809 228.161 312.83C221.886 313.483 216.203 315.733 211.371 319.239C204.993 323.864 200.077 330.688 197.215 338.901C194.601 346.337 193.678 354.934 194.85 364.081C194.85 364.112 194.86 364.154 194.86 364.185C199.89 366.321 205.2 367.483 210.593 367.483C214.419 367.483 218.049 366.892 221.44 365.792C221.606 365.741 221.783 365.689 221.948 365.626C234.269 361.416 243.291 350.351 246.444 335.987C247.554 330.978 247.937 325.565 247.502 319.902C247.429 318.865 247.325 317.818 247.191 316.76C247.139 316.366 247.087 315.982 247.025 315.599C246.859 314.489 246.672 313.379 246.444 312.29C242.347 291.974 228.503 275.101 211.858 268.744L230.836 273.888V224.503C233.875 220.718 239.392 220.936 245.469 222.076C247.242 222.585 248.985 223.145 250.706 223.798C260.496 227.49 269.301 234.034 274.88 249.807L277.141 274.718L279.101 275.018L278.199 282.257L279.713 285.576C277.141 293.125 282.575 294.256 282.575 294.256C283.519 293.841 284.214 293.291 284.732 292.68L284.836 295.075L305.598 770.734H305.588L302.155 770.433V766.026L270.97 744.984L267.942 742.941L266.584 740.908L257.084 726.648L256.493 726.607L239.205 725.3V725.155L249.845 724.844V597.907L244.868 458.703C244.868 454.793 244.432 450.987 243.623 447.316C242.659 443.022 241.165 438.916 239.205 435.089C233.927 424.749 225.277 416.401 214.71 411.506C208.073 408.426 200.668 406.704 192.859 406.704H189.198V406.611C189.126 406.642 189.053 406.673 188.991 406.704C186.937 407.627 184.967 408.685 183.079 409.857C175.374 414.628 169.017 421.348 164.682 429.333H164.091ZM207.513 402.172C207.679 402.162 207.855 402.152 208.031 402.152C208.01 402.131 207.99 402.121 207.979 402.1C207.824 402.141 207.668 402.162 207.513 402.172Z" fill="#88A466"/>
<path d="M300.496 228.195C303.213 238.151 302.984 249.237 296.793 262.574L296.005 291.767L292.603 294.256C292.603 294.256 296.005 297.647 293.516 301.94C296.005 312.353 285.821 310.766 287.854 301.94C286.039 299.98 285.168 297.72 288.31 294.256L284.836 295.075L284.732 292.68C287.117 289.859 285.593 285.576 285.593 285.576L287.097 284.373V278.036H290.115L291.774 253.603C298.774 244.529 300.319 234.459 300.496 228.195Z" fill="#88A466"/>
<path d="M300.496 228.195C300.319 234.459 298.774 244.529 291.774 253.603L290.115 278.036H287.097V284.373L285.593 285.576C285.593 285.576 287.117 289.859 284.732 292.679C284.214 293.291 283.519 293.841 282.575 294.256C282.575 294.256 277.141 293.125 279.713 285.576L278.199 282.257L279.101 275.018L277.141 274.718L274.88 249.807C269.301 234.034 260.496 227.49 250.706 223.798C248.985 223.144 247.242 222.584 245.469 222.076C239.392 220.936 233.875 220.718 230.836 224.503C230.4 225.032 230.017 225.644 229.695 226.349C228.638 225.976 227.403 228.361 228.803 229.087C229.021 228.05 229.322 227.137 229.695 226.349C230.286 226.556 230.836 227.635 230.836 230.362V230.445C230.349 236.346 219.522 231.119 223.297 223.435C224.925 220.158 227.445 217.627 230.836 216.144C233.149 215.107 235.866 214.558 239.008 214.568C242.347 214.589 246.143 215.242 250.426 216.663C254.222 217.907 258.401 219.753 262.944 222.263C268.772 225.478 275.212 229.792 282.274 235.351C286.433 234.614 289.409 233.183 291.442 231.431H291.452C296.472 227.106 295.735 220.873 292.832 218.457C290.706 216.652 290.913 207.257 296.793 218.343C298.287 221.527 299.562 224.793 300.496 228.195Z" fill="#033C2F"/>
<path d="M291.452 231.42L291.442 231.431L262.943 222.263C258.401 219.753 254.222 217.907 250.426 216.663C246.143 215.242 242.347 214.589 239.008 214.568L230.836 211.944L199.901 201.999C191.853 195.911 180.87 193.744 172.107 193.059L143.391 183.83L141.69 135.409H138.206L138.061 125.91L168.156 136.125L173.134 137.805L180.155 140.19L185.579 142.026L191.469 144.027L196.893 145.873L201.425 147.408L206.849 149.244L210.956 150.644L217.489 152.852L222.498 154.553L226.003 155.746L230.836 157.384L239.433 160.299L243.737 161.761L249.845 163.835L255.041 165.598L259.573 167.133L264.551 168.823L275.399 172.505C277.701 173.708 280.107 174.776 282.648 175.689C285.997 177.431 289.005 179.329 291.452 181.496V204.882C290.602 205.193 290.114 205.701 290.114 205.701C290.446 207.392 290.903 208.833 291.452 210.046V231.42Z" fill="#88A466"/>
<path d="M214.43 417.552C212.781 416.525 211.059 415.602 209.296 414.773C203.157 411.879 196.364 410.168 189.198 409.899C188.534 409.867 187.871 409.857 187.207 409.857H183.079C184.967 408.685 186.937 407.627 188.991 406.704H192.859C200.668 406.704 208.073 408.426 214.71 411.506C225.277 416.401 233.926 424.749 239.205 435.089C241.165 438.916 242.659 443.022 243.623 447.316C244.432 450.987 244.867 454.793 244.867 458.703L249.845 597.907V724.844L239.205 725.155V461.855C239.205 455.633 238.106 449.66 236.094 444.132C233.377 436.613 228.969 429.903 223.317 424.449C220.621 421.846 217.645 419.523 214.43 417.552Z" fill="#033C2F"/>
<path d="M247.502 319.902C247.937 325.565 247.553 330.978 246.444 335.987C243.291 350.35 234.269 361.416 221.948 365.626C222.156 365.398 222.353 365.17 222.539 364.932C233.677 356.002 239.807 340.011 237.463 321.779C237.141 319.301 236.675 316.853 236.073 314.468C235.938 313.908 235.793 313.359 235.638 312.809C233.584 305.466 230.255 298.674 226.003 292.794C216.825 280.058 203.354 271.586 189.198 271.078C188.742 271.057 188.285 271.046 187.829 271.046C184.013 271.046 180.373 271.627 176.992 272.726C180.611 270.051 184.718 268.101 189.198 267.012C191.863 266.369 194.663 266.027 197.567 266.027C199.62 266.027 201.663 266.193 203.675 266.525L211.858 268.744C228.503 275.101 242.347 291.974 246.444 312.29C246.672 313.379 246.859 314.489 247.024 315.599C247.087 315.982 247.139 316.366 247.19 316.76C247.325 317.818 247.429 318.865 247.502 319.902Z" fill="#033C2F"/>
<path d="M189.188 370.988C189.188 370.988 189.198 371.019 189.198 371.04V370.998L196.603 372.824L207.523 375.53L228.046 380.757L240.553 383.941L246.444 385.434V406.704L239.205 405.024V389.054L225.848 385.631L198.501 378.662L193.938 377.501C194 377.511 194.072 377.511 194.135 377.511L190.94 376.692L189.198 376.246L185.496 375.302L178.091 373.404C177.251 373.01 176.411 372.575 175.592 372.118C175.613 372.336 175.623 372.554 175.633 372.772L166.372 370.407L164.091 369.827L162.846 369.505V364.164L164.091 364.486L164.786 364.652L165.564 364.859L175.073 367.275L185.102 369.827L189.157 370.853C189.157 370.853 189.177 370.947 189.188 370.988Z" fill="#033C2F"/>
<path d="M239.205 389.054V396.749L230.338 402.089H226.615L214.71 399.321C218.713 396.655 222.571 392.144 225.848 385.631L239.205 389.054Z" fill="#033C2F"/>
<path d="M223.317 424.449C228.969 429.904 233.377 436.613 236.094 444.132C232.899 443.012 228.896 441.923 224.51 441.373C212.687 439.901 198.116 442.462 189.198 459.771V445.843L193.73 443.002L223.317 424.449Z" fill="#88A466"/>
<path d="M230.836 236.097V273.888L211.858 268.744C209.192 267.717 206.454 266.971 203.675 266.525L189.198 262.594V256.922L230.836 236.097Z" fill="#033C2F"/>
<path d="M226.003 292.794L220.486 297.315L189.198 322.972V271.078C203.354 271.586 216.825 280.058 226.003 292.794Z" fill="#033C2F"/>
<path d="M225.568 119.366C223.991 119.449 223.141 119.801 223.141 119.801C220.092 122.238 218.557 125.142 218.101 128.098H217.489V128.046C217.489 121.782 212.532 114.709 205.251 111.142C210.043 109.96 212.843 109.991 212.843 109.991V107.046L210.924 101.549L214.761 97.3282L219.366 102.752L216.358 107.046L219.677 113.61C221.876 113.983 224.136 117.032 225.568 119.366Z" fill="#033C2F"/>
<path d="M189.198 459.771C198.116 442.462 212.687 439.901 224.51 441.373C201.477 446.942 194.86 466.439 194.86 466.439L196.364 722.054L189.198 721.515V459.771Z" fill="#033C2F"/>
<path d="M217.489 128.046V128.098C217.468 132.018 215.508 135.617 210.956 137.846C209.763 138.427 208.404 138.914 206.849 139.288C206.558 139.36 206.258 139.423 205.947 139.485C204.018 138.894 202.535 138.012 201.425 136.954C194.84 130.784 201.332 119.013 206.175 130.431C210.136 130.753 210.178 128.15 208.384 125.277C205.884 121.295 201.352 119.376 196.893 119.853C195.306 120.029 193.73 120.507 192.247 121.305C191.988 121.44 191.728 121.585 191.469 121.71C189.551 122.726 187.58 123.649 185.579 124.468C183.805 125.215 182.001 125.868 180.155 126.449C177.873 127.175 175.53 127.766 173.134 128.233C171.506 128.554 169.846 128.813 168.156 128.99C159.03 130.037 149.074 129.176 138.061 125.91C134.42 128.658 131.88 131.748 131.226 135.409C130.646 138.562 131.475 142.15 134.182 146.319C135.146 147.812 136.681 148.808 138.423 149.119C138.558 149.15 138.703 149.171 138.849 149.192C139.585 149.285 140.301 149.586 140.715 150.312C141.597 151.919 140.186 153.724 138.486 153.693C138.226 153.693 137.978 153.651 137.708 153.547C133.954 152.189 127.534 149.057 124.89 142.969C122.1 136.571 123.479 126.895 136.484 112.563L136.972 108.103C137.096 107.025 138.579 106.641 139.087 107.585C139.16 107.72 139.201 107.875 139.201 108.031C139.201 108.031 145.382 111.432 141.047 113.465C141.047 113.465 150.288 127.496 189.198 109.617C194.715 108.072 199.983 108.757 204.453 110.769C204.723 110.883 204.982 111.007 205.241 111.142H205.252C212.532 114.709 217.489 121.782 217.489 128.046Z" fill="#033C2F"/>
<path d="M214.43 417.552L193.73 429.333V443.002L189.198 445.843L185.133 448.394V429.333L189.198 426.886L209.296 414.773C211.059 415.602 212.781 416.525 214.43 417.552Z" fill="#033C2F"/>
<path d="M212.169 337.014C212.283 338.372 210.924 346.503 210.924 346.503V363.355H204.08L201.425 348.328L197.214 338.901C200.077 330.688 204.992 323.864 211.37 319.239C211.702 326.882 212.107 336.226 212.169 337.014Z" fill="#033C2F"/>
<path d="M210.945 224.316C211.008 226.225 209.296 227.78 207.43 227.355C205.076 226.826 202.97 225.094 206.403 219.805C206.403 219.805 191.013 184.96 161.146 209.403L160.689 233.837L157.972 236.097C157.972 236.097 159.569 237.529 159.414 240.318C159.331 241.832 158.729 243.751 157.07 246.053C157.36 248.273 156.552 249.444 155.473 249.735L153.16 249.164C152.092 248.335 151.335 246.727 151.791 244.549C151.791 244.549 145.455 241.376 149.375 234.739L147.799 233.557L145.756 232.032L146.212 223.881L144.854 207.806C144.854 207.806 144.615 207.537 144.211 207.039C140.373 202.341 121.167 177.306 134.556 162.041C134.556 162.041 136.91 161.056 138.621 161.999C138.797 162.093 138.973 162.217 139.139 162.373C140.508 163.617 140.073 165.66 138.693 166.625C138.31 166.894 137.843 167.081 137.324 167.143C136.37 167.247 135.427 167.019 134.898 165.961C134.12 164.405 134.379 174.143 138.922 182.398C140.145 184.607 141.67 186.723 143.557 188.476C146.928 191.597 151.47 193.609 157.526 193.111C157.526 193.111 163.832 192.416 172.107 193.059C180.871 193.744 191.853 195.911 199.901 201.999C206.144 206.717 210.624 213.78 210.945 224.316Z" fill="#033C2F"/>
<path d="M210.199 398.18L202.358 396.396C197.65 390.92 193.792 384.418 191.148 377.273C192.081 377.387 193.004 377.47 193.937 377.501L198.5 378.662C201.269 385.984 205.314 392.611 210.199 398.18Z" fill="#033C2F"/>
<path d="M209.296 414.773L189.198 426.886L185.133 429.333V448.394L189.198 445.843V722.707H168.384L168.446 719.938L172.926 520.294C173.092 512.754 171.796 505.246 169.1 498.215C167.388 493.745 165.625 489.991 164.091 487.025C162.483 483.934 160.088 480.18 158.428 477.67V454.088C158.428 452.159 158.532 450.261 158.739 448.394H170.645V429.333H164.682C169.017 421.348 175.374 414.628 183.079 409.857H187.207C187.87 409.857 188.534 409.867 189.198 409.899C196.364 410.168 203.157 411.879 209.296 414.773Z" fill="#88A466"/>
<path d="M189.198 262.594L203.675 266.525C201.663 266.193 199.62 266.027 197.567 266.027C194.663 266.027 191.863 266.369 189.198 267.012V262.594Z" fill="#033C2F"/>
<path d="M202.359 396.396L191.76 393.98L189.198 393.378L173.144 389.645L167.036 388.224L164.091 387.54L162.846 387.249V369.505L164.091 369.827L166.372 370.407L175.633 372.772L178.091 373.404C180.528 374.576 183.048 375.51 185.61 376.204C186.792 376.516 187.995 376.785 189.198 376.993C189.841 377.096 190.495 377.2 191.148 377.273C193.792 384.418 197.65 390.92 202.359 396.396Z" fill="#88A466"/>
<path d="M189.198 322.972V361.323C188.596 360.97 188.005 360.597 187.414 360.213C177.106 353.503 168.633 342.655 164.091 329.806C162.618 325.648 161.55 321.271 160.969 316.76C159.694 306.846 160.928 297.606 164.091 289.796C165.906 285.327 168.353 281.334 171.34 277.953C173.051 276.004 174.938 274.251 176.992 272.726C180.373 271.627 184.013 271.046 187.829 271.046C188.285 271.046 188.742 271.057 189.198 271.078V322.972Z" fill="#033C2F"/>
<path d="M189.198 256.922V262.594L164.091 255.781V251.85V237.414L175.322 230.445H189.198V256.922Z" fill="#033C2F"/>
<path d="M170.645 429.333V448.394H164.091V430.484C164.278 430.101 164.485 429.717 164.682 429.333H170.645Z" fill="#033C2F"/>
<path d="M86.9541 416.598L91.6727 413.497L100.602 407.617L103.184 405.916C104.626 406.404 106.109 406.663 107.612 406.694C106.752 406.103 105.912 405.429 105.082 404.672L109.355 401.861L126.757 390.412V367.794L96.8995 388.743L95.1469 389.977L89.7334 393.772L88.5201 394.623L77.8798 402.09V422.571L86.9541 416.598ZM122.339 284.86C120.223 283.937 118.315 283.263 117.485 283.159C117.413 283.149 117.361 283.149 117.309 283.149C114.364 281.106 111.211 279.996 107.934 279.996C99.4196 279.996 91.735 287.463 86.2593 299.452C81.0636 310.838 77.8798 326.311 77.8798 343.35C77.8798 348.774 78.2013 354.032 78.8132 359.062C79.954 368.52 82.111 377.138 85.0252 384.356C87.4104 384.211 89.8164 383.495 92.2016 382.271C92.3987 382.168 92.6061 382.064 92.8031 381.95C105.518 374.97 117.475 353.648 122.193 327.037C122.225 326.892 122.245 326.737 122.266 326.591C122.681 324.258 123.023 321.956 123.293 319.674C123.562 317.476 123.77 315.308 123.915 313.182C124.548 304.212 124.164 295.801 122.909 288.407C122.857 288.345 122.795 288.272 122.743 288.21C122.608 286.675 122.463 285.596 122.339 284.86ZM113.316 265.125L127.431 253.52L127.182 242.787L124.89 142.969C127.534 149.057 133.954 152.189 137.708 153.547C137.978 153.651 138.226 153.693 138.486 153.693L138.62 161.999C136.909 161.056 134.555 162.041 134.555 162.041C121.167 177.306 140.373 202.341 144.21 207.039L145.631 247.308L145.755 250.813L147.798 251.363V749.65L145.133 756.785L147.798 757.024V769.199H147.57L138.206 770.06L136.256 768.069H129.878V736.832H130.988C130.946 735.837 130.894 734.851 130.843 733.887H132.616V732.456L130.791 732.871C130.386 725.788 129.878 719.866 129.878 719.866V409.857C128.032 409.857 126.207 409.95 124.402 410.148C119.393 410.666 114.592 411.9 110.112 413.756C109.313 414.078 108.535 414.42 107.758 414.783C90.0964 423.1 77.8798 441.052 77.8798 461.855V732.757L70.1744 746.332L69.4693 746.923L65.6633 747.794V367.711C60.758 355.059 59.4719 336.485 63.0187 316.511C63.7446 312.456 64.6262 308.526 65.6633 304.741C68.6811 293.696 72.9434 283.979 77.8798 276.377C85.5748 264.513 94.9084 257.834 103.703 259.4C107.332 260.043 110.558 262.034 113.316 265.125Z" fill="#88A466"/>
<path d="M143.391 183.83L143.557 188.476C141.669 186.723 140.145 184.607 138.921 182.398L143.381 183.83H143.391Z" fill="#88A466"/>
<path d="M141.69 135.409L143.391 183.83L138.932 182.398L138.693 166.625C140.073 165.66 140.508 163.617 139.139 162.373C138.973 162.217 138.797 162.093 138.621 161.999L138.486 153.693C140.187 153.724 141.597 151.919 140.716 150.312C140.301 149.586 139.585 149.285 138.849 149.192C138.704 149.171 138.558 149.15 138.424 149.119L138.206 135.409H141.69Z" fill="#88A466"/>
<path d="M138.693 166.625L138.932 182.398C134.39 174.143 134.13 164.405 134.908 165.961C135.437 167.019 136.381 167.247 137.335 167.143C137.853 167.081 138.32 166.894 138.704 166.625H138.693Z" fill="#88A466"/>
<path d="M138.206 135.409L138.423 149.119C136.681 148.808 135.146 147.812 134.182 146.319C131.475 142.15 130.646 138.562 131.226 135.409H138.206Z" fill="#88A466"/>
<path d="M129.878 449.442V452.605C123.604 451.34 113.741 450.261 105.248 453.289C112.964 447.14 123.303 447.99 129.878 449.442Z" fill="#033C2F"/>
<path d="M129.879 444.474V449.442C123.304 447.99 112.964 447.139 105.248 453.289C96.6408 456.338 89.4332 463.587 88.7384 479.112L86.9546 519.848V464.79C86.9546 452.418 91.2791 441.052 98.4867 432.133L129.484 439.517C129.744 441.135 129.879 442.784 129.879 444.474Z" fill="#88A466"/>
<path d="M129.878 409.857V413.58C125.834 414.296 121.945 415.468 118.284 417.065C117.35 417.459 116.438 417.894 115.546 418.351C108.919 421.69 103.112 426.409 98.4863 432.133C91.2787 441.052 86.9542 452.418 86.9542 464.79V730.506L77.8799 732.757V461.855C77.8799 441.052 90.0965 423.1 107.758 414.783C108.535 414.42 109.313 414.078 110.112 413.756C114.592 411.9 119.393 410.666 124.402 410.147C126.207 409.95 128.032 409.857 129.878 409.857Z" fill="#033C2F"/>
<path d="M127.182 242.786L127.431 253.52L113.316 265.125C110.558 262.034 107.332 260.043 103.703 259.4C94.9085 257.834 85.5749 264.513 77.8799 276.377C72.9435 283.979 68.6812 293.696 65.6633 304.741V239.914L67.6026 239.447C67.6545 239.53 67.7167 239.603 67.7685 239.675C69.376 241.801 72.8605 241.386 73.7109 238.856C73.8146 238.535 73.8665 238.223 73.8768 237.923L77.8799 236.958L90.7705 233.837L97.4907 235.486C97.4596 237.269 97.3663 239.178 97.19 241.231L101.11 241.832V258.28C102.313 260.24 108.349 256.621 108.349 256.621V239.717L109.458 238.431L127.182 242.786Z" fill="#88A466"/>
<path d="M126.757 367.794V377.169L101.463 394.498L98.5485 396.5L94.0684 399.569L92.9587 400.326L86.9542 404.444V413.497V416.598L77.8799 422.571V402.089L88.5201 394.623L89.7335 393.772L95.147 389.977L96.8996 388.743L126.757 367.794Z" fill="#033C2F"/>
<path d="M123.915 313.182C123.77 315.308 123.562 317.476 123.293 319.674C112.538 319.56 103.34 323.605 96.8581 330.418C91.6209 335.925 88.1468 343.236 87.0475 351.636C86.5083 355.691 86.529 360.006 87.172 364.496C87.8357 369.111 89.1009 373.591 90.8846 377.853C91.2891 379.368 91.735 380.84 92.2017 382.271C89.8165 383.495 87.4105 384.211 85.0253 384.356C82.1111 377.138 79.954 368.52 78.8133 359.062C78.2014 354.032 77.8799 348.774 77.8799 343.35C77.8799 326.311 81.0637 310.838 86.2594 299.452C89.3187 301.007 94.2966 303.527 94.8047 303.797C110.734 312.176 118.605 313.763 123.915 313.182Z" fill="#033C2F"/>
<path d="M58.1756 153.184C57.6052 153.278 56.9207 153.599 56.2155 154.387C53.4258 157.001 52.451 163.887 52.3266 164.914C52.3162 165.007 52.3059 165.048 52.3059 165.048C49.7339 171.758 45.0049 179.298 41.0745 184.95C41.4685 184.006 41.8419 183.041 42.1945 182.046C42.2049 182.025 42.2048 182.015 42.2048 182.015C43.0863 179.484 43.8331 176.788 44.3931 173.874C44.3931 173.874 45.2746 167.797 47.4835 160.755C51.6629 148.756 56.1534 143.83 58.5282 141.932C58.746 141.756 58.943 141.611 59.1297 141.497C59.4823 141.269 59.8349 141.051 60.1979 140.854C60.2186 140.854 60.229 140.854 60.229 140.854C60.229 140.854 60.0631 132.536 61.9505 127.953C61.9609 127.942 61.9609 127.932 61.9713 127.922C62.5209 126.905 63.0601 126.127 63.475 125.599C63.4957 125.578 63.5164 125.547 63.5372 125.526C63.7965 125.236 64.0039 125.007 64.1491 124.81H64.1595C65.0721 123.67 64.3046 124.064 63.7032 124.437C63.4335 124.178 63.2261 123.877 63.0809 123.524C62.9979 121.979 62.9564 119.283 63.4127 116.908C63.9105 115.207 64.4913 113.89 64.5639 113.724C64.5743 113.724 64.5742 113.703 64.5742 113.703L66.0054 108.726H66.244L66.5655 113.932C66.5655 113.932 66.5862 113.932 66.5965 113.932C66.6899 113.973 66.7728 114.015 66.8558 114.056C66.918 114.087 66.9699 114.118 67.0218 114.16C67.8929 114.782 69.6351 116.887 68.5981 123.649C68.5981 123.649 67.6129 125.173 68.4114 125.91C68.8781 126.335 69.9566 126.501 72.2174 125.91C78.3257 124.323 85.3466 120.247 97.7914 125.91C97.8017 125.899 97.8121 125.899 97.8224 125.879C100.591 123.918 102.904 121.564 104.875 118.899C107.851 115.415 110.713 111.08 111.138 107.046C111.169 107.046 111.19 107.077 111.221 107.087C115.878 109.576 118.543 113.455 118.377 119.335C118.533 119.563 118.678 119.791 118.813 120.019C120.15 122.259 124.06 129.768 122.847 139.267C121.696 145.355 118.47 151.193 114.312 156.907C114.312 156.907 113.098 156.856 112.331 156.14H112.321C111.906 155.124 112.414 153.309 113.171 151.255C113.181 151.235 113.181 151.214 113.181 151.193C114.291 146.983 114.447 143.229 113.938 139.796C113.907 134.414 113.13 129.218 110.184 129.519C110.101 129.519 110.018 129.539 109.935 129.56C109.852 129.56 109.78 129.591 109.707 129.612C109.251 129.747 108.753 129.985 108.193 130.369C105.352 132.391 102.51 133.988 99.6892 135.067C98.0092 135.731 96.3395 136.197 94.6698 136.467C88.8 137.131 83.2206 135.44 77.8798 132.018C77.8487 132.028 77.8175 132.049 77.7968 132.07C72.3626 134.87 70.6307 137.929 70.7863 141.113C70.6722 142.212 70.8796 143.343 71.5433 144.463C74.499 140.283 76.5316 138.24 77.7035 138.23H77.7139C77.7139 138.23 77.8279 138.251 77.8798 138.261C78.5953 140.408 78.7924 142.357 78.6368 144.183C78.5642 144.763 78.4709 145.365 78.3568 146.008C77.8694 148.279 76.8427 150.353 75.6397 152.355C75.6397 152.365 75.6294 152.365 75.6294 152.375C74.8516 153.008 73.97 153.33 72.9952 153.392C71.17 153.309 68.6085 152.469 65.6632 151.255C65.3106 155.362 64.6157 158.504 63.6616 160.931C63.6513 160.931 63.6513 160.952 63.6513 160.962C62.5313 163.42 60.9342 165.474 58.8704 167.143C58.8289 167.081 58.7978 167.029 58.7563 166.967C58.7356 166.925 58.7045 166.874 58.6837 166.832C56.6926 163.368 55.7696 159.822 56.7652 157.156C57.7712 155.341 59.306 154.17 59.8246 153.807C59.9386 153.734 60.0008 153.693 60.0008 153.693C59.8453 153.63 59.6897 153.568 59.5445 153.527C59.1816 153.402 58.663 153.247 58.1756 153.184Z" fill="#033C2F"/>
<path d="M122.339 284.86C122.463 285.596 122.608 286.675 122.743 288.21C121.032 286.156 119.207 284.466 117.309 283.149C117.361 283.149 117.413 283.149 117.485 283.159C118.315 283.263 120.223 283.937 122.339 284.86Z" fill="#88A466"/>
<path d="M113.244 182.782V182.616L113.482 182.398L112.227 162.269C119.808 166.127 123.407 184.203 110.184 213.023L111.968 235.496L109.458 238.431L108.349 239.717V256.621C108.349 256.621 102.313 260.24 101.11 258.28V241.832L97.19 241.231C97.3663 239.177 97.4596 237.269 97.4908 235.486C97.8537 211.841 85.7719 211.063 77.8799 219.878V213.438L113.244 182.782Z" fill="#033C2F"/>
<path d="M30.5277 201.802C31.3158 200.858 32.0832 199.904 32.8299 198.919H32.8403L108.929 130.462C108.929 130.462 108.929 130.462 108.929 130.452C109.189 130.265 109.448 130.079 109.707 129.871V129.944L111.854 162.093L113.223 182.616L77.8695 213.417L74.6235 216.248L73.825 216.943H73.8146L24.4712 259.722V208.626C26.5349 206.396 28.5676 204.146 30.5173 201.802H30.5277Z" fill="#88A466"/>
<path d="M109.355 401.861L105.082 404.672L103.185 405.916L100.602 407.617L91.6732 413.497L86.9546 416.598V404.444L92.9592 400.326L94.0688 399.569L98.5489 396.5L101.463 394.498C103.879 397.195 106.524 399.663 109.355 401.861Z" fill="#88A466"/>
<path d="M77.8795 213.438V219.878C74.789 223.321 72.3416 228.237 71.543 233.837C71.543 233.837 73.9905 235.569 73.8764 237.923C73.8661 238.223 73.8142 238.535 73.7105 238.856C72.8601 241.386 69.3756 241.801 67.7681 239.675C67.7163 239.603 67.6541 239.53 67.6022 239.447C65.3725 236.326 64.771 231.555 73.8246 216.953H73.8349L74.6335 216.248L77.8795 213.438Z" fill="#033C2F"/>
<path d="M65.6632 239.914V304.741C64.6261 308.526 63.7446 312.456 63.0186 316.511C59.4719 336.485 60.7579 355.059 65.6632 367.711V750.086L44.0715 768.068H44.0612L40.3174 768.317V255.055C43.8123 248.335 48.4375 244.508 53.8925 242.766L57.0452 241.998H57.0555C57.0555 241.998 57.1385 241.988 57.1799 241.978C57.1799 241.978 54.5769 251.187 57.1799 251.788C60.2911 247.215 61.5046 243.647 61.4527 240.94C61.3594 236.73 58.2067 234.594 54.3073 233.951L73.8248 216.953C64.7713 231.555 65.3728 236.326 67.6025 239.447L65.6632 239.914Z" fill="#88A466"/>
<path d="M61.4527 240.94C61.5046 243.647 60.2911 247.215 57.18 251.788C54.5769 251.187 57.18 241.978 57.18 241.978C57.1385 241.988 57.097 241.988 57.0555 241.998H57.0452C55.9666 242.185 54.9192 242.434 53.8925 242.766C48.4375 244.508 43.8123 248.335 40.3174 255.055V246.147L40.4625 246.022L54.3073 233.951C58.2067 234.594 61.3594 236.73 61.4527 240.94Z" fill="#033C2F"/>
<path d="M24.4816 259.939L40.3175 246.147V255.055C35.8063 263.714 33.1929 277.175 33.1514 297.139C33.1514 299.244 33.1721 301.422 33.224 303.683L31.7202 309.169L33.224 314.841L29.9054 318.461L26.5868 306.701L24.7823 295.832C19.317 278.306 20.3955 267.572 22.48 261.454L24.4816 259.722V259.939Z" fill="#033C2F"/>
<path d="M24.4819 208.626V257.119C23.9218 258.021 23.3203 259.182 22.7707 260.634L20.8625 260.085C20.8625 260.085 17.015 248.542 23.1233 244.695L21.5366 239.945C21.5366 239.945 10.6163 228.631 23.7663 209.403L24.4819 208.626Z" fill="#033C2F"/>
<path opacity="0.09" d="M117.558 279.996C117.558 279.996 68.8161 312.373 89.6299 385.631C110.444 458.889 90.5322 387.726 90.5322 387.726H84.455C82.8268 401.737 46.7786 290.211 113.223 276.968L117.548 279.996H117.558Z" fill="white"/>
<path opacity="0.09" d="M185.133 233.837H176.992L179.232 347.851L185.133 351.336V233.837Z" fill="white"/>
<path opacity="0.09" d="M44.3828 253.634V756.516L70.1745 746.332V258.861L44.3828 253.634Z" fill="white"/>
<path opacity="0.09" d="M147.799 260.634V731.803L157.661 721.94V267.012L147.799 260.634Z" fill="white"/>
<path opacity="0.09" d="M185.133 719.866V418.734L174.835 429.333V719.866H185.133Z" fill="black"/>
<path opacity="0.09" d="M126.756 319.239C126.756 319.239 117.247 311.046 105.248 322.972C105.248 322.972 119.984 316.708 126.756 319.239Z" fill="black"/>
<path opacity="0.09" d="M232.63 233.837C232.63 233.837 268.834 227.625 271.095 271.078H274.714L272.899 252.307C272.899 252.307 261.253 220.407 236.084 224.482L232.63 225.333V233.847V233.837Z" fill="black"/>
<path opacity="0.09" d="M129.867 194.791L131.039 249.735L113.223 246.147V260.634L143.38 264.803L140.788 210.565C140.788 210.565 133.902 205.4 129.867 194.791Z" fill="white"/>
<path opacity="0.09" d="M30.5486 210.565V247.598L105.248 183.83L102.313 145.998L30.5486 210.565Z" fill="white"/>
<path opacity="0.09" d="M150.723 142.264L152.724 182.398L284.732 221.34V181.797L150.723 137.587V142.264Z" fill="white"/>
<path opacity="0.09" d="M230.836 309.158C230.836 309.158 181.98 311.471 192.547 364.154H194.051C194.051 364.154 187.487 316.293 231.728 311.201L230.836 309.148V309.158Z" fill="white"/>
<path opacity="0.09" d="M262.217 725.155L270.524 740.908L302.144 760.923L282.181 299.452H274.714L270.97 282.309L262.207 269.294L260.796 258.871L239.184 249.745V280.007C239.184 280.007 267.641 311.15 245.469 367.804L253.661 369.515L262.207 725.165L262.217 725.155Z" fill="white"/>
</g>
</g>
<defs>
<clipPath id="clip0_167_279">
<rect width="321" height="1120" fill="white"/>
</clipPath>
<clipPath id="clip1_167_279">
<rect width="1451.89" height="1120.03" fill="white" transform="translate(-545)"/>
</clipPath>
</defs>
</svg>
