<svg width="245" height="677" viewBox="0 0 245 677" fill="none" xmlns="http://www.w3.org/2000/svg">
<g clip-path="url(#clip0_167_585)">
<path d="M738.65 1186.78C753.786 1191.08 763.502 1199.92 759 1220.61C758.138 1224.59 756.756 1229.03 754.771 1233.95H734.462C736.023 1228.55 737.008 1223.75 737.459 1219.46C739.622 1199.13 729.892 1190.82 714.167 1188.57L657.729 1186.78C447.634 1046.99 314.71 901.458 238.962 757.271C237.963 755.369 236.978 753.466 235.992 751.564C233.543 746.815 231.162 742.067 228.835 737.318C226.125 731.762 223.484 726.219 220.939 720.663C149.351 565.062 142.632 411.706 175.518 269.516C168.648 264.152 137.897 263.071 137.897 263.071L140.511 351.737L140.88 364.478C141.195 364.793 141.469 366.107 141.715 368.337C141.729 368.365 141.729 368.378 141.729 368.406C141.77 368.707 141.797 369.035 141.825 369.377C141.893 370.089 141.961 370.869 142.016 371.718C142.071 372.484 142.126 373.291 142.18 374.167C142.358 377.041 142.509 380.531 142.632 384.582C142.659 385.622 142.7 386.717 142.728 387.839C142.755 388.851 142.782 389.905 142.81 390.973C142.824 392.013 142.851 393.08 142.878 394.175C142.919 395.927 142.947 397.747 142.974 399.622C142.988 400.114 142.988 400.607 143.001 401.113C143.001 401.291 143.001 401.456 143.015 401.633C143.015 402.208 143.015 402.783 143.015 403.372C143.07 406.218 143.097 409.188 143.125 412.294C143.138 413.499 143.152 414.73 143.152 415.989C143.207 421.012 143.234 426.349 143.234 431.987C143.248 433.506 143.248 435.053 143.248 436.613C143.275 444.331 143.275 452.542 143.234 461.233C143.234 462.875 143.234 464.544 143.234 466.228C143.234 467.186 143.234 468.144 143.22 469.115C143.22 470.265 143.22 471.401 143.207 472.564C143.207 473.385 143.207 474.22 143.193 475.055C143.193 476.232 143.193 477.422 143.193 478.613C143.179 481.213 143.166 483.841 143.152 486.509C143.152 488.097 143.152 489.684 143.125 491.299C143.111 492.38 143.111 493.461 143.097 494.556C143.084 495.651 143.07 496.759 143.07 497.868C143.029 503.246 142.988 508.761 142.933 514.386C142.919 515.891 142.906 517.41 142.892 518.943C142.892 519.463 142.878 519.997 142.878 520.531C142.851 523.199 142.837 525.909 142.796 528.632C142.782 530.001 142.769 531.369 142.755 532.751C142.755 534.12 142.728 535.488 142.714 536.884C142.673 539.977 142.646 543.111 142.605 546.259C142.577 548.585 142.55 550.939 142.522 553.293C142.468 557.727 142.413 562.229 142.358 566.759C141.783 611.907 140.976 661.598 139.991 712.589C139.826 721.101 139.662 729.668 139.484 738.249C139.43 741.355 139.361 744.462 139.306 747.568C139.156 754.52 139.019 761.486 138.869 768.466C138.841 770.053 138.8 771.654 138.773 773.255C138.759 773.337 138.759 773.433 138.759 773.529C138.704 775.924 138.663 778.319 138.608 780.714C134.996 949.206 129.973 1115.88 126.21 1165.9C125.402 1176.8 124.636 1182.17 123.965 1180.8C122.077 1176.97 120.818 1179.32 119.983 1184.97C119.613 1187.41 119.34 1190.45 119.121 1193.87C119.066 1194.83 119.011 1195.83 118.956 1196.85C118.751 1201.03 118.628 1205.61 118.56 1210.25C118.532 1212.15 118.505 1214.06 118.491 1215.94C118.491 1216.75 118.478 1217.56 118.491 1218.37C118.436 1232.82 118.998 1251.1 118.998 1251.1C115.959 1251.1 112.935 1251.09 109.924 1251.06L79.3926 1250.9C78.7494 1250.9 78.1062 1250.9 77.463 1250.88C76.4777 1250.88 75.506 1250.87 74.5343 1250.87C73.549 1250.86 72.5774 1250.86 71.6057 1250.84C70.8257 1241.73 70.6477 1224.81 70.8941 1218.16C70.9214 1217.4 70.9488 1216.63 70.9899 1215.89C71.0857 1214 71.2225 1212.21 71.373 1210.51C71.8931 1205.05 72.7142 1200.56 73.6721 1196.88C73.9322 1195.87 74.2196 1194.92 74.4933 1194.05C75.8071 1189.9 77.285 1186.97 78.5988 1184.96C80.679 1181.76 82.3622 1180.8 82.3622 1180.8C82.6086 1175.83 82.8687 1170.87 83.115 1165.9C89.5881 1037.38 95.5137 909.136 100.837 781.179C100.947 778.634 101.043 776.074 101.152 773.529V773.378C101.234 771.572 101.316 769.766 101.385 767.973C101.658 761.226 101.946 754.465 102.206 747.719C102.343 744.503 102.48 741.3 102.603 738.084C102.958 729.517 103.301 720.964 103.643 712.397C101.7 712.425 99.7836 712.466 97.8676 712.507C99.8383 692.554 103.807 654.016 107.174 621.651V621.61C108.2 594.787 109.185 567.964 110.143 541.154C110.882 520.791 111.594 500.427 112.292 480.077C96.7043 565.746 77.2988 646.804 47.5745 715.476C48.423 715.394 49.2714 715.298 50.1473 715.216C45.8638 724.194 41.334 733.253 36.5031 742.409C36.3526 742.71 36.1884 743.025 36.0242 743.339C34.8746 745.529 33.6977 747.732 32.5071 749.949V748.882H21.4494V755.752H29.3458C27.293 759.502 25.1855 763.265 23.0232 767.056C-13.53 831.226 -63.9874 900.281 -135.903 977.165C-148.357 989.564 -162.836 1003.71 -178.888 1018.82H-178.902C-232.151 1068.92 -302.863 1129.4 -375.627 1170.32L-390.995 1181.05C-390.995 1181.05 -434.829 1178.61 -423.032 1226.43C-423.238 1226.45 -423.443 1226.5 -423.635 1226.52C-424.045 1226.59 -424.428 1226.65 -424.812 1226.71C-425.195 1226.78 -425.578 1226.84 -425.934 1226.91C-426.303 1226.97 -426.659 1227.03 -427.001 1227.1C-428.26 1227.33 -429.41 1227.56 -430.423 1227.8C-433.255 1216.83 -434.911 1206.91 -435.596 1197.92C-436.882 1181.29 -434.857 1167.88 -430.888 1157.07C-430.888 1157.06 -430.888 1157.04 -430.888 1157.03C-430.518 1156 -430.121 1155 -429.711 1154.03C-426.741 1146.93 -422.909 1141.03 -418.667 1136.13L-418.64 1136.1C-412.03 1128.5 -404.421 1123.32 -397.441 1119.82C-397.441 1119.82 -397.432 1119.81 -397.414 1119.81C-386.041 1114.09 -376.393 1112.83 -375.668 1112.74C-375.641 1112.73 -375.627 1112.73 -375.627 1112.73C-274.972 1058.78 -106.658 916.854 -0.351135 734.855C2.04379 730.763 4.41135 726.643 6.72415 722.511C7.90106 720.417 9.078 718.323 10.2275 716.229C11.5687 713.793 12.8961 711.357 14.2236 708.921C15.8658 705.883 17.4807 702.831 19.0819 699.779C20.683 696.714 22.2705 693.648 23.8307 690.583C25.3908 687.504 26.9372 684.425 28.4563 681.332C29.2226 679.785 29.989 678.225 30.7417 676.665C32.247 673.572 33.725 670.452 35.1894 667.332C41.0466 654.837 46.5618 642.206 51.7211 629.424C53.0075 626.235 54.2665 623.033 55.5119 619.83C56.4972 617.258 57.4826 614.685 58.4406 612.112C58.4816 612.016 58.509 611.92 58.55 611.825C58.9332 610.798 59.3164 609.772 59.6996 608.732C60.1101 607.61 60.5207 606.474 60.9312 605.338C61.8071 602.916 62.6693 600.48 63.5178 598.044C64.3662 595.621 65.201 593.172 66.0221 590.736C66.5695 589.107 67.1169 587.479 67.6507 585.836C69.7993 579.309 71.8383 572.753 73.7543 566.171C74.7259 562.873 75.6566 559.574 76.5734 556.276C77.0251 554.62 77.4766 552.965 77.9146 551.309C78.4072 549.488 78.8862 547.655 79.3516 545.821C79.68 544.534 80.0084 543.248 80.3232 541.962C80.7064 540.429 81.0895 538.882 81.459 537.336C81.9517 535.338 82.417 533.354 82.8823 531.356C83.0055 530.794 83.1287 530.233 83.2655 529.686C83.3203 529.453 83.375 529.221 83.4161 528.988C83.7856 527.373 84.1414 525.772 84.4835 524.157C84.9762 521.926 85.4551 519.696 85.9067 517.451C86.1257 516.411 86.331 515.385 86.5363 514.345C86.7416 513.318 86.9605 512.292 87.1521 511.252C87.1794 511.088 87.2205 510.91 87.2479 510.746C87.2479 510.732 87.2479 510.718 87.2616 510.705C87.4943 509.5 87.7132 508.31 87.9459 507.105C88.6301 503.438 89.287 499.756 89.8892 496.075C90.1218 494.72 90.3408 493.352 90.546 491.997C90.6555 491.34 90.765 490.683 90.8608 490.026C91.025 489 91.1892 487.96 91.3398 486.92C91.6409 484.894 91.9282 482.869 92.2156 480.83C92.6809 477.436 93.1188 474.042 93.5294 470.634C93.7347 468.937 93.9263 467.227 94.1042 465.516C94.2821 463.942 94.46 462.368 94.6105 460.795C94.6379 460.562 94.6653 460.316 94.679 460.083C94.8432 458.482 94.9937 456.881 95.1306 455.266C95.2811 453.555 95.4316 451.845 95.5685 450.134C95.7191 448.423 95.8422 446.713 95.9517 445.002C96.0885 443.305 96.198 441.608 96.2938 439.911V439.843C96.3622 438.761 96.4307 437.68 96.4717 436.599C96.4991 436.339 96.4991 436.065 96.5128 435.805C96.5264 435.669 96.5402 435.518 96.5402 435.381C96.5538 435.217 96.5675 435.053 96.5675 434.889C96.5812 434.738 96.5949 434.587 96.5949 434.437C96.677 432.808 96.7591 431.166 96.8138 429.538C96.8959 427.841 96.9507 426.144 97.0054 424.447C97.0602 422.695 97.1013 420.943 97.1286 419.192C97.1697 417.467 97.197 415.743 97.2108 414.019C97.2244 412.322 97.2381 410.638 97.2381 408.941C97.2381 407.244 97.2244 405.452 97.2108 403.714C97.197 402.003 97.1697 400.306 97.1286 398.595C97.1013 397.104 97.0739 395.612 97.0191 394.12C97.0191 393.833 97.0191 393.546 96.9918 393.258C96.9781 392.519 96.9507 391.78 96.9233 391.041C96.9233 390.877 96.9097 390.726 96.9097 390.562C96.8549 389.18 96.8002 387.784 96.7318 386.388C96.6907 385.129 96.6223 383.87 96.5538 382.611C96.5402 382.406 96.5264 382.214 96.5128 382.009C96.4717 380.983 96.4033 379.942 96.3348 378.916C96.3348 378.642 96.3075 378.355 96.2938 378.081C96.2391 377.096 96.1707 376.124 96.1022 375.139L96.0612 374.523C95.9654 373.168 95.8696 371.813 95.7601 370.445C95.7327 369.966 95.6917 369.501 95.6506 369.022C95.6232 368.611 95.5822 368.201 95.5548 367.79C95.3906 365.737 95.2675 363.698 95.158 361.645C95.158 361.536 95.1442 361.426 95.1442 361.317C95.1442 361.071 95.1169 360.811 95.1032 360.55C95.0895 360.304 95.0622 360.03 95.0485 359.77C95.0211 359.333 94.9937 358.867 94.9527 358.402C94.7748 356.39 94.5148 354.146 94.1863 351.737C94.1316 351.34 94.0768 350.957 94.0221 350.56C93.981 350.259 93.94 349.944 93.8853 349.63C93.7347 348.562 93.5705 347.454 93.3789 346.304C93.3652 346.236 93.3515 346.154 93.3378 346.072C93.2557 345.524 93.1599 344.963 93.0641 344.388C93.0367 344.251 93.0231 344.128 92.9957 343.991C92.8726 343.211 92.7357 342.418 92.5851 341.61L92.3388 340.214C92.2704 339.858 92.2156 339.516 92.1472 339.161C91.9966 338.326 91.8461 337.491 91.6819 336.642C91.285 334.535 90.8608 332.373 90.4092 330.142C90.3134 329.677 90.2313 329.211 90.1354 328.746C89.9849 328.034 89.8344 327.323 89.6838 326.597C89.506 325.708 89.3143 324.805 89.1227 323.901C88.3016 319.988 87.4121 315.937 86.4815 311.831C86.3447 311.215 86.2078 310.613 86.0573 309.997C85.9752 309.642 85.8931 309.286 85.811 308.916C85.592 307.972 85.373 307.014 85.1541 306.056C84.2372 302.115 83.3065 298.146 82.3486 294.177L81.8149 292.001C81.5138 290.756 81.2127 289.524 80.9116 288.293C80.7885 287.773 80.6653 287.253 80.5422 286.746C80.2958 285.802 80.0632 284.858 79.8305 283.913C79.6799 283.284 79.5157 282.654 79.3652 282.025C79.1599 281.204 78.9547 280.396 78.7494 279.589C78.4483 278.343 78.1335 277.098 77.8188 275.866C77.6956 275.401 77.5862 274.95 77.463 274.484C77.3535 274.033 77.2303 273.581 77.1208 273.129C76.8334 271.994 76.5461 270.858 76.2587 269.749C75.6292 267.299 75.0133 264.905 74.4112 262.578C74.2196 261.853 74.028 261.141 73.8501 260.43C73.6311 259.567 73.4122 258.719 73.1795 257.884C73.0563 257.378 72.9195 256.885 72.7826 256.379C72.6868 255.982 72.5774 255.585 72.4679 255.188C72.3858 254.86 72.3037 254.531 72.2079 254.203C72.1121 253.806 72.0026 253.423 71.9068 253.039C71.4552 251.315 71.0036 249.646 70.5793 248.044C70.4151 247.442 70.2509 246.84 70.1003 246.252C69.813 245.17 69.5256 244.117 69.2519 243.104C69.0876 242.488 68.9234 241.886 68.7729 241.298C68.7592 241.243 68.7318 241.188 68.7318 241.133C68.636 240.819 68.5539 240.504 68.4718 240.189C68.0749 238.738 67.7054 237.37 67.3633 236.097C67.2949 235.878 67.2401 235.646 67.1717 235.427C67.0622 235.03 66.9664 234.647 66.8569 234.277C66.7201 233.771 66.5969 233.292 66.4601 232.826C66.4601 232.772 66.4327 232.731 66.419 232.676C66.2685 232.115 66.1179 231.581 65.9811 231.075C65.9537 230.979 65.9264 230.897 65.9127 230.815C65.899 230.76 65.8853 230.705 65.8716 230.664C65.8032 230.445 65.7484 230.24 65.6937 230.035C65.6116 229.747 65.5432 229.474 65.4747 229.214C65.42 229.036 65.3789 228.871 65.3379 228.721C65.2558 228.447 65.1873 228.187 65.1189 227.955C65.0641 227.736 64.9957 227.53 64.9547 227.339C64.8999 227.161 64.8589 226.997 64.8178 226.846C64.8041 226.819 64.8041 226.791 64.7905 226.764C64.7357 226.559 64.681 226.381 64.64 226.23C64.64 226.23 64.6263 226.175 64.6263 226.162C64.5715 226.039 64.5578 225.929 64.5305 225.847C64.5305 225.833 64.5168 225.82 64.5168 225.806C64.5168 225.724 64.4894 225.655 64.4757 225.614C64.462 225.56 64.4483 225.532 64.4483 225.532H77.1893L83.9634 247.825H89.5333L93.9126 251.206C93.9126 251.206 103.656 249.577 110.307 250.275C111.375 250.385 112.374 250.562 113.222 250.809L113.825 217.362H137.103V249.413C137.103 249.413 138.65 249.413 141.086 249.481C148.174 249.7 162.777 250.535 168.565 253.792L169.359 249.016L173.533 249.413L181.101 225.327L197.031 224.93L209.169 230.103C165.308 399.8 164.542 574.382 256.438 759.502C364.264 918.045 488.443 1081.98 677.45 1183.2L738.664 1186.78H738.65ZM173.328 255.886V250.809L170.331 250.508L169.345 255.092L173.328 255.886ZM116.001 367.462L114.002 263.851C104.45 260.867 82.3486 267.436 82.3486 267.436C102.261 281.395 108.515 362.275 115.398 386.005C115.604 379.819 115.809 373.647 116.001 367.462ZM93.4062 254.695V252.054L88.5206 249.714V254.695H93.4062Z" fill="#0C7752"/>
<path d="M714.168 1188.57C729.892 1190.82 739.622 1199.13 737.46 1219.46C737.009 1223.75 736.023 1228.55 734.463 1233.95L647.48 1232.56C637.805 1227.36 628.17 1221.93 618.59 1216.25V1215.07C617.893 1215.06 617.195 1215.03 616.497 1215.01H616.483C613.144 1213.03 609.805 1211.02 606.479 1208.95H606.465C602.88 1206.76 599.294 1204.52 595.709 1202.25C447.785 1108.43 312.247 959.662 218.421 765.729C214.931 758.503 211.483 751.222 208.116 743.86H208.103C207.843 743.271 207.569 742.683 207.295 742.094C203.422 733.637 199.631 725.097 195.936 716.475C180.349 680.305 166.212 642.712 153.649 603.737C153.635 603.723 153.635 603.709 153.635 603.696C151.542 593.213 150.023 583.921 149.434 576.873V712.904C146.328 712.794 143.18 712.685 139.978 712.589C140.963 661.598 141.77 611.907 142.345 566.759C142.4 562.229 142.455 557.727 142.509 553.293C142.537 550.939 142.564 548.585 142.592 546.259C142.633 543.111 142.66 539.977 142.701 536.884C142.715 535.489 142.728 534.12 142.742 532.752C142.756 531.369 142.769 530.001 142.783 528.632C142.824 525.909 142.838 523.199 142.865 520.531C142.865 519.997 142.879 519.463 142.879 518.943C142.893 517.41 142.906 515.891 142.92 514.386C142.975 508.761 143.016 503.246 143.057 497.868C143.057 496.759 143.07 495.651 143.084 494.556C143.098 493.461 143.098 492.38 143.112 491.299C143.125 489.684 143.139 488.097 143.139 486.509C143.153 483.841 143.166 481.213 143.18 478.613C143.18 477.422 143.18 476.232 143.18 475.055C143.194 474.22 143.194 473.385 143.194 472.564C143.207 471.401 143.207 470.265 143.207 469.115C143.221 468.144 143.221 467.186 143.221 466.228C143.221 464.544 143.221 462.875 143.221 461.233C143.262 452.543 143.262 444.331 143.235 436.613C143.235 435.053 143.235 433.506 143.221 431.987C143.221 426.349 143.194 421.012 143.139 415.989C143.139 414.73 143.125 413.499 143.112 412.294C143.084 409.188 143.057 406.218 143.002 403.372C143.002 402.783 143.002 402.208 143.002 401.634C142.988 401.456 142.988 401.291 142.988 401.113C142.975 400.607 142.975 400.114 142.961 399.622C142.934 397.747 142.906 395.927 142.865 394.175C142.838 393.08 142.81 392.013 142.797 390.973C142.769 389.905 142.742 388.852 142.715 387.839C142.687 386.717 142.66 385.622 142.619 384.582C142.496 380.531 142.345 377.041 142.167 374.167C142.113 373.291 142.058 372.484 142.003 371.718C141.948 370.869 141.88 370.089 141.811 369.377C141.784 369.035 141.757 368.707 141.716 368.406C141.716 368.378 141.716 368.365 141.702 368.337C141.456 366.107 141.182 364.793 140.867 364.478L140.498 351.737L137.884 263.071C137.884 263.071 168.634 264.152 175.504 269.517C142.619 411.706 149.338 565.062 220.926 720.663C223.471 726.219 226.112 731.762 228.822 737.318C231.149 742.067 233.53 746.816 235.979 751.564C236.965 753.467 237.95 755.369 238.949 757.271C314.697 901.458 447.621 1046.99 657.716 1186.78L714.154 1188.57H714.168ZM154.32 273.403L161.285 272.404C158.494 268.025 154.374 267.902 148.339 269.517L154.32 273.403ZM163.968 301.17C159.862 296.682 151.624 294.602 151.624 294.602V358.703C154.251 333.755 158.015 313.227 163.968 301.17Z" fill="#00CE86"/>
<path d="M195.936 716.475C191.557 715.928 186.89 715.435 182.004 714.998C177.406 699.054 161.504 643.082 153.649 603.737C166.212 642.712 180.349 680.305 195.936 716.475Z" fill="#6E726B"/>
<path d="M149.037 136.551C149.037 136.551 155.606 149.484 154.415 154.67L142.276 158.653L135.105 174.172L136.515 186.488L122.569 185.325L120.175 181.534L112.388 180.713L114.906 176.06C114.906 176.06 115.398 158.242 113.606 152.877C111.006 145.83 109.87 138.344 109.623 130.584C109.623 130.584 116.001 124.809 124.759 121.62L129.535 119.828V114.655L125.348 109.673C125.348 109.673 126.99 101.503 150.912 100.6C151.87 100.559 152.253 101.873 151.404 102.338C146.792 104.87 141.524 106.758 135.502 107.88L135.105 112.465L137.295 113.067L136.898 121.018L142.673 128.586L146.847 127.587L153.224 135.552L149.037 136.551ZM147.846 150.893L146.245 140.342L140.675 132.965V129.79L133.107 122.017C133.107 122.017 119.176 130.379 116.794 131.775C116.794 131.775 118.779 146.514 122.556 148.498H126.538L126.347 143.517C123.76 127.628 142.071 130.584 136.693 143.517C136.693 143.517 133.504 145.31 134.9 152.275C134.9 152.275 144.055 149.689 147.846 150.893Z" fill="#262A39"/>
<path d="M137.692 207.221L141.072 249.481C138.636 249.413 137.09 249.413 137.09 249.413V217.362H130.261L127.757 203.499C131.356 203.841 135.037 204.539 138.499 205.771L137.692 207.221Z" fill="#262A39"/>
<path d="M136.925 190.019L138.691 205.429L138.499 205.771C135.037 204.539 131.355 203.841 127.756 203.499V203.431H127.127C119.121 202.719 111.69 203.636 108.487 204.142L106.832 190.991L109.897 185.325H119.176L121.57 188.897L136.925 190.019Z" fill="#262A39"/>
<path d="M136.515 186.488L136.926 190.019L121.571 188.897L119.176 185.325H109.897L112.388 180.713L120.175 181.534L122.57 185.325L136.515 186.488Z" fill="#262A39"/>
<path d="M127.127 203.431H118.382C118.382 203.431 118.97 211.696 118.779 217.362H113.811L113.209 250.809C112.36 250.562 111.361 250.385 110.294 250.275L106.832 227.27L109.528 212.34L108.487 204.142C111.69 203.636 119.121 202.719 127.127 203.431Z" fill="#262A39"/>
<path d="M114.003 263.851L116.001 367.462C115.809 373.647 115.604 379.819 115.399 386.005C108.515 362.275 102.261 281.395 82.3491 267.436C82.3491 267.436 104.451 260.867 114.003 263.851ZM114.195 343.17V294.602C114.195 294.602 107.954 296.175 104.848 299.583C109.364 308.725 112.21 324.285 114.195 343.17ZM99.7978 272.062L105.819 268.244C99.7978 266.547 95.6785 266.629 92.8457 270.981L99.7978 272.062Z" fill="#00CE86"/>
<path d="M112.279 480.077C111.581 500.427 110.869 520.791 110.13 541.154C96.8693 597.072 79.3112 654.139 50.1343 715.217C49.2585 715.299 48.41 715.394 47.5615 715.477C77.2858 646.804 96.6914 565.747 112.279 480.077Z" fill="#00CE86"/>
<path d="M97.1975 403.714C97.2112 405.452 97.2249 407.203 97.2249 408.942C97.2249 410.68 97.2112 412.322 97.1975 414.019C97.1838 415.743 97.1565 417.467 97.1154 419.192C97.088 420.943 97.047 422.695 96.9922 424.447C96.9375 426.144 96.8691 427.841 96.8007 429.538C96.7323 431.166 96.6638 432.809 96.5817 434.437C96.5817 434.588 96.568 434.738 96.5543 434.889C96.5543 435.053 96.5543 435.217 96.5269 435.381C96.5269 435.518 96.5133 435.669 96.4996 435.806C96.4996 436.066 96.4996 436.339 96.4586 436.599C96.4175 437.68 96.3491 438.762 96.2806 439.843V439.911C96.1711 441.608 96.0617 443.305 95.9385 445.002C95.829 446.713 95.7059 448.423 95.5553 450.134C95.4185 451.845 95.2679 453.555 95.1174 455.266C94.9805 456.881 94.83 458.482 94.6657 460.083C94.6657 460.316 94.6247 460.562 94.5974 460.795C94.4468 462.369 94.2689 463.942 94.091 465.516C93.9131 467.227 93.7215 468.937 93.5162 470.634C93.1057 474.042 92.6677 477.436 92.2024 480.83C91.915 482.869 91.6277 484.894 91.3266 486.92C91.1761 487.96 91.0118 489 90.8476 490.026C90.7518 490.683 90.6423 491.34 90.5328 491.997C90.3275 493.352 90.1086 494.72 89.8759 496.075C89.2738 499.757 88.6169 503.438 87.9326 507.106C87.7 508.31 87.481 509.5 87.2484 510.705C87.2347 510.705 87.2347 510.732 87.2347 510.746C87.2073 510.91 87.1663 511.088 87.1389 511.252C86.9473 512.292 86.7284 513.319 86.5231 514.345C86.3178 515.385 86.1125 516.411 85.8936 517.452C85.442 519.696 84.963 521.927 84.4703 524.157C84.1282 525.772 83.7723 527.373 83.4029 528.988C83.3618 529.221 83.307 529.453 83.2523 529.686C83.1154 530.234 82.9923 530.795 82.8691 531.356C82.4038 533.354 81.9249 535.338 81.4459 537.336C81.0764 538.883 80.6932 540.429 80.31 541.962C79.9952 543.248 79.6668 544.535 79.3383 545.821C78.873 547.655 78.394 549.489 77.9014 551.309C77.4634 552.965 77.0119 554.621 76.5602 556.277C75.6433 559.575 74.7127 562.873 73.7411 566.171C71.8252 572.753 69.786 579.309 67.6375 585.837C67.1037 587.479 66.5564 589.107 66.009 590.736C65.1878 593.172 64.353 595.621 63.5045 598.044C62.6561 600.48 61.7939 602.916 60.9181 605.338C60.5075 606.474 60.0969 607.61 59.6864 608.732C59.3032 609.772 58.92 610.798 58.5368 611.825C58.4958 611.921 58.4684 612.016 58.4273 612.112C57.4694 614.685 56.484 617.258 55.4987 619.831C54.2533 623.033 52.9943 626.235 51.7079 629.424C46.5486 642.206 41.0334 654.837 35.1762 667.332C33.7119 670.452 32.2339 673.572 30.7285 676.665C29.9758 678.225 29.2094 679.786 28.4431 681.332C26.924 684.425 25.3776 687.504 23.8174 690.583C22.2573 693.649 20.6698 696.714 19.0687 699.78C17.4675 702.831 15.839 705.883 14.2104 708.921C12.883 711.357 11.5555 713.793 10.2143 716.229C9.06479 718.323 7.88785 720.417 6.71094 722.511C4.39813 726.644 2.03061 730.763 -0.364319 734.855C-106.671 916.854 -274.985 1058.78 -375.64 1112.73C-375.64 1112.73 -375.64 1112.73 -375.681 1112.74C-376.407 1112.83 -386.055 1114.09 -397.427 1119.81C-390.174 1114.88 -382.907 1109.88 -375.64 1104.81C-148.055 946.031 84.7303 711.138 79.9679 363.876C78.7772 344.169 51.2974 232.101 51.2974 232.101L64.4351 225.532C64.4351 225.532 64.4352 225.56 64.4625 225.614C64.4762 225.655 64.4899 225.724 64.5036 225.806C64.5036 225.82 64.5172 225.833 64.5172 225.847C64.5446 225.929 64.5583 226.039 64.613 226.162C64.613 226.162 64.6131 226.203 64.6267 226.217C64.6678 226.381 64.7225 226.559 64.7773 226.764C64.7773 226.791 64.7773 226.819 64.8047 226.846C64.8457 226.997 64.8868 227.161 64.9415 227.339C64.9826 227.53 65.051 227.736 65.1057 227.955C65.1742 228.187 65.2426 228.447 65.3247 228.721C65.3658 228.872 65.4068 229.036 65.4615 229.214C65.5299 229.474 65.5984 229.747 65.6805 230.035C65.7352 230.24 65.79 230.445 65.8584 230.664C65.8584 230.705 65.8858 230.76 65.8994 230.815C65.9131 230.897 65.9406 230.979 65.9679 231.075C66.1048 231.581 66.2553 232.115 66.4058 232.676C66.4195 232.731 66.4332 232.772 66.4469 232.827C66.5837 233.292 66.7069 233.771 66.8438 234.277C66.9532 234.647 67.049 235.03 67.1585 235.427C67.2269 235.646 67.2816 235.878 67.3501 236.097C67.6922 237.37 68.0617 238.739 68.4586 240.189C68.5407 240.504 68.6228 240.819 68.7186 241.133C68.7186 241.188 68.746 241.243 68.7597 241.298C68.9102 241.886 69.0744 242.488 69.2386 243.104C69.5124 244.117 69.7997 245.171 70.0871 246.252C70.2377 246.84 70.4019 247.442 70.5661 248.044C70.9904 249.646 71.442 251.315 71.8936 253.04C71.9894 253.423 72.0989 253.806 72.1947 254.203C72.2905 254.531 72.3726 254.86 72.4547 255.188C72.5642 255.585 72.6736 255.982 72.7694 256.379C72.9063 256.885 73.0431 257.378 73.1663 257.884C73.399 258.719 73.618 259.567 73.8369 260.43C74.0148 261.141 74.2064 261.853 74.3979 262.578C75.0001 264.905 75.616 267.3 76.2455 269.749C76.5329 270.858 76.8203 271.994 77.1076 273.129C77.2171 273.581 77.3403 274.033 77.4498 274.484C77.5729 274.95 77.6824 275.401 77.8056 275.867C78.1204 277.098 78.4351 278.344 78.7362 279.589C78.9415 280.396 79.1468 281.204 79.3521 282.025C79.5026 282.654 79.6668 283.284 79.8173 283.913C80.05 284.858 80.2826 285.802 80.529 286.746C80.6521 287.253 80.7753 287.773 80.8984 288.293C81.1995 289.524 81.5006 290.756 81.8017 292.001L82.3354 294.177C83.2934 298.146 84.2239 302.115 85.1409 306.056C85.3598 307.014 85.5788 307.972 85.7978 308.916C85.8799 309.286 85.962 309.642 86.0441 309.997C86.1946 310.613 86.3315 311.215 86.4683 311.831C87.3989 315.937 88.2885 319.988 89.1096 323.902C89.3011 324.805 89.4927 325.708 89.6707 326.598C89.8212 327.323 89.9718 328.035 90.1223 328.746C90.2181 329.211 90.3002 329.677 90.396 330.142C90.8476 332.373 91.2719 334.535 91.6687 336.643C91.8329 337.491 91.9835 338.326 92.134 339.161C92.2025 339.516 92.2572 339.859 92.3256 340.214L92.5719 341.61C92.7224 342.418 92.8593 343.211 92.9825 343.992C93.0099 344.128 93.0235 344.252 93.0509 344.388C93.1467 344.963 93.2425 345.524 93.3246 346.072C93.3383 346.154 93.352 346.236 93.3657 346.304C93.5573 347.454 93.7215 348.562 93.872 349.63C93.9268 349.945 93.9678 350.259 94.0089 350.56C94.0636 350.957 94.1184 351.34 94.1731 351.737C94.5016 354.146 94.7616 356.39 94.9395 358.402C94.9805 358.867 95.0079 359.333 95.0353 359.771C95.049 360.031 95.0764 360.304 95.09 360.551C95.1037 360.811 95.1174 361.071 95.1311 361.317C95.1311 361.426 95.1447 361.536 95.1447 361.645C95.1858 362.439 95.1995 363.178 95.1995 363.876C95.35 365.587 95.5006 367.311 95.6374 369.022C95.6785 369.501 95.7195 369.966 95.7469 370.445C95.8564 371.814 95.9522 373.168 96.048 374.523L96.089 375.139C96.1574 376.124 96.2259 377.096 96.2806 378.081C96.2943 378.355 96.308 378.642 96.3217 378.916C96.3901 379.943 96.4586 380.983 96.4996 382.009C96.5133 382.214 96.527 382.406 96.5406 382.611C96.6091 383.87 96.6775 385.129 96.7185 386.388C96.787 387.784 96.8417 389.18 96.8965 390.562C96.8965 390.727 96.9102 390.877 96.9102 391.041C96.9375 391.78 96.9649 392.519 96.9785 393.258C96.9922 393.546 97.006 393.833 97.006 394.12C97.0607 395.612 97.088 397.104 97.1154 398.596C97.1565 400.306 97.1838 402.003 97.1975 403.714Z" fill="#00CE86"/>
<path opacity="0.15" d="M141.073 265.219C140.922 265.219 158.412 263.728 173.329 270.447L161.286 337.327C165.487 310.517 168.402 284.994 162.052 268.572C162.052 268.572 151.364 265.644 141.661 267.217C141.661 267.217 150.215 325.229 148.326 351.806C144.289 314.404 141.306 286.691 138.965 265.069L141.059 265.206L141.073 265.219Z" fill="#231F20"/>
<path opacity="0.15" d="M87.1379 268.572C87.1379 268.572 108.432 310.558 109.527 340.214C105.681 306.193 102.082 278.822 99.3315 275.524L87.1243 268.572H87.1379Z" fill="#231F20"/>
<path opacity="0.15" d="M99.3318 265.069L108.227 267.217L109.514 292.042C109.514 292.042 112.196 290.25 114.18 290.455L112.593 265.082H99.3181L99.3318 265.069Z" fill="#231F20"/>
</g>
<defs>
<clipPath id="clip0_167_585">
<rect width="245" height="1478" fill="white"/>
</clipPath>
</defs>
</svg>
