<svg width="1279" height="616" viewBox="0 0 1279 616" fill="none" xmlns="http://www.w3.org/2000/svg">
<path d="M1050.91 973.996C1063.33 977.522 1071.3 984.778 1067.61 1001.76C1066.9 1005.03 1065.77 1008.67 1064.14 1012.71H1047.47C1048.75 1008.27 1049.56 1004.33 1049.93 1000.82C1051.71 984.127 1043.72 977.309 1030.82 975.467L984.497 973.996C812.071 859.266 702.979 739.83 640.813 621.495C639.993 619.934 639.184 618.373 638.376 616.812C636.365 612.914 634.411 609.017 632.502 605.12C630.278 600.56 628.11 596.011 626.021 591.451C567.269 463.749 561.754 337.888 588.744 221.193C583.105 216.79 557.868 215.903 557.868 215.903L560.013 288.672L560.317 299.129C560.575 299.387 560.8 300.465 561.002 302.296C561.013 302.318 561.013 302.33 561.013 302.352C561.047 302.599 561.069 302.869 561.092 303.149C561.148 303.733 561.204 304.374 561.249 305.07C561.294 305.699 561.339 306.362 561.384 307.08C561.53 309.439 561.653 312.303 561.754 315.628C561.777 316.481 561.81 317.38 561.833 318.301C561.855 319.132 561.878 319.997 561.9 320.873C561.911 321.726 561.934 322.602 561.956 323.501C561.99 324.939 562.013 326.432 562.035 327.971C562.046 328.375 562.046 328.78 562.057 329.195C562.057 329.341 562.057 329.476 562.069 329.622C562.069 330.094 562.069 330.566 562.069 331.048C562.114 333.385 562.136 335.822 562.159 338.371C562.17 339.36 562.181 340.371 562.181 341.404C562.226 345.526 562.248 349.906 562.248 354.534C562.26 355.78 562.26 357.049 562.26 358.33C562.282 364.664 562.282 371.403 562.248 378.535C562.248 379.883 562.248 381.253 562.248 382.635C562.248 383.421 562.248 384.207 562.237 385.005C562.237 385.948 562.237 386.88 562.226 387.835C562.226 388.509 562.226 389.194 562.215 389.879C562.215 390.845 562.215 391.822 562.215 392.799C562.204 394.933 562.192 397.09 562.181 399.28C562.181 400.583 562.181 401.886 562.159 403.211C562.147 404.098 562.147 404.985 562.136 405.884C562.125 406.782 562.114 407.692 562.114 408.602C562.08 413.016 562.046 417.542 562.001 422.158C561.99 423.394 561.979 424.641 561.968 425.899C561.968 426.325 561.956 426.763 561.956 427.201C561.934 429.391 561.923 431.615 561.889 433.85C561.878 434.974 561.867 436.097 561.855 437.231C561.855 438.354 561.833 439.477 561.822 440.623C561.788 443.161 561.766 445.733 561.732 448.317C561.709 450.226 561.687 452.158 561.664 454.09C561.619 457.729 561.575 461.424 561.53 465.141C561.058 502.194 560.395 542.976 559.587 584.824C559.452 591.81 559.317 598.841 559.171 605.883C559.126 608.433 559.07 610.982 559.025 613.532C558.901 619.238 558.789 624.954 558.666 630.682C558.643 631.985 558.609 633.299 558.587 634.614C558.576 634.681 558.576 634.759 558.576 634.838C558.531 636.804 558.497 638.769 558.452 640.735C555.487 779.017 551.365 915.805 548.276 956.856C547.614 965.808 546.985 970.211 546.434 969.088C544.885 965.943 543.851 967.875 543.166 972.513C542.863 974.512 542.638 977.006 542.459 979.814C542.414 980.6 542.369 981.42 542.324 982.262C542.155 985.688 542.054 989.45 541.998 993.258C541.976 994.819 541.953 996.38 541.942 997.93C541.942 998.593 541.931 999.255 541.942 999.918C541.897 1011.78 542.357 1026.78 542.357 1026.78C539.864 1026.78 537.382 1026.77 534.911 1026.75L509.854 1026.62C509.326 1026.62 508.798 1026.62 508.27 1026.6C507.461 1026.6 506.664 1026.59 505.866 1026.59C505.058 1026.58 504.26 1026.58 503.463 1026.57C502.823 1019.09 502.677 1005.21 502.879 999.75C502.901 999.121 502.924 998.492 502.957 997.885C503.036 996.335 503.148 994.864 503.272 993.471C503.699 988.99 504.372 985.306 505.159 982.285C505.372 981.453 505.608 980.678 505.833 979.96C506.911 976.557 508.124 974.153 509.202 972.502C510.909 969.874 512.291 969.088 512.291 969.088C512.493 965.011 512.706 960.933 512.908 956.856C518.221 851.381 523.084 746.131 527.453 641.117C527.543 639.027 527.622 636.927 527.712 634.838V634.715C527.779 633.232 527.846 631.749 527.902 630.278C528.127 624.741 528.363 619.193 528.576 613.655C528.689 611.016 528.801 608.388 528.902 605.749C529.194 598.718 529.475 591.698 529.756 584.667C528.161 584.689 526.588 584.723 525.016 584.757C526.633 568.381 529.89 536.753 532.653 510.191V510.157C533.496 488.143 534.304 466.13 535.091 444.127C535.697 427.415 536.281 410.702 536.854 394.001C524.061 464.31 508.135 530.834 483.74 587.194C484.437 587.127 485.133 587.048 485.852 586.981C482.336 594.349 478.619 601.784 474.654 609.298C474.53 609.545 474.396 609.803 474.261 610.061C473.317 611.858 472.352 613.667 471.374 615.486V614.61H462.299V620.248H468.78C467.095 623.326 465.366 626.414 463.591 629.526C433.592 682.19 392.181 738.864 333.16 801.963C322.939 812.139 311.056 823.752 297.881 836.152H297.87C254.168 877.27 196.135 926.902 136.417 960.484L123.804 969.29C123.804 969.29 87.8298 967.29 97.5114 1006.53C97.3429 1006.56 97.1744 1006.59 97.0172 1006.61C96.6802 1006.67 96.3658 1006.71 96.0513 1006.77C95.7368 1006.83 95.4223 1006.87 95.1303 1006.93C94.827 1006.98 94.535 1007.03 94.2542 1007.08C93.2209 1007.27 92.2775 1007.47 91.4464 1007.66C89.1214 998.66 87.7624 990.517 87.2009 983.138C86.1451 969.492 87.8074 958.485 91.0645 949.612C91.0645 949.601 91.0645 949.59 91.0645 949.578C91.3677 948.736 91.6935 947.916 92.0304 947.119C94.4676 941.29 97.6125 936.449 101.094 932.428L101.117 932.405C106.542 926.161 112.786 921.915 118.514 919.04C118.514 919.04 118.522 919.036 118.537 919.029C127.87 914.334 135.788 913.301 136.384 913.233C136.406 913.222 136.417 913.222 136.417 913.222C219.025 868.948 357.161 752.466 444.408 603.098C446.373 599.74 448.316 596.359 450.214 592.967C451.18 591.249 452.146 589.53 453.089 587.812C454.19 585.813 455.28 583.813 456.369 581.814C457.717 579.321 459.042 576.816 460.356 574.312C461.67 571.796 462.973 569.28 464.254 566.764C465.534 564.237 466.803 561.71 468.05 559.171C468.679 557.902 469.308 556.622 469.926 555.342C471.161 552.803 472.374 550.242 473.576 547.682C478.383 537.427 482.909 527.061 487.143 516.57C488.199 513.953 489.232 511.325 490.255 508.697C491.063 506.586 491.872 504.474 492.658 502.363C492.692 502.284 492.714 502.205 492.748 502.127C493.062 501.284 493.377 500.442 493.691 499.588C494.028 498.667 494.365 497.735 494.702 496.803C495.421 494.815 496.129 492.816 496.825 490.817C497.521 488.829 498.206 486.818 498.88 484.819C499.33 483.482 499.779 482.146 500.217 480.798C501.98 475.441 503.654 470.061 505.226 464.658C506.024 461.952 506.787 459.245 507.54 456.538C507.91 455.179 508.281 453.82 508.64 452.461C509.045 450.967 509.438 449.462 509.82 447.957C510.089 446.901 510.359 445.846 510.617 444.79C510.932 443.532 511.246 442.263 511.549 440.994C511.954 439.354 512.336 437.725 512.718 436.085C512.819 435.625 512.92 435.164 513.032 434.715C513.077 434.524 513.122 434.333 513.156 434.142C513.459 432.817 513.751 431.503 514.032 430.178C514.436 428.347 514.829 426.516 515.2 424.674C515.379 423.821 515.548 422.978 515.716 422.125C515.885 421.282 516.065 420.44 516.222 419.586C516.244 419.452 516.278 419.306 516.3 419.171C516.3 419.16 516.3 419.148 516.312 419.137C516.503 418.149 516.682 417.172 516.873 416.183C517.435 413.173 517.974 410.152 518.468 407.131C518.659 406.019 518.839 404.896 519.007 403.784C519.097 403.245 519.187 402.705 519.265 402.166C519.4 401.324 519.535 400.47 519.659 399.617C519.906 397.955 520.142 396.292 520.377 394.619C520.759 391.833 521.119 389.048 521.456 386.251C521.624 384.859 521.781 383.455 521.927 382.051C522.073 380.759 522.219 379.467 522.343 378.176C522.365 377.985 522.388 377.783 522.399 377.592C522.534 376.278 522.657 374.964 522.77 373.638C522.893 372.234 523.017 370.83 523.129 369.427C523.253 368.023 523.354 366.619 523.444 365.215C523.556 363.822 523.646 362.429 523.724 361.037V360.98C523.781 360.093 523.837 359.206 523.87 358.319C523.893 358.105 523.893 357.881 523.904 357.667C523.915 357.555 523.927 357.431 523.927 357.319C523.938 357.184 523.949 357.049 523.949 356.915C523.96 356.791 523.971 356.668 523.971 356.544C524.039 355.207 524.106 353.86 524.151 352.523C524.219 351.13 524.264 349.738 524.308 348.345C524.353 346.907 524.387 345.47 524.41 344.032C524.443 342.617 524.466 341.202 524.477 339.787C524.488 338.394 524.499 337.012 524.499 335.62C524.499 334.227 524.488 332.756 524.477 331.329C524.466 329.925 524.443 328.533 524.41 327.129C524.387 325.904 524.365 324.68 524.32 323.456C524.32 323.22 524.32 322.984 524.297 322.748C524.286 322.142 524.264 321.535 524.241 320.929C524.241 320.794 524.23 320.671 524.23 320.536C524.185 319.401 524.14 318.256 524.084 317.11C524.05 316.077 523.994 315.044 523.938 314.01C523.927 313.842 523.915 313.685 523.904 313.516C523.87 312.674 523.814 311.82 523.758 310.978C523.758 310.753 523.736 310.517 523.724 310.293C523.679 309.484 523.623 308.687 523.567 307.878L523.533 307.372C523.455 306.261 523.376 305.149 523.286 304.025C523.264 303.632 523.23 303.25 523.197 302.857C523.174 302.52 523.14 302.184 523.118 301.847C522.983 300.162 522.882 298.488 522.792 296.804C522.792 296.714 522.781 296.624 522.781 296.534C522.781 296.332 522.758 296.118 522.747 295.905C522.736 295.703 522.714 295.478 522.702 295.265C522.68 294.906 522.657 294.524 522.624 294.142C522.478 292.491 522.264 290.649 521.995 288.672C521.95 288.346 521.905 288.032 521.86 287.706C521.826 287.459 521.793 287.201 521.748 286.942C521.624 286.066 521.489 285.157 521.332 284.213C521.321 284.157 521.31 284.09 521.298 284.022C521.231 283.573 521.152 283.112 521.074 282.641C521.051 282.528 521.04 282.427 521.018 282.315C520.917 281.675 520.804 281.023 520.681 280.361L520.478 279.215C520.422 278.923 520.377 278.642 520.321 278.35C520.198 277.665 520.074 276.98 519.939 276.284C519.614 274.554 519.265 272.779 518.895 270.949C518.816 270.567 518.749 270.185 518.67 269.803C518.547 269.219 518.423 268.635 518.3 268.04C518.154 267.31 517.996 266.568 517.839 265.827C517.165 262.615 516.435 259.29 515.671 255.921C515.559 255.416 515.447 254.921 515.323 254.416C515.256 254.124 515.188 253.832 515.121 253.529C514.941 252.754 514.762 251.967 514.582 251.181C513.829 247.947 513.066 244.689 512.279 241.432L511.841 239.647C511.594 238.624 511.347 237.614 511.1 236.603C510.999 236.176 510.898 235.749 510.797 235.334C510.595 234.559 510.404 233.784 510.213 233.009C510.089 232.492 509.955 231.975 509.831 231.459C509.663 230.785 509.494 230.122 509.326 229.46C509.079 228.437 508.82 227.415 508.562 226.405C508.461 226.023 508.371 225.652 508.27 225.27C508.18 224.9 508.079 224.529 507.989 224.158C507.753 223.226 507.517 222.294 507.281 221.384C506.765 219.374 506.259 217.408 505.765 215.499C505.608 214.904 505.451 214.319 505.305 213.735C505.125 213.028 504.945 212.332 504.754 211.646C504.653 211.231 504.541 210.826 504.429 210.411C504.35 210.085 504.26 209.759 504.17 209.434C504.103 209.164 504.036 208.895 503.957 208.625C503.878 208.299 503.788 207.985 503.71 207.67C503.339 206.255 502.969 204.885 502.62 203.571C502.486 203.077 502.351 202.583 502.227 202.1C501.991 201.212 501.756 200.347 501.531 199.516C501.396 199.011 501.261 198.517 501.138 198.034C501.127 197.989 501.104 197.944 501.104 197.899C501.026 197.641 500.958 197.382 500.891 197.124C500.565 195.934 500.262 194.81 499.981 193.766C499.925 193.586 499.88 193.395 499.824 193.215C499.734 192.89 499.655 192.575 499.565 192.272C499.453 191.856 499.352 191.463 499.24 191.082C499.24 191.037 499.217 191.003 499.206 190.958C499.082 190.497 498.959 190.059 498.847 189.644C498.824 189.565 498.802 189.498 498.79 189.43C498.779 189.386 498.768 189.341 498.757 189.307C498.701 189.127 498.656 188.959 498.611 188.79C498.543 188.554 498.487 188.33 498.431 188.116C498.386 187.97 498.352 187.836 498.319 187.712C498.251 187.487 498.195 187.274 498.139 187.083C498.094 186.903 498.038 186.735 498.004 186.578C497.959 186.432 497.926 186.297 497.892 186.173C497.881 186.151 497.881 186.128 497.869 186.106C497.825 185.937 497.78 185.791 497.746 185.668C497.746 185.668 497.735 185.623 497.735 185.612C497.69 185.511 497.679 185.421 497.656 185.353C497.656 185.342 497.645 185.331 497.645 185.32C497.645 185.252 497.622 185.196 497.611 185.163C497.6 185.118 497.589 185.095 497.589 185.095H508.045L513.605 203.391H518.176L521.77 206.165C521.77 206.165 529.767 204.829 535.225 205.402C536.102 205.492 536.921 205.638 537.618 205.84L538.112 178.39H557.217V204.694C557.217 204.694 558.486 204.694 560.485 204.75C566.303 204.93 578.287 205.615 583.038 208.288L583.689 204.368L587.115 204.694L593.326 184.927L606.399 184.601L616.362 188.846C580.365 328.117 579.736 471.397 655.155 623.326C743.648 753.443 845.563 887.985 1000.68 971.053L1050.92 973.996H1050.91ZM586.947 210.007V205.84L584.487 205.593L583.678 209.355L586.947 210.007ZM539.898 301.577L538.258 216.543C530.418 214.095 512.279 219.486 512.279 219.486C528.621 230.942 533.754 297.32 539.404 316.796C539.572 311.719 539.741 306.654 539.898 301.577ZM521.355 209.029V206.862L517.345 204.941V209.029H521.355Z" fill="#0C7752"/>
<path d="M1030.82 975.467C1043.72 977.309 1051.71 984.127 1049.93 1000.82C1049.56 1004.33 1048.75 1008.27 1047.47 1012.71L976.085 1011.57C968.144 1007.3 960.237 1002.84 952.375 998.177V997.211C951.802 997.2 951.23 997.178 950.657 997.166H950.645C947.905 995.538 945.165 993.887 942.435 992.191H942.424C939.481 990.394 936.539 988.552 933.596 986.687C812.195 909.695 700.958 787.598 623.955 628.436C621.091 622.506 618.26 616.531 615.498 610.488H615.486C615.273 610.005 615.048 609.522 614.824 609.039C611.645 602.098 608.534 595.09 605.501 588.014C592.709 558.329 581.107 527.476 570.796 495.489C570.785 495.478 570.785 495.466 570.785 495.455C569.066 486.852 567.82 479.226 567.337 473.441V585.083C564.787 584.993 562.204 584.903 559.576 584.824C560.385 542.976 561.047 502.194 561.519 465.141C561.564 461.424 561.609 457.729 561.654 454.09C561.676 452.158 561.699 450.226 561.721 448.317C561.755 445.733 561.777 443.161 561.811 440.623C561.822 439.477 561.833 438.354 561.845 437.231C561.856 436.097 561.867 434.974 561.878 433.85C561.912 431.615 561.923 429.392 561.946 427.201C561.946 426.763 561.957 426.325 561.957 425.899C561.968 424.641 561.979 423.394 561.991 422.158C562.036 417.542 562.069 413.016 562.103 408.602C562.103 407.692 562.114 406.783 562.125 405.884C562.137 404.985 562.137 404.098 562.148 403.211C562.159 401.886 562.17 400.583 562.17 399.28C562.182 397.09 562.193 394.933 562.204 392.799C562.204 391.822 562.204 390.845 562.204 389.879C562.215 389.194 562.215 388.509 562.215 387.835C562.226 386.88 562.226 385.948 562.226 385.005C562.238 384.207 562.238 383.421 562.238 382.635C562.238 381.253 562.238 379.883 562.238 378.535C562.271 371.403 562.271 364.664 562.249 358.33C562.249 357.049 562.249 355.78 562.238 354.534C562.238 349.906 562.215 345.526 562.17 341.404C562.17 340.371 562.159 339.36 562.148 338.371C562.125 335.822 562.103 333.385 562.058 331.049C562.058 330.566 562.058 330.094 562.058 329.622C562.047 329.476 562.047 329.341 562.047 329.195C562.036 328.78 562.036 328.375 562.024 327.971C562.002 326.432 561.979 324.939 561.946 323.501C561.923 322.602 561.901 321.726 561.89 320.873C561.867 319.997 561.845 319.132 561.822 318.301C561.8 317.38 561.777 316.481 561.744 315.628C561.642 312.303 561.519 309.439 561.373 307.08C561.328 306.362 561.283 305.699 561.238 305.07C561.193 304.374 561.137 303.733 561.081 303.149C561.058 302.869 561.036 302.599 561.002 302.352C561.002 302.33 561.002 302.318 560.991 302.296C560.789 300.465 560.564 299.387 560.306 299.129L560.003 288.672L557.857 215.903C557.857 215.903 583.095 216.79 588.733 221.193C561.744 337.888 567.258 463.749 626.01 591.451C628.099 596.011 630.267 600.56 632.491 605.12C634.4 609.017 636.354 612.914 638.365 616.812C639.173 618.373 639.982 619.934 640.802 621.495C702.968 739.83 812.06 859.266 984.486 973.996L1030.8 975.467H1030.82ZM571.346 224.383L577.063 223.563C574.772 219.969 571.391 219.868 566.438 221.193L571.346 224.383ZM579.265 247.172C575.895 243.488 569.134 241.781 569.134 241.781V294.389C571.29 273.914 574.379 257.067 579.265 247.172Z" fill="#00CE86"/>
<path d="M623.955 628.436C622.102 628.829 620.102 629.222 617.991 629.593C608.86 631.177 597.448 632.491 584.487 633.4H584.465C579.242 632.187 570.044 631.222 558.655 630.682C558.778 624.954 558.891 619.238 559.014 613.532C559.059 610.982 559.115 608.433 559.16 605.883C578.804 606.411 596.449 607.781 610.297 609.713C612.094 609.96 613.824 610.219 615.486 610.488H615.497C618.26 616.531 621.091 622.506 623.955 628.436ZM614.464 623.067V617.429H605.4V623.067H614.464ZM576.726 621.854V616.227H561.541V621.854H576.726Z" fill="#4E4F49"/>
<path d="M614.823 609.039C615.047 609.522 615.272 610.005 615.485 610.488C613.823 610.219 612.093 609.96 610.296 609.713C596.448 607.781 578.803 606.411 559.159 605.883C559.305 598.841 559.44 591.81 559.575 584.824C562.203 584.903 564.786 584.993 567.336 585.083C576.894 585.464 585.879 586.048 594.067 586.801C598.077 587.16 601.906 587.565 605.501 588.014C608.533 595.09 611.644 602.098 614.823 609.039Z" fill="#D3D4CF"/>
<path d="M605.501 588.014C601.907 587.565 598.077 587.161 594.067 586.801C590.294 573.716 577.243 527.78 570.796 495.489C581.106 527.476 592.708 558.329 605.501 588.014Z" fill="#6E726B"/>
<path d="M567.011 112.068C567.011 112.068 572.402 122.682 571.424 126.938L561.462 130.207L555.577 142.943L556.734 153.052L545.289 152.097L543.323 148.986L536.933 148.312L538.999 144.493C538.999 144.493 539.404 129.87 537.932 125.467C535.798 119.683 534.866 113.539 534.664 107.171C534.664 107.171 539.898 102.431 547.086 99.8143L551.006 98.343V94.0975L547.569 90.0092C547.569 90.0092 548.917 83.304 568.549 82.5627C569.335 82.529 569.65 83.6073 568.954 83.9891C565.169 86.067 560.844 87.6169 555.903 88.5379L555.577 92.3004L557.374 92.7946L557.048 99.3201L561.788 105.531L565.213 104.711L570.447 111.248L567.011 112.068ZM566.033 123.839L564.719 115.179L560.148 109.125V106.52L553.937 100.14C553.937 100.14 542.503 107.002 540.549 108.148C540.549 108.148 542.178 120.244 545.278 121.873H548.546L548.389 117.785C546.266 104.745 561.294 107.171 556.88 117.785C556.88 117.785 554.263 119.256 555.408 124.973C555.408 124.973 562.922 122.85 566.033 123.839Z" fill="#262A39"/>
<path d="M557.7 170.067L560.474 204.75C558.475 204.694 557.206 204.694 557.206 204.694V178.39H551.601L549.546 167.012C552.5 167.293 555.521 167.866 558.363 168.877L557.7 170.067Z" fill="#262A39"/>
<path d="M557.071 155.949L558.519 168.596L558.362 168.877C555.521 167.866 552.499 167.293 549.546 167.012V166.956H549.029C542.458 166.372 536.36 167.125 533.732 167.54L532.373 156.747L534.888 152.097H542.503L544.469 155.028L557.071 155.949Z" fill="#262A39"/>
<path d="M556.734 153.052L557.071 155.949L544.469 155.028L542.504 152.097H534.889L536.933 148.312L543.324 148.986L545.289 152.097L556.734 153.052Z" fill="#262A39"/>
<path d="M549.029 166.956H541.852C541.852 166.956 542.335 173.74 542.178 178.39H538.101L537.606 205.84C536.91 205.638 536.09 205.492 535.214 205.402L532.373 186.521L534.585 174.268L533.732 167.54C536.36 167.125 542.458 166.372 549.029 166.956Z" fill="#262A39"/>
<path d="M538.258 216.543L539.898 301.577C539.741 306.654 539.572 311.719 539.404 316.796C533.754 297.32 528.622 230.942 512.28 219.486C512.28 219.486 530.419 214.095 538.258 216.543ZM538.416 281.641V241.781C538.416 241.781 533.294 243.072 530.744 245.869C534.451 253.371 536.787 266.142 538.416 281.641ZM526.6 223.282L531.542 220.149C526.6 218.756 523.219 218.823 520.894 222.395L526.6 223.282Z" fill="#00CE86"/>
<path d="M536.843 394.001C536.27 410.702 535.686 427.415 535.08 444.127C524.197 490.019 509.787 536.855 485.841 586.981C485.122 587.048 484.426 587.127 483.729 587.194C508.124 530.835 524.051 464.31 536.843 394.001Z" fill="#00CE86"/>
<path d="M529.744 584.667C529.463 591.698 529.182 598.718 528.89 605.749C508.213 606.119 489.468 607.4 474.642 609.298C478.607 601.784 482.324 594.349 485.84 586.981C497.442 585.869 510.718 585.094 525.004 584.757C526.577 584.723 528.149 584.69 529.744 584.667Z" fill="#D3D4CF"/>
<path d="M528.891 605.749C528.79 608.388 528.678 611.016 528.565 613.656C528.352 619.193 528.116 624.741 527.891 630.278C512.538 630.57 499.543 631.592 492.085 632.985H492.052C482.932 632.244 474.71 631.3 467.646 630.2H467.634C466.242 629.986 464.883 629.762 463.58 629.526C465.354 626.415 467.084 623.326 468.769 620.249H471.363V615.486C472.34 613.667 473.306 611.859 474.25 610.062C474.385 609.803 474.519 609.545 474.643 609.298C489.468 607.4 508.214 606.119 528.891 605.749ZM522.085 617.688V612.061H506.889V617.688H522.085Z" fill="#4E4F49"/>
<path d="M524.466 331.329C524.477 332.756 524.489 334.193 524.489 335.62C524.489 337.046 524.477 338.394 524.466 339.787C524.455 341.202 524.432 342.617 524.399 344.032C524.376 345.47 524.343 346.907 524.298 348.345C524.253 349.738 524.197 351.13 524.14 352.523C524.084 353.86 524.028 355.208 523.961 356.544C523.961 356.668 523.949 356.791 523.938 356.915C523.938 357.049 523.938 357.184 523.916 357.319C523.916 357.431 523.905 357.555 523.893 357.667C523.893 357.881 523.893 358.105 523.86 358.319C523.826 359.206 523.77 360.093 523.714 360.981V361.037C523.624 362.429 523.534 363.822 523.433 365.215C523.343 366.619 523.242 368.023 523.118 369.427C523.006 370.831 522.882 372.234 522.759 373.638C522.647 374.964 522.523 376.278 522.388 377.592C522.388 377.783 522.355 377.985 522.332 378.176C522.209 379.468 522.063 380.759 521.917 382.051C521.771 383.455 521.613 384.859 521.445 386.251C521.108 389.048 520.748 391.833 520.367 394.619C520.131 396.292 519.895 397.955 519.648 399.617C519.524 400.47 519.389 401.324 519.255 402.166C519.176 402.706 519.086 403.245 518.996 403.784C518.828 404.896 518.648 406.019 518.457 407.131C517.963 410.152 517.424 413.173 516.862 416.183C516.671 417.172 516.492 418.149 516.301 419.137C516.29 419.137 516.29 419.16 516.29 419.171C516.267 419.306 516.233 419.452 516.211 419.586C516.054 420.44 515.874 421.282 515.706 422.125C515.537 422.978 515.369 423.821 515.189 424.674C514.818 426.516 514.425 428.347 514.021 430.178C513.74 431.503 513.448 432.817 513.145 434.143C513.111 434.333 513.066 434.524 513.021 434.715C512.909 435.165 512.808 435.625 512.707 436.086C512.325 437.725 511.932 439.354 511.539 440.994C511.235 442.263 510.921 443.532 510.606 444.79C510.348 445.846 510.079 446.901 509.809 447.957C509.427 449.462 509.034 450.967 508.63 452.461C508.27 453.82 507.9 455.179 507.529 456.538C506.776 459.245 506.013 461.952 505.215 464.659C503.643 470.061 501.969 475.441 500.206 480.798C499.768 482.146 499.319 483.482 498.869 484.819C498.196 486.818 497.51 488.829 496.814 490.817C496.118 492.816 495.41 494.815 494.691 496.803C494.354 497.735 494.017 498.668 493.681 499.589C493.366 500.442 493.052 501.284 492.737 502.127C492.703 502.205 492.681 502.284 492.647 502.363C491.861 504.474 491.052 506.586 490.244 508.697C489.222 511.325 488.188 513.954 487.133 516.571C482.898 527.061 478.372 537.427 473.565 547.682C472.363 550.243 471.15 552.803 469.915 555.342C469.297 556.622 468.668 557.902 468.039 559.172C466.792 561.71 465.523 564.237 464.243 566.764C462.962 569.28 461.66 571.796 460.345 574.312C459.031 576.816 457.695 579.321 456.358 581.814C455.269 583.814 454.179 585.813 453.079 587.812C452.135 589.53 451.169 591.249 450.203 592.967C448.305 596.359 446.362 599.74 444.397 603.098C357.15 752.466 219.014 868.948 136.406 913.222C136.406 913.222 136.406 913.222 136.373 913.233C135.777 913.301 127.859 914.334 118.526 919.029C124.479 914.986 130.443 910.886 136.406 906.719C323.186 776.411 514.234 583.634 510.326 298.634C509.348 282.461 486.796 190.486 486.796 190.486L497.578 185.095C497.578 185.095 497.578 185.118 497.6 185.163C497.612 185.196 497.623 185.252 497.634 185.32C497.634 185.331 497.645 185.342 497.645 185.354C497.668 185.421 497.679 185.511 497.724 185.612C497.724 185.612 497.724 185.646 497.735 185.657C497.769 185.792 497.814 185.938 497.859 186.106C497.859 186.129 497.859 186.151 497.881 186.173C497.915 186.297 497.949 186.432 497.993 186.578C498.027 186.735 498.083 186.903 498.128 187.083C498.184 187.274 498.241 187.488 498.308 187.712C498.342 187.836 498.375 187.97 498.42 188.116C498.476 188.33 498.533 188.555 498.6 188.79C498.645 188.959 498.69 189.127 498.746 189.307C498.746 189.341 498.768 189.386 498.78 189.431C498.791 189.498 498.813 189.565 498.836 189.644C498.948 190.06 499.072 190.498 499.195 190.958C499.206 191.003 499.218 191.037 499.229 191.082C499.341 191.463 499.442 191.857 499.555 192.272C499.644 192.575 499.723 192.89 499.813 193.216C499.869 193.395 499.914 193.586 499.97 193.766C500.251 194.81 500.554 195.934 500.88 197.124C500.947 197.382 501.015 197.641 501.093 197.899C501.093 197.944 501.116 197.989 501.127 198.034C501.251 198.517 501.385 199.011 501.52 199.516C501.745 200.348 501.981 201.212 502.216 202.1C502.34 202.583 502.475 203.077 502.61 203.571C502.958 204.885 503.328 206.255 503.699 207.671C503.778 207.985 503.867 208.299 503.946 208.625C504.025 208.895 504.092 209.164 504.16 209.434C504.249 209.76 504.339 210.085 504.418 210.411C504.53 210.827 504.642 211.231 504.744 211.646C504.934 212.332 505.114 213.028 505.294 213.736C505.44 214.32 505.597 214.904 505.754 215.499C506.249 217.408 506.754 219.374 507.271 221.384C507.507 222.294 507.742 223.226 507.978 224.158C508.068 224.529 508.169 224.9 508.259 225.27C508.36 225.652 508.45 226.023 508.551 226.405C508.809 227.416 509.068 228.438 509.315 229.46C509.483 230.122 509.652 230.785 509.82 231.459C509.944 231.975 510.079 232.492 510.202 233.009C510.393 233.784 510.584 234.559 510.786 235.334C510.887 235.749 510.988 236.176 511.089 236.603C511.336 237.614 511.584 238.625 511.831 239.647L512.269 241.432C513.055 244.69 513.819 247.947 514.571 251.181C514.751 251.968 514.931 252.754 515.11 253.529C515.178 253.832 515.245 254.124 515.312 254.416C515.436 254.921 515.548 255.416 515.661 255.921C516.424 259.291 517.154 262.615 517.828 265.827C517.985 266.569 518.143 267.31 518.289 268.04C518.412 268.635 518.536 269.219 518.659 269.803C518.738 270.185 518.805 270.567 518.884 270.949C519.255 272.78 519.603 274.554 519.929 276.284C520.063 276.98 520.187 277.665 520.31 278.35C520.367 278.642 520.411 278.923 520.468 279.215L520.67 280.361C520.793 281.023 520.906 281.675 521.007 282.315C521.029 282.427 521.04 282.528 521.063 282.641C521.142 283.113 521.22 283.573 521.288 284.022C521.299 284.09 521.31 284.157 521.321 284.213C521.478 285.157 521.613 286.066 521.737 286.942C521.782 287.201 521.815 287.459 521.849 287.706C521.894 288.032 521.939 288.346 521.984 288.672C522.253 290.649 522.467 292.491 522.613 294.142C522.647 294.524 522.669 294.906 522.691 295.265C522.703 295.478 522.725 295.703 522.736 295.905C522.748 296.119 522.759 296.332 522.77 296.534C522.77 296.624 522.781 296.714 522.781 296.804C522.815 297.455 522.826 298.062 522.826 298.634C522.95 300.038 523.073 301.454 523.186 302.857C523.219 303.251 523.253 303.632 523.276 304.026C523.365 305.149 523.444 306.261 523.523 307.373L523.556 307.878C523.612 308.687 523.669 309.484 523.714 310.293C523.725 310.517 523.736 310.753 523.747 310.978C523.803 311.82 523.86 312.674 523.893 313.516C523.905 313.685 523.916 313.842 523.927 314.01C523.983 315.044 524.039 316.077 524.073 317.11C524.129 318.256 524.174 319.402 524.219 320.536C524.219 320.671 524.23 320.794 524.23 320.929C524.253 321.535 524.275 322.142 524.286 322.748C524.298 322.984 524.309 323.22 524.309 323.456C524.354 324.68 524.376 325.905 524.399 327.129C524.432 328.533 524.455 329.925 524.466 331.329Z" fill="#00CE86"/>
<path d="M522.084 612.061H506.888V617.688H522.084V612.061Z" fill="#262A32"/>
<path d="M471.363 615.486V620.248H468.768H462.288V614.61H471.363V615.486Z" fill="#262A32"/>
<path opacity="0.15" d="M560.474 217.666C560.351 217.666 574.705 216.442 586.947 221.957L577.063 276.845C580.511 254.843 582.904 233.896 577.692 220.418C577.692 220.418 568.921 218.015 560.957 219.306C560.957 219.306 567.977 266.917 566.427 288.728C563.114 258.032 560.665 235.289 558.745 217.543L560.463 217.655L560.474 217.666Z" fill="#231F20"/>
<path opacity="0.15" d="M516.21 220.418C516.21 220.418 533.686 254.876 534.585 279.215C531.429 251.294 528.475 228.831 526.217 226.124L516.199 220.418H516.21Z" fill="#231F20"/>
<path opacity="0.15" d="M526.218 217.543L533.518 219.306L534.574 239.68C534.574 239.68 536.775 238.209 538.404 238.377L537.101 217.554H526.206L526.218 217.543Z" fill="#231F20"/>
</svg>
