<svg width="458" height="305" viewBox="0 0 458 305" fill="none" xmlns="http://www.w3.org/2000/svg">
<g opacity="0.56">
<path fill-rule="evenodd" clip-rule="evenodd" d="M75.4642 111.25C69.8209 92.9093 61.8019 43.6218 59.0695 21.079L25.4016 34.6037C21.1858 42.3787 40.4301 111.191 50.5793 144.625C51.9004 149.314 54.1002 155.858 57.1798 163.589C59.9101 170.444 63.3319 178.233 67.446 186.491C71.5215 194.671 76.2763 203.312 81.7112 211.961C85.2033 217.519 88.9762 223.08 93.0301 228.525C94.5273 230.536 96.0628 232.531 97.6367 234.504C99.3725 236.68 101.155 238.83 102.984 240.945C123.465 264.626 141.672 283.846 153.925 296.935C164.092 307.794 170.16 314.432 170.027 315.892C169.793 318.469 164.465 319.113 161.83 319.113C185.953 336.21 174.614 353.561 165.928 360.1C173.247 357.367 177.288 359.104 134.895 387.912C116.226 400.599 98.5001 424.955 83.3566 451.735C64.113 485.765 49.04 523.708 41.5036 546.591L86.0038 549.811C91.3906 498.05 125.917 443.928 142.507 423.337C160.366 397.671 205.569 353.366 243.511 381.472C281.453 409.577 310.066 496.235 319.63 536.051H356.811L345.393 501.505C328.295 449.276 295.72 399.721 281.57 381.472C292.695 387.034 322.85 404.893 354.468 431.827C386.087 458.761 412.729 509.409 422.097 531.367H457.814L435.271 489.209C396.626 418.067 319.044 380.301 281.57 363.613C251.591 350.263 260.686 330.335 268.981 322.04C326.07 294.521 393.699 227.185 412.729 191.175H397.505L343.051 167.995L306.575 170.389C304.06 179.401 300.993 189.72 297.499 200.543L337.781 197.451L348.028 196.665L363.544 195.474L377.597 194.395L358.86 223.965C356.747 226.941 354.389 229.956 351.834 232.982C344.991 241.085 336.726 249.274 327.924 257.047C306.117 276.304 281.013 293.008 266.066 299.534C253.395 305.067 248.024 303.285 258.149 289.544C266.085 278.774 273.876 263.121 281.004 245.922C283.767 239.256 286.43 232.359 288.963 225.423C291.984 217.154 294.821 208.83 297.422 200.782C297.448 200.702 297.473 200.623 297.499 200.543C300.993 189.72 304.06 179.401 306.575 170.389C308.258 164.355 309.695 158.908 310.847 154.287L312.896 146.089L412.729 191.175C427.952 162.367 443.274 113.007 449.031 91.9279L423.561 74.0693C422.975 75.338 421.219 81.2128 418.877 94.5628C416.534 107.913 403.653 139.941 397.505 154.287L318.458 115.642C325.719 86.1312 329.096 34.8389 329.876 12.8816L315.531 10.5395L296.501 0C295.72 4.68423 294.335 16.8047 295.037 27.8126C295.74 38.8205 288.889 88.0244 285.376 111.25L79.2702 123.254C79.2702 123.254 78.9774 122.668 75.4642 111.25ZM71.0728 159.849L295.623 144.625L291.817 167.168C283.349 217.323 247.414 282.908 230.629 309.452L183.201 312.086C141.512 292.647 91.0783 202.495 71.0728 159.849Z" fill="#EFB018"/>
<path d="M25.4016 100.418L0.223863 116.813C-0.997947 130.253 2.34549 161.703 21.1395 198.201L36.8194 167.168C30.1641 153.584 26.4345 117.008 25.4016 100.418Z" fill="#B38108"/>
<path d="M40.6253 229.527C85.711 290.715 131.675 297.741 161.83 319.113C164.465 319.113 169.793 318.469 170.027 315.892C170.16 314.432 164.092 307.794 153.925 296.935C124.813 284.533 91.3688 251.09 71.0728 227.599C69.4615 225.734 67.9331 223.932 66.4963 222.208C63.8994 219.092 61.6017 216.231 59.655 213.718L81.7112 211.961C76.2763 203.312 71.5215 194.671 67.446 186.491H58.1268L42.3819 211.961H28.8487C32.3617 217.75 36.2739 223.622 40.6253 229.527Z" fill="#FFC420"/>
<path d="M30.6713 104.517L25.4016 100.418C26.4345 117.008 30.1641 153.584 36.8194 167.168L21.1395 198.201C23.4657 202.719 26.0285 207.314 28.8487 211.961L57.1798 163.589C54.1002 155.858 51.9004 149.314 50.5793 144.625L40.6253 163.362C34.5358 155.399 31.452 120.814 30.6713 104.517Z" fill="#FFBF00"/>
<path d="M28.8487 211.961H42.3819L58.1268 186.491H67.446C63.3319 178.233 59.9101 170.444 57.1798 163.589L28.8487 211.961Z" fill="#FFC420"/>
<path d="M295.623 144.625L71.0728 159.849L86.0038 163.362L93.0301 162.898L96.836 162.647L279.228 150.594L285.376 150.188L295.623 144.625Z" fill="#FFBF00"/>
<path d="M397.505 191.175H412.729L312.896 146.089L310.847 154.287L343.051 167.995L397.505 191.175Z" fill="#FFBF00"/>
<path d="M313.774 3.80593L296.501 0L315.531 10.5395L329.876 12.8816L313.774 3.80593Z" fill="#FFC420"/>
<path d="M168.177 249.435L202.231 248.849V245.922L167.45 247.093C167.674 247.832 167.917 248.615 168.177 249.435Z" fill="#FFC420"/>
<path fill-rule="evenodd" clip-rule="evenodd" d="M220.382 298.327C221.456 297.936 227.116 291.886 241.169 270.807L236.777 263.195H233.85L230.044 257.047L230.629 247.093H252.248C252.608 246.132 252.967 245.156 253.327 244.165H230.629L230.044 234.504L235.021 233.626V227.478H238.827V222.501V221.622H243.218V216.645H248.195V213.132L261.845 218.109C263.292 213.276 264.704 208.366 266.066 203.471L248.195 205.813L241.169 196.445L275.428 167.168C276.538 162.518 277.54 158.182 278.412 154.287L226.238 194.395V188.247H200.475V194.395L96.836 162.647L93.0301 162.898C94.0319 164.566 95.3228 166.772 96.836 169.427L138.701 181.545L175.004 192.053L181.445 205.813L190.228 219.28L158.28 243.58C160.879 258.308 165.837 275.932 174.368 286.808C178.951 291.373 183.095 295.304 186.422 298.327H220.382ZM194.912 225.423L202.231 232.455V245.922V248.849L202.817 257.047L196.961 257.632V264.951L190.228 265.537V273.149H183.787L184.372 280.468H183.201C178.164 277.739 171.652 260.384 168.177 249.435C167.917 248.615 167.674 247.832 167.45 247.093C167.327 246.689 167.21 246.298 167.099 245.922L194.912 225.423Z" fill="#FFC420"/>
<path d="M181.445 205.813L175.004 192.053L138.701 181.545L104.325 182.978C108.493 190.736 113.217 199.885 117.901 209.619L145.435 207.277L145.737 209.619L152.461 207.277C152.852 212.091 154.101 222.266 155.974 224.452L165.636 216.938L163.293 205.813H181.445Z" fill="#EFB018"/>
<path d="M86.0038 163.362L71.0728 159.849C91.0783 202.495 141.512 292.647 183.201 312.086L230.629 309.452C247.414 282.908 283.349 217.323 291.817 167.168L295.623 144.625L285.376 150.188L279.228 150.594C278.97 151.775 278.698 153.007 278.412 154.287C277.54 158.182 276.538 162.518 275.428 167.168C272.821 178.081 269.613 190.725 266.066 203.471C264.704 208.366 263.292 213.276 261.845 218.109C261.404 219.581 260.96 221.046 260.513 222.501C258.175 230.115 255.759 237.461 253.327 244.165C252.967 245.156 252.608 246.132 252.248 247.093C248.5 257.101 244.734 265.459 241.169 270.807C227.116 291.886 221.456 297.936 220.382 298.327H186.422C183.095 295.304 178.951 291.373 174.368 286.808C168.182 280.647 161.195 273.332 154.339 265.537C149.089 259.569 143.916 253.319 139.237 247.093C132.77 238.487 127.247 229.925 123.77 222.208C122.708 219.849 121.629 217.503 120.542 215.182C119.666 213.31 118.784 211.454 117.901 209.619C113.217 199.885 108.493 190.736 104.325 182.978C101.514 177.746 98.9567 173.146 96.836 169.427C95.3228 166.772 94.0319 164.566 93.0301 162.898L86.0038 163.362Z" fill="#FFBF0C"/>
<path d="M120.542 215.182C121.629 217.503 122.708 219.849 123.77 222.208C127.247 229.925 132.77 238.487 139.237 247.093L151.29 247.971C151.761 252.07 153.031 261.321 154.339 265.537C161.195 273.332 168.182 280.647 174.368 286.808C165.837 275.932 160.879 258.308 158.28 243.58C156.941 235.998 156.228 229.183 155.974 224.452L152.461 227.185L147.777 225.423L120.542 215.182Z" fill="#EFB018"/>
<path d="M147.777 225.423L152.461 227.185L155.974 224.452C154.101 222.266 152.852 212.091 152.461 207.277L145.737 209.619L147.777 225.423Z" fill="#EFB018"/>
</g>
</svg>
