<svg width="1187" height="430" viewBox="0 0 1187 430" fill="none" xmlns="http://www.w3.org/2000/svg">
<g opacity="0.56" clip-path="url(#clip0_38_3916)">
<path d="M586.013 191.213C589.124 212.608 576.472 221.226 571.452 210.046V204.882C572.417 204.529 573.858 204.446 575.549 205.701C580.547 194.708 577.944 187.2 571.452 181.496C569.005 179.329 565.997 177.431 562.648 175.689C560.107 174.776 557.701 173.708 555.399 172.505C551.52 170.462 547.942 168.025 544.551 165.245C542.85 163.856 541.201 162.383 539.573 160.838C538.038 159.376 536.534 157.851 535.041 156.254C533.299 154.398 531.577 152.458 529.845 150.447C527.823 148.082 525.801 145.624 523.737 143.083C522.327 141.341 520.896 139.547 519.433 137.732C517.774 135.668 516.084 133.553 514.341 131.416C513.429 130.296 512.184 129.519 510.836 129.187C509.498 128.845 508.067 128.938 506.76 129.55C503.463 131.116 502.809 134.859 508.254 137.068C508.793 137.483 509.633 137.784 510.836 137.898C509.851 137.66 509 137.38 508.254 137.068C506.211 135.565 508.337 132.619 510.836 132.785C512.609 132.899 514.58 134.59 515.358 139.485C514.445 142.834 512.786 144.535 510.836 145.012C509.332 145.386 507.652 145.012 506.003 144.12C504.78 143.446 503.577 142.472 502.498 141.279C499.47 137.96 497.344 132.962 498.101 128.098C498.557 125.142 500.092 122.238 503.141 119.801C503.141 119.801 503.991 119.449 505.568 119.366C505.703 119.355 505.848 119.345 506.003 119.345C510.639 119.221 520.553 121.398 532.977 138.282C535.145 141.227 537.489 144.037 540.029 146.661C551.914 158.971 563.249 170.203 567.18 167.091C567.18 167.091 569.212 157.965 573.288 167.62C573.288 167.62 577.229 180.459 583.036 185.675C584.644 187.117 585.701 189.077 586.013 191.213Z" fill="#033C2F"/>
<path d="M444.091 364.486L442.846 364.164V387.249L444.091 387.54L447.036 388.224L453.144 389.645L469.198 393.378L471.76 393.98L482.358 396.396L490.199 398.18C490.199 398.18 490.271 398.252 490.302 398.294C491.008 399.092 491.733 399.87 492.48 400.617C493.227 400.254 493.974 399.818 494.71 399.321L506.615 402.09L509.301 402.712L519.205 405.024L526.444 406.704V385.434L520.553 383.941L508.046 380.757L487.523 375.53L476.603 372.824L469.198 370.998V370.698C469.198 370.698 469.136 370.687 469.105 370.677C467.746 370.252 466.408 369.754 465.091 369.194C465.081 369.412 465.091 369.619 465.102 369.827L455.073 367.275L445.563 364.859C445.2 364.527 444.848 364.206 444.506 363.863C444.599 364.133 444.692 364.392 444.786 364.652L444.091 364.486ZM444.091 429.333V430.484C441.291 435.96 439.434 442.006 438.74 448.394H438.428V728.287L434.353 732.082L434.27 732.321L427.799 749.65V251.363L444.091 255.781L469.198 262.594V267.012C464.718 268.101 460.611 270.051 456.992 272.726C454.939 274.251 453.051 276.004 451.34 277.953C448.353 281.334 445.906 285.327 444.091 289.796C440.928 297.606 439.694 306.846 440.969 316.76C441.55 321.271 442.618 325.648 444.091 329.806C448.633 342.656 457.106 353.503 467.414 360.213C468.005 360.597 468.597 360.97 469.198 361.323V322.972L500.486 297.315L506.003 292.794C510.255 298.674 513.584 305.466 515.638 312.809C514.424 312.695 513.201 312.633 511.977 312.633C510.919 312.633 509.861 312.674 508.835 312.767C508.606 312.788 508.389 312.809 508.161 312.83C501.886 313.483 496.203 315.733 491.371 319.239C484.993 323.864 480.077 330.688 477.215 338.901C474.601 346.337 473.678 354.934 474.85 364.081C474.85 364.112 474.86 364.154 474.86 364.185C479.89 366.321 485.2 367.483 490.593 367.483C494.419 367.483 498.049 366.892 501.44 365.792C501.606 365.741 501.783 365.689 501.948 365.626C514.269 361.416 523.291 350.351 526.444 335.987C527.554 330.978 527.937 325.565 527.502 319.902C527.429 318.865 527.325 317.818 527.191 316.76C527.139 316.366 527.087 315.982 527.025 315.599C526.859 314.489 526.672 313.379 526.444 312.29C522.347 291.974 508.503 275.101 491.858 268.744L510.836 273.888V224.503C513.875 220.718 519.392 220.936 525.469 222.076C527.242 222.585 528.985 223.145 530.706 223.798C540.496 227.49 549.301 234.034 554.88 249.807L557.141 274.718L559.101 275.018L558.199 282.257L559.713 285.576C557.141 293.125 562.575 294.256 562.575 294.256C563.519 293.841 564.214 293.291 564.732 292.68L564.836 295.075L585.598 770.734H585.588L582.155 770.433V766.026L550.97 744.984L547.942 742.941L546.584 740.908L537.084 726.648L536.493 726.607L519.205 725.3V725.155L529.845 724.844V597.907L524.868 458.703C524.868 454.793 524.432 450.987 523.623 447.316C522.659 443.022 521.165 438.916 519.205 435.089C513.927 424.749 505.277 416.401 494.71 411.506C488.073 408.426 480.668 406.704 472.859 406.704H469.198V406.611C469.126 406.642 469.053 406.673 468.991 406.704C466.937 407.627 464.967 408.685 463.079 409.857C455.374 414.628 449.017 421.348 444.682 429.333H444.091ZM487.513 402.172C487.679 402.162 487.855 402.152 488.031 402.152C488.01 402.131 487.99 402.121 487.979 402.1C487.824 402.141 487.668 402.162 487.513 402.172Z" fill="#88A466"/>
<path d="M580.496 228.195C583.213 238.151 582.984 249.237 576.793 262.574L576.005 291.767L572.603 294.256C572.603 294.256 576.005 297.647 573.516 301.94C576.005 312.353 565.821 310.766 567.854 301.94C566.039 299.98 565.168 297.72 568.31 294.256L564.836 295.075L564.732 292.68C567.117 289.859 565.593 285.576 565.593 285.576L567.097 284.373V278.036H570.115L571.774 253.603C578.774 244.529 580.319 234.459 580.496 228.195Z" fill="#88A466"/>
<path d="M580.496 228.195C580.319 234.459 578.774 244.529 571.774 253.603L570.115 278.036H567.097V284.373L565.593 285.576C565.593 285.576 567.117 289.859 564.732 292.679C564.214 293.291 563.519 293.841 562.575 294.256C562.575 294.256 557.141 293.125 559.713 285.576L558.199 282.257L559.101 275.018L557.141 274.718L554.88 249.807C549.301 234.034 540.496 227.49 530.706 223.798C528.985 223.144 527.242 222.584 525.469 222.076C519.392 220.936 513.875 220.718 510.836 224.503C510.4 225.032 510.017 225.644 509.695 226.349C508.638 225.976 507.403 228.361 508.803 229.087C509.021 228.05 509.322 227.137 509.695 226.349C510.286 226.556 510.836 227.635 510.836 230.362V230.445C510.349 236.346 499.522 231.119 503.297 223.435C504.925 220.158 507.445 217.627 510.836 216.144C513.149 215.107 515.866 214.558 519.008 214.568C522.347 214.589 526.143 215.242 530.426 216.663C534.222 217.907 538.401 219.753 542.944 222.263C548.772 225.478 555.212 229.792 562.274 235.351C566.433 234.614 569.409 233.183 571.442 231.431H571.452C576.472 227.106 575.735 220.873 572.832 218.457C570.706 216.652 570.913 207.257 576.793 218.343C578.287 221.527 579.562 224.793 580.496 228.195Z" fill="#033C2F"/>
<path d="M571.452 231.42L571.442 231.431L542.943 222.263C538.401 219.753 534.222 217.907 530.426 216.663C526.143 215.242 522.347 214.589 519.008 214.568L510.836 211.944L479.901 201.999C471.853 195.911 460.87 193.744 452.107 193.059L423.391 183.83L421.69 135.409H418.206L418.061 125.91L448.156 136.125L453.134 137.805L460.155 140.19L465.579 142.026L471.469 144.027L476.893 145.873L481.425 147.408L486.849 149.244L490.956 150.644L497.489 152.852L502.498 154.553L506.003 155.746L510.836 157.384L519.433 160.299L523.737 161.761L529.845 163.835L535.041 165.598L539.573 167.133L544.551 168.823L555.399 172.505C557.701 173.708 560.107 174.776 562.648 175.689C565.997 177.431 569.005 179.329 571.452 181.496V204.882C570.602 205.193 570.114 205.701 570.114 205.701C570.446 207.392 570.903 208.833 571.452 210.046V231.42Z" fill="#88A466"/>
<path d="M494.43 417.552C492.781 416.525 491.059 415.602 489.296 414.773C483.157 411.879 476.364 410.168 469.198 409.899C468.534 409.867 467.871 409.857 467.207 409.857H463.079C464.967 408.685 466.937 407.627 468.991 406.704H472.859C480.668 406.704 488.073 408.426 494.71 411.506C505.277 416.401 513.926 424.749 519.205 435.089C521.165 438.916 522.659 443.022 523.623 447.316C524.432 450.987 524.867 454.793 524.867 458.703L529.845 597.907V724.844L519.205 725.155V461.855C519.205 455.633 518.106 449.66 516.094 444.132C513.377 436.613 508.969 429.903 503.317 424.449C500.621 421.846 497.645 419.523 494.43 417.552Z" fill="#033C2F"/>
<path d="M527.502 319.902C527.937 325.565 527.553 330.978 526.444 335.987C523.291 350.35 514.269 361.416 501.948 365.626C502.156 365.398 502.353 365.17 502.539 364.932C513.677 356.002 519.807 340.011 517.463 321.779C517.141 319.301 516.675 316.853 516.073 314.468C515.938 313.908 515.793 313.359 515.638 312.809C513.584 305.466 510.255 298.674 506.003 292.794C496.825 280.058 483.354 271.586 469.198 271.078C468.742 271.057 468.285 271.046 467.829 271.046C464.013 271.046 460.373 271.627 456.992 272.726C460.611 270.051 464.718 268.101 469.198 267.012C471.863 266.369 474.663 266.027 477.567 266.027C479.62 266.027 481.663 266.193 483.675 266.525L491.858 268.744C508.503 275.101 522.347 291.974 526.444 312.29C526.672 313.379 526.859 314.489 527.024 315.599C527.087 315.982 527.139 316.366 527.19 316.76C527.325 317.818 527.429 318.865 527.502 319.902Z" fill="#033C2F"/>
<path d="M469.188 370.988C469.188 370.988 469.198 371.019 469.198 371.04V370.998L476.603 372.824L487.523 375.53L508.046 380.757L520.553 383.941L526.444 385.434V406.704L519.205 405.024V389.054L505.848 385.631L478.501 378.662L473.938 377.501C474 377.511 474.072 377.511 474.135 377.511L470.94 376.692L469.198 376.246L465.496 375.302L458.091 373.404C457.251 373.01 456.411 372.575 455.592 372.118C455.613 372.336 455.623 372.554 455.633 372.772L446.372 370.407L444.091 369.827L442.846 369.505V364.164L444.091 364.486L444.786 364.652L445.564 364.859L455.073 367.275L465.102 369.827L469.157 370.853C469.157 370.853 469.177 370.947 469.188 370.988Z" fill="#033C2F"/>
<path d="M519.205 389.054V396.749L510.338 402.089H506.615L494.71 399.321C498.713 396.655 502.571 392.144 505.848 385.631L519.205 389.054Z" fill="#033C2F"/>
<path d="M503.317 424.449C508.969 429.904 513.377 436.613 516.094 444.132C512.899 443.012 508.896 441.923 504.51 441.373C492.687 439.901 478.116 442.462 469.198 459.771V445.843L473.73 443.002L503.317 424.449Z" fill="#88A466"/>
<path d="M510.836 236.097V273.888L491.858 268.744C489.192 267.717 486.454 266.971 483.675 266.525L469.198 262.594V256.922L510.836 236.097Z" fill="#033C2F"/>
<path d="M506.003 292.794L500.486 297.315L469.198 322.972V271.078C483.354 271.586 496.825 280.058 506.003 292.794Z" fill="#033C2F"/>
<path d="M505.568 119.366C503.991 119.449 503.141 119.801 503.141 119.801C500.092 122.238 498.557 125.142 498.101 128.098H497.489V128.046C497.489 121.782 492.532 114.709 485.251 111.142C490.043 109.96 492.843 109.991 492.843 109.991V107.046L490.924 101.549L494.761 97.3282L499.366 102.752L496.358 107.046L499.677 113.61C501.876 113.983 504.136 117.032 505.568 119.366Z" fill="#033C2F"/>
<path d="M497.489 128.046V128.098C497.468 132.018 495.508 135.617 490.956 137.846C489.763 138.427 488.404 138.914 486.849 139.288C486.558 139.36 486.258 139.423 485.947 139.485C484.018 138.894 482.535 138.012 481.425 136.954C474.84 130.784 481.332 119.013 486.175 130.431C490.136 130.753 490.178 128.15 488.384 125.277C485.884 121.295 481.352 119.376 476.893 119.853C475.306 120.029 473.73 120.507 472.247 121.305C471.988 121.44 471.728 121.585 471.469 121.71C469.551 122.726 467.58 123.649 465.579 124.468C463.805 125.215 462.001 125.868 460.155 126.449C457.873 127.175 455.53 127.766 453.134 128.233C451.506 128.554 449.846 128.813 448.156 128.99C439.03 130.037 429.074 129.176 418.061 125.91C414.42 128.658 411.88 131.748 411.226 135.409C410.646 138.562 411.475 142.15 414.182 146.319C415.146 147.812 416.681 148.808 418.423 149.119C418.558 149.15 418.703 149.171 418.849 149.192C419.585 149.285 420.301 149.586 420.715 150.312C421.597 151.919 420.186 153.724 418.486 153.693C418.226 153.693 417.978 153.651 417.708 153.547C413.954 152.189 407.534 149.057 404.89 142.969C402.1 136.571 403.479 126.895 416.484 112.563L416.972 108.103C417.096 107.025 418.579 106.641 419.087 107.585C419.16 107.72 419.201 107.875 419.201 108.031C419.201 108.031 425.382 111.432 421.047 113.465C421.047 113.465 430.288 127.496 469.198 109.617C474.715 108.072 479.983 108.757 484.453 110.769C484.723 110.883 484.982 111.007 485.241 111.142H485.252C492.532 114.709 497.489 121.782 497.489 128.046Z" fill="#033C2F"/>
<path d="M494.43 417.552L473.73 429.333V443.002L469.198 445.843L465.133 448.394V429.333L469.198 426.886L489.296 414.773C491.059 415.602 492.781 416.525 494.43 417.552Z" fill="#033C2F"/>
<path d="M492.169 337.014C492.283 338.372 490.924 346.503 490.924 346.503V363.355H484.08L481.425 348.328L477.214 338.901C480.077 330.688 484.992 323.864 491.37 319.239C491.702 326.882 492.107 336.226 492.169 337.014Z" fill="#033C2F"/>
<path d="M490.945 224.316C491.008 226.225 489.296 227.78 487.43 227.355C485.076 226.826 482.97 225.094 486.403 219.805C486.403 219.805 471.013 184.96 441.146 209.403L440.689 233.837L437.972 236.097C437.972 236.097 439.569 237.529 439.414 240.318C439.331 241.832 438.729 243.751 437.07 246.053C437.36 248.273 436.552 249.444 435.473 249.735L433.16 249.164C432.092 248.335 431.335 246.727 431.791 244.549C431.791 244.549 425.455 241.376 429.375 234.739L427.799 233.557L425.756 232.032L426.212 223.881L424.854 207.806C424.854 207.806 424.615 207.537 424.211 207.039C420.373 202.341 401.167 177.306 414.556 162.041C414.556 162.041 416.91 161.056 418.621 161.999C418.797 162.093 418.973 162.217 419.139 162.373C420.508 163.617 420.073 165.66 418.693 166.625C418.31 166.894 417.843 167.081 417.324 167.143C416.37 167.247 415.427 167.019 414.898 165.961C414.12 164.405 414.379 174.143 418.922 182.398C420.145 184.607 421.67 186.723 423.557 188.476C426.928 191.597 431.47 193.609 437.526 193.111C437.526 193.111 443.832 192.416 452.107 193.059C460.871 193.744 471.853 195.911 479.901 201.999C486.144 206.717 490.624 213.78 490.945 224.316Z" fill="#033C2F"/>
<path d="M490.199 398.18L482.358 396.396C477.65 390.92 473.792 384.418 471.148 377.273C472.081 377.387 473.004 377.47 473.937 377.501L478.5 378.662C481.269 385.984 485.314 392.611 490.199 398.18Z" fill="#033C2F"/>
<path d="M489.296 414.773L469.198 426.886L465.133 429.333V448.394L469.198 445.843V722.707H448.384L448.446 719.938L452.926 520.294C453.092 512.754 451.796 505.246 449.1 498.215C447.388 493.745 445.625 489.991 444.091 487.025C442.483 483.934 440.088 480.18 438.428 477.67V454.088C438.428 452.159 438.532 450.261 438.739 448.394H450.645V429.333H444.682C449.017 421.348 455.374 414.628 463.079 409.857H467.207C467.87 409.857 468.534 409.867 469.198 409.899C476.364 410.168 483.157 411.879 489.296 414.773Z" fill="#88A466"/>
<path d="M469.198 262.594L483.675 266.525C481.663 266.193 479.62 266.027 477.567 266.027C474.663 266.027 471.863 266.369 469.198 267.012V262.594Z" fill="#033C2F"/>
<path d="M482.359 396.396L471.76 393.98L469.198 393.378L453.144 389.645L447.036 388.224L444.091 387.54L442.846 387.249V369.505L444.091 369.827L446.372 370.407L455.633 372.772L458.091 373.404C460.528 374.576 463.048 375.51 465.61 376.204C466.792 376.516 467.995 376.785 469.198 376.993C469.841 377.096 470.495 377.2 471.148 377.273C473.792 384.418 477.65 390.92 482.359 396.396Z" fill="#88A466"/>
<path d="M469.198 322.972V361.323C468.596 360.97 468.005 360.597 467.414 360.213C457.106 353.503 448.633 342.655 444.091 329.806C442.618 325.648 441.55 321.271 440.969 316.76C439.694 306.846 440.928 297.606 444.091 289.796C445.906 285.327 448.353 281.334 451.34 277.953C453.051 276.004 454.938 274.251 456.992 272.726C460.373 271.627 464.013 271.046 467.829 271.046C468.285 271.046 468.742 271.057 469.198 271.078V322.972Z" fill="#033C2F"/>
<path d="M469.198 256.922V262.594L444.091 255.781V251.85V237.414L455.322 230.445H469.198V256.922Z" fill="#033C2F"/>
<path d="M450.645 429.333V448.394H444.091V430.484C444.278 430.101 444.485 429.717 444.682 429.333H450.645Z" fill="#033C2F"/>
<path d="M366.954 416.598L371.673 413.497L380.602 407.617L383.184 405.916C384.626 406.404 386.109 406.663 387.612 406.694C386.752 406.103 385.912 405.429 385.082 404.672L389.355 401.861L406.757 390.412V367.794L376.9 388.743L375.147 389.977L369.733 393.772L368.52 394.623L357.88 402.09V422.571L366.954 416.598ZM402.339 284.86C400.223 283.937 398.315 283.263 397.485 283.159C397.413 283.149 397.361 283.149 397.309 283.149C394.364 281.106 391.211 279.996 387.934 279.996C379.42 279.996 371.735 287.463 366.259 299.452C361.064 310.838 357.88 326.311 357.88 343.35C357.88 348.774 358.201 354.032 358.813 359.062C359.954 368.52 362.111 377.138 365.025 384.356C367.41 384.211 369.816 383.495 372.202 382.271C372.399 382.168 372.606 382.064 372.803 381.95C385.518 374.97 397.475 353.648 402.193 327.037C402.225 326.892 402.245 326.737 402.266 326.591C402.681 324.258 403.023 321.956 403.293 319.674C403.562 317.476 403.77 315.308 403.915 313.182C404.548 304.212 404.164 295.801 402.909 288.407C402.857 288.345 402.795 288.272 402.743 288.21C402.608 286.675 402.463 285.596 402.339 284.86ZM393.316 265.125L407.431 253.52L407.182 242.787L404.89 142.969C407.534 149.057 413.954 152.189 417.708 153.547C417.978 153.651 418.226 153.693 418.486 153.693L418.62 161.999C416.909 161.056 414.555 162.041 414.555 162.041C401.167 177.306 420.373 202.341 424.21 207.039L425.631 247.308L425.755 250.813L427.798 251.363V749.65L425.133 756.785L427.798 757.024V769.199H427.57L418.206 770.06L416.256 768.069H409.878V736.832H410.988C410.946 735.837 410.894 734.851 410.843 733.887H412.616V732.456L410.791 732.871C410.386 725.788 409.878 719.866 409.878 719.866V409.857C408.032 409.857 406.207 409.95 404.402 410.148C399.393 410.666 394.592 411.9 390.112 413.756C389.313 414.078 388.535 414.42 387.758 414.783C370.096 423.1 357.88 441.052 357.88 461.855V732.757L350.174 746.332L349.469 746.923L345.663 747.794V367.711C340.758 355.059 339.472 336.485 343.019 316.511C343.745 312.456 344.626 308.526 345.663 304.741C348.681 293.696 352.943 283.979 357.88 276.377C365.575 264.513 374.908 257.834 383.703 259.4C387.332 260.043 390.558 262.034 393.316 265.125Z" fill="#88A466"/>
<path d="M423.391 183.83L423.557 188.476C421.669 186.723 420.145 184.607 418.921 182.398L423.381 183.83H423.391Z" fill="#88A466"/>
<path d="M421.69 135.409L423.391 183.83L418.932 182.398L418.693 166.625C420.073 165.66 420.508 163.617 419.139 162.373C418.973 162.217 418.797 162.093 418.621 161.999L418.486 153.693C420.187 153.724 421.597 151.919 420.716 150.312C420.301 149.586 419.585 149.285 418.849 149.192C418.704 149.171 418.558 149.15 418.424 149.119L418.206 135.409H421.69Z" fill="#88A466"/>
<path d="M418.693 166.625L418.932 182.398C414.39 174.143 414.13 164.405 414.908 165.961C415.437 167.019 416.381 167.247 417.335 167.143C417.853 167.081 418.32 166.894 418.704 166.625H418.693Z" fill="#88A466"/>
<path d="M418.206 135.409L418.423 149.119C416.681 148.808 415.146 147.812 414.182 146.319C411.475 142.15 410.646 138.562 411.226 135.409H418.206Z" fill="#88A466"/>
<path d="M409.878 409.857V413.58C405.834 414.296 401.945 415.468 398.284 417.065C397.35 417.459 396.438 417.894 395.546 418.351C388.919 421.69 383.112 426.409 378.486 432.133C371.279 441.052 366.954 452.418 366.954 464.79V730.506L357.88 732.757V461.855C357.88 441.052 370.096 423.1 387.758 414.783C388.535 414.42 389.313 414.078 390.112 413.756C394.592 411.9 399.393 410.666 404.402 410.147C406.207 409.95 408.032 409.857 409.878 409.857Z" fill="#033C2F"/>
<path d="M407.182 242.786L407.431 253.52L393.316 265.125C390.558 262.034 387.332 260.043 383.703 259.4C374.908 257.834 365.575 264.513 357.88 276.377C352.943 283.979 348.681 293.696 345.663 304.741V239.914L347.603 239.447C347.654 239.53 347.717 239.603 347.769 239.675C349.376 241.801 352.86 241.386 353.711 238.856C353.815 238.535 353.866 238.223 353.877 237.923L357.88 236.958L370.771 233.837L377.491 235.486C377.46 237.269 377.366 239.178 377.19 241.231L381.11 241.832V258.28C382.313 260.24 388.349 256.621 388.349 256.621V239.717L389.458 238.431L407.182 242.786Z" fill="#88A466"/>
<path d="M406.757 367.794V377.169L381.463 394.498L378.549 396.5L374.068 399.569L372.959 400.326L366.954 404.444V413.497V416.598L357.88 422.571V402.089L368.52 394.623L369.733 393.772L375.147 389.977L376.9 388.743L406.757 367.794Z" fill="#033C2F"/>
<path d="M403.915 313.182C403.77 315.308 403.562 317.476 403.293 319.674C392.538 319.56 383.34 323.605 376.858 330.418C371.621 335.925 368.147 343.236 367.048 351.636C366.508 355.691 366.529 360.006 367.172 364.496C367.836 369.111 369.101 373.591 370.885 377.853C371.289 379.368 371.735 380.84 372.202 382.271C369.816 383.495 367.41 384.211 365.025 384.356C362.111 377.138 359.954 368.52 358.813 359.062C358.201 354.032 357.88 348.774 357.88 343.35C357.88 326.311 361.064 310.838 366.259 299.452C369.319 301.007 374.297 303.527 374.805 303.797C390.734 312.176 398.605 313.763 403.915 313.182Z" fill="#033C2F"/>
<path d="M338.176 153.184C337.605 153.278 336.921 153.599 336.216 154.387C333.426 157.001 332.451 163.887 332.327 164.914C332.316 165.007 332.306 165.048 332.306 165.048C329.734 171.758 325.005 179.298 321.074 184.95C321.469 184.006 321.842 183.041 322.195 182.046C322.205 182.025 322.205 182.015 322.205 182.015C323.086 179.484 323.833 176.788 324.393 173.874C324.393 173.874 325.275 167.797 327.483 160.755C331.663 148.756 336.153 143.83 338.528 141.932C338.746 141.756 338.943 141.611 339.13 141.497C339.482 141.269 339.835 141.051 340.198 140.854C340.219 140.854 340.229 140.854 340.229 140.854C340.229 140.854 340.063 132.536 341.951 127.953C341.961 127.942 341.961 127.932 341.971 127.922C342.521 126.905 343.06 126.127 343.475 125.599C343.496 125.578 343.516 125.547 343.537 125.526C343.796 125.236 344.004 125.007 344.149 124.81H344.159C345.072 123.67 344.305 124.064 343.703 124.437C343.434 124.178 343.226 123.877 343.081 123.524C342.998 121.979 342.956 119.283 343.413 116.908C343.911 115.207 344.491 113.89 344.564 113.724C344.574 113.724 344.574 113.703 344.574 113.703L346.005 108.726H346.244L346.565 113.932C346.565 113.932 346.586 113.932 346.597 113.932C346.69 113.973 346.773 114.015 346.856 114.056C346.918 114.087 346.97 114.118 347.022 114.16C347.893 114.782 349.635 116.887 348.598 123.649C348.598 123.649 347.613 125.173 348.411 125.91C348.878 126.335 349.957 126.501 352.217 125.91C358.326 124.323 365.347 120.247 377.791 125.91C377.802 125.899 377.812 125.899 377.822 125.879C380.591 123.918 382.904 121.564 384.875 118.899C387.851 115.415 390.713 111.08 391.138 107.046C391.169 107.046 391.19 107.077 391.221 107.087C395.878 109.576 398.543 113.455 398.377 119.335C398.533 119.563 398.678 119.791 398.813 120.019C400.15 122.259 404.06 129.768 402.847 139.267C401.696 145.355 398.47 151.193 394.312 156.907C394.312 156.907 393.098 156.856 392.331 156.14H392.321C391.906 155.124 392.414 153.309 393.171 151.255C393.181 151.235 393.181 151.214 393.181 151.193C394.291 146.983 394.447 143.229 393.938 139.796C393.907 134.414 393.13 129.218 390.184 129.519C390.101 129.519 390.018 129.539 389.935 129.56C389.852 129.56 389.78 129.591 389.707 129.612C389.251 129.747 388.753 129.985 388.193 130.369C385.352 132.391 382.51 133.988 379.689 135.067C378.009 135.731 376.339 136.197 374.67 136.467C368.8 137.131 363.221 135.44 357.88 132.018C357.849 132.028 357.818 132.049 357.797 132.07C352.363 134.87 350.631 137.929 350.786 141.113C350.672 142.212 350.88 143.343 351.543 144.463C354.499 140.283 356.532 138.24 357.703 138.23H357.714C357.714 138.23 357.828 138.251 357.88 138.261C358.595 140.408 358.792 142.357 358.637 144.183C358.564 144.763 358.471 145.365 358.357 146.008C357.869 148.279 356.843 150.353 355.64 152.355C355.64 152.365 355.629 152.365 355.629 152.375C354.852 153.008 353.97 153.33 352.995 153.392C351.17 153.309 348.608 152.469 345.663 151.255C345.311 155.362 344.616 158.504 343.662 160.931C343.651 160.931 343.651 160.952 343.651 160.962C342.531 163.42 340.934 165.474 338.87 167.143C338.829 167.081 338.798 167.029 338.756 166.967C338.736 166.925 338.704 166.874 338.684 166.832C336.693 163.368 335.77 159.822 336.765 157.156C337.771 155.341 339.306 154.17 339.825 153.807C339.939 153.734 340.001 153.693 340.001 153.693C339.845 153.63 339.69 153.568 339.545 153.527C339.182 153.402 338.663 153.247 338.176 153.184Z" fill="#033C2F"/>
<path d="M402.339 284.86C402.463 285.596 402.608 286.675 402.743 288.21C401.032 286.156 399.207 284.466 397.309 283.149C397.361 283.149 397.413 283.149 397.485 283.159C398.315 283.263 400.223 283.937 402.339 284.86Z" fill="#88A466"/>
<path d="M393.244 182.782V182.616L393.482 182.398L392.227 162.269C399.808 166.127 403.407 184.203 390.184 213.023L391.968 235.496L389.458 238.431L388.349 239.717V256.621C388.349 256.621 382.313 260.24 381.11 258.28V241.832L377.19 241.231C377.366 239.177 377.46 237.269 377.491 235.486C377.854 211.841 365.772 211.063 357.88 219.878V213.438L393.244 182.782Z" fill="#033C2F"/>
<path d="M310.528 201.802C311.316 200.858 312.083 199.904 312.83 198.919H312.84L388.929 130.462C388.929 130.462 388.929 130.462 388.929 130.452C389.189 130.265 389.448 130.079 389.707 129.871V129.944L391.854 162.093L393.223 182.616L357.869 213.417L354.623 216.248L353.825 216.943H353.815L304.471 259.722V208.626C306.535 206.396 308.568 204.146 310.517 201.802H310.528Z" fill="#88A466"/>
<path d="M389.355 401.861L385.082 404.672L383.185 405.916L380.602 407.617L371.673 413.497L366.955 416.598V404.444L372.959 400.326L374.069 399.569L378.549 396.5L381.463 394.498C383.879 397.195 386.524 399.663 389.355 401.861Z" fill="#88A466"/>
<path d="M357.879 213.438V219.878C354.789 223.321 352.342 228.237 351.543 233.837C351.543 233.837 353.991 235.569 353.876 237.923C353.866 238.223 353.814 238.535 353.71 238.856C352.86 241.386 349.376 241.801 347.768 239.675C347.716 239.603 347.654 239.53 347.602 239.447C345.373 236.326 344.771 231.555 353.825 216.953H353.835L354.633 216.248L357.879 213.438Z" fill="#033C2F"/>
<path d="M345.663 239.914V304.741C344.626 308.526 343.745 312.456 343.019 316.511C339.472 336.485 340.758 355.059 345.663 367.711V750.086L324.072 768.068H324.061L320.317 768.317V255.055C323.812 248.335 328.438 244.508 333.892 242.766L337.045 241.998H337.056C337.056 241.998 337.138 241.988 337.18 241.978C337.18 241.978 334.577 251.187 337.18 251.788C340.291 247.215 341.505 243.647 341.453 240.94C341.359 236.73 338.207 234.594 334.307 233.951L353.825 216.953C344.771 231.555 345.373 236.326 347.602 239.447L345.663 239.914Z" fill="#88A466"/>
<path d="M341.453 240.94C341.505 243.647 340.291 247.215 337.18 251.788C334.577 251.187 337.18 241.978 337.18 241.978C337.138 241.988 337.097 241.988 337.056 241.998H337.045C335.967 242.185 334.919 242.434 333.892 242.766C328.438 244.508 323.812 248.335 320.317 255.055V246.147L320.463 246.022L334.307 233.951C338.207 234.594 341.359 236.73 341.453 240.94Z" fill="#033C2F"/>
<path d="M304.482 259.939L320.318 246.147V255.055C315.806 263.714 313.193 277.175 313.151 297.139C313.151 299.244 313.172 301.422 313.224 303.683L311.72 309.169L313.224 314.841L309.905 318.461L306.587 306.701L304.782 295.832C299.317 278.306 300.396 267.572 302.48 261.454L304.482 259.722V259.939Z" fill="#033C2F"/>
<path d="M304.482 208.626V257.119C303.922 258.021 303.32 259.182 302.771 260.634L300.863 260.085C300.863 260.085 297.015 248.542 303.123 244.695L301.537 239.945C301.537 239.945 290.616 228.631 303.766 209.403L304.482 208.626Z" fill="#033C2F"/>
<path opacity="0.09" d="M397.558 279.996C397.558 279.996 348.816 312.373 369.63 385.631C390.444 458.889 370.532 387.726 370.532 387.726H364.455C362.827 401.737 326.779 290.211 393.223 276.968L397.548 279.996H397.558Z" fill="white"/>
<path opacity="0.09" d="M465.133 233.837H456.992L459.232 347.851L465.133 351.336V233.837Z" fill="white"/>
<path opacity="0.09" d="M324.383 253.634V756.516L350.175 746.332V258.861L324.383 253.634Z" fill="white"/>
<path opacity="0.09" d="M427.799 260.634V731.803L437.661 721.94V267.012L427.799 260.634Z" fill="white"/>
<path opacity="0.09" d="M465.133 719.866V418.734L454.835 429.333V719.866H465.133Z" fill="black"/>
<path opacity="0.09" d="M406.756 319.239C406.756 319.239 397.247 311.046 385.248 322.972C385.248 322.972 399.984 316.708 406.756 319.239Z" fill="black"/>
<path opacity="0.09" d="M512.63 233.837C512.63 233.837 548.834 227.625 551.095 271.078H554.714L552.899 252.307C552.899 252.307 541.253 220.407 516.084 224.482L512.63 225.333V233.847V233.837Z" fill="black"/>
<path opacity="0.09" d="M409.867 194.791L411.039 249.735L393.223 246.147V260.634L423.38 264.803L420.788 210.565C420.788 210.565 413.902 205.4 409.867 194.791Z" fill="white"/>
<path opacity="0.09" d="M310.549 210.565V247.598L385.248 183.83L382.313 145.998L310.549 210.565Z" fill="white"/>
<path opacity="0.09" d="M430.723 142.264L432.724 182.398L564.732 221.34V181.797L430.723 137.587V142.264Z" fill="white"/>
<path opacity="0.09" d="M510.836 309.158C510.836 309.158 461.98 311.471 472.547 364.154H474.051C474.051 364.154 467.487 316.293 511.728 311.201L510.836 309.148V309.158Z" fill="white"/>
<path opacity="0.09" d="M542.217 725.155L550.524 740.908L582.144 760.923L562.181 299.452H554.714L550.97 282.309L542.207 269.294L540.796 258.871L519.184 249.745V280.007C519.184 280.007 547.641 311.15 525.469 367.804L533.661 369.515L542.207 725.165L542.217 725.155Z" fill="white"/>
</g>
<defs>
<clipPath id="clip0_38_3916">
<rect width="1451.89" height="1120.03" fill="white" transform="translate(-265)"/>
</clipPath>
</defs>
</svg>
