<svg width="200" height="115" viewBox="0 0 200 115" fill="none" xmlns="http://www.w3.org/2000/svg">
<path d="M195.726 81.9761C194.926 80.4415 194.103 78.7973 193.263 77.0879C192.435 75.4069 191.609 73.6881 190.779 71.9324C189.939 70.163 189.087 68.3651 188.232 66.5378C187.389 64.7463 186.538 62.8958 185.694 61.0444C184.848 59.1782 184.001 57.2973 183.159 55.408C183.032 55.1326 182.904 54.8499 182.783 54.5662L189.663 56.3947L184.192 15.5917L179.196 16.4265C178.558 16.5355 177.92 16.6445 177.288 16.7451L175.309 1.97723L170.027 2.86572C162.838 4.07279 155.571 5.31294 148.417 6.56022L146.732 6.85622L143.507 7.42088L143.509 7.43561L141.407 7.81063C134.953 8.96304 128.238 10.1809 121.462 11.4445L116.616 12.3414L116.96 14.8759C114.619 14.3228 111.877 14.0792 108.652 14.1412C106.294 14.1832 103.654 14.4061 100.788 14.7946C99.0637 15.0282 97.2215 15.3305 95.3042 15.6879C92.195 16.2744 89.5183 16.9524 87.1172 17.7806C84.3566 18.725 81.99 19.8636 79.875 21.2532C78.9242 21.8773 78.0433 22.5744 77.219 23.3014L76.8155 20.3249L71.3841 21.4363C62.1133 23.3382 51.2032 25.5448 40.2808 27.5505L38.4721 27.8782C27.9077 29.8129 17.6285 31.5814 7.91231 33.131L2.91105 33.929L5.53468 53.1188L9.57563 53.539C11.2273 53.7128 12.4956 53.826 13.7821 53.9067L14.8277 61.6207C14.4063 61.4452 13.9607 61.258 13.4837 61.0601L5.09221 57.4931L10.3129 95.6214L28.0708 104.191L32.6227 103.897C37.286 103.595 39.6783 103.421 44.8175 103.032L46.2062 102.926L50.001 102.637C55.5508 102.177 58.6725 101.904 64.5803 101.373L69.6874 100.914L69.4797 99.3812C69.5269 99.3973 69.5731 99.4061 69.6203 99.4222C70.949 99.7598 72.4068 99.9974 74.0786 100.153C75.5528 100.291 77.241 100.348 79.2421 100.331C81.2284 100.317 83.2996 100.209 85.3828 100.024C86.4055 99.9307 87.3736 99.8219 88.2798 99.6991C90.4827 99.4005 92.3876 99.0072 94.0978 98.5053C96.868 97.6872 99.2616 96.5824 101.22 95.199C103.303 93.7387 104.985 91.98 106.238 89.9869C106.46 89.6341 106.666 89.2687 106.864 88.9042C107.499 90.3188 108.134 91.7407 108.761 93.2089L110.195 96.5409L114.631 96.0523C122.341 95.2023 130.316 94.3163 138.152 93.6144L142.117 93.2569L142.115 93.2421C148.155 92.6861 154.182 92.1542 161.33 91.5304L165.505 91.1671L169.439 90.8515C176.933 90.2333 184.426 89.6604 191.715 89.1375L199.153 88.6021L195.713 81.9855L195.726 81.9761Z" fill="#F85B19"/>
<path d="M82.8713 57.0229C81.311 57.214 79.91 57.1534 78.6682 56.8409C77.4263 56.5285 76.4216 55.997 75.654 55.2465C74.9046 54.4726 74.4469 53.494 74.2808 52.3108L78.4214 50.9484C78.666 51.9108 79.1517 52.6009 79.8786 53.0186C80.6029 53.4156 81.4539 53.5541 82.4317 53.4344C83.5758 53.2942 84.4217 52.8739 84.9694 52.1733C85.5145 51.452 85.708 50.4464 85.55 49.1566C85.4787 48.5741 85.3513 48.0513 85.1678 47.5881C84.9844 47.1249 84.7371 46.7435 84.4259 46.4438C84.1329 46.1207 83.7669 45.891 83.3279 45.7548C82.889 45.6185 82.3782 45.5861 81.7957 45.6574C81.4005 45.7058 81.0428 45.8024 80.7227 45.9472C80.4234 46.0895 80.15 46.2708 79.9025 46.4911C79.6524 46.6907 79.4295 46.9397 79.2338 47.2382C79.0381 47.5366 78.8696 47.8846 78.7282 48.2819L74.2348 48.8324L73.5235 36.8205L87.5967 35.0966L88.0554 38.8411L77.7268 40.1064L77.9773 46.0302L78.3518 45.9843C78.6587 44.8698 79.2483 43.9952 80.1208 43.3605C81.014 42.7232 82.0327 42.3344 83.1768 42.1943C84.529 42.0286 85.6881 42.1823 86.654 42.6552C87.6406 43.1255 88.4278 43.8631 89.0154 44.868C89.6005 45.8521 89.981 47.0619 90.1568 48.4973C90.3709 50.2447 90.2035 51.7222 89.6546 52.9296C89.1031 54.1163 88.2352 55.0461 87.0507 55.7191C85.887 56.3895 84.4939 56.8241 82.8713 57.0229ZM101.263 54.7699C99.9525 54.9304 98.7167 54.839 97.5555 54.4956C96.4151 54.1496 95.4053 53.5766 94.526 52.7763C93.6442 51.9553 92.915 50.9149 92.3383 49.6553C91.7592 48.3749 91.3664 46.8922 91.16 45.2071C90.8695 42.8356 91.011 40.8017 91.5845 39.1056C92.1579 37.4095 93.0711 36.073 94.3239 35.096C95.5767 34.119 97.056 33.5261 98.7619 33.3171C100.53 33.1005 102.121 33.328 103.533 33.9996C104.966 34.6686 106.135 35.7607 107.038 37.2759C107.96 38.7677 108.561 40.6578 108.841 42.9461C109.053 44.6728 109.023 46.239 108.752 47.6447C108.499 49.027 108.033 50.2243 107.355 51.2365C106.674 52.2278 105.822 53.029 104.799 53.64C103.773 54.2302 102.595 54.6068 101.263 54.7699ZM100.921 51.2011C101.462 51.1349 101.967 50.9463 102.435 50.6355C102.925 50.3222 103.344 49.8696 103.694 49.2778C104.042 48.6651 104.286 47.9066 104.429 47.0023C104.569 46.0772 104.559 44.9594 104.398 43.6488C104.207 42.0886 103.858 40.7905 103.351 39.7546C102.842 38.6979 102.23 37.9282 101.516 37.4456C100.8 36.9421 100.005 36.7438 99.1314 36.8509C98.4449 36.935 97.7969 37.2466 97.1872 37.7858C96.575 38.3042 96.1038 39.1116 95.7736 40.2078C95.4641 41.3014 95.4203 42.7532 95.642 44.5631C95.7974 45.832 96.0456 46.9102 96.3866 47.7975C96.7458 48.6614 97.1587 49.3604 97.6253 49.8945C98.1102 50.4052 98.6305 50.7743 99.1862 51.0019C99.7603 51.2061 100.338 51.2725 100.921 51.2011ZM115.627 48.8612L114.048 35.9737L117.668 35.5303L119.247 48.4178L115.627 48.8612ZM110.428 44.6838L110.007 41.2513L122.864 39.6765L123.284 43.109L110.428 44.6838ZM59.3856 81.9561C58.3633 82.0814 57.4306 82.0918 56.5877 81.9876C55.7625 81.8971 55.0348 81.6909 54.4047 81.369C53.7884 81.0294 53.2785 80.581 52.875 80.0238C52.4853 79.449 52.2187 78.7712 52.0752 77.9906L54.9293 76.6592C55.0474 77.3631 55.2927 77.9317 55.6651 78.365C56.0532 78.7964 56.5595 79.0856 57.1841 79.2325C57.8088 79.3795 58.4907 79.4077 59.2299 79.3172C59.9377 79.2305 60.5248 79.0708 60.9911 78.838C61.4575 78.6053 61.7992 78.332 62.0161 78.018C62.2312 77.6884 62.3175 77.3505 62.2751 77.0045C62.225 76.5956 62.0273 76.2846 61.6819 76.0715C61.3365 75.8583 60.878 75.699 60.3063 75.5934C59.7504 75.4859 59.1167 75.3959 58.4055 75.3234C57.6136 75.2448 56.8267 75.1417 56.0448 75.0139C55.2786 74.8843 54.5676 74.684 53.9118 74.4132C53.2718 74.1404 52.7372 73.7509 52.308 73.2447C51.8945 72.7366 51.6368 72.0658 51.5347 71.2322C51.4171 70.2728 51.5519 69.4182 51.939 68.6683C52.3398 67.9009 52.9802 67.2637 53.8599 66.7568C54.7397 66.2499 55.8323 65.9165 57.1377 65.7566C58.4589 65.5948 59.6075 65.6536 60.5836 65.9332C61.5736 66.195 62.3714 66.6481 62.9771 67.2922C63.5809 67.9207 63.9652 68.7117 64.1299 69.6654L61.167 70.8904C61.1072 70.4028 60.9766 69.9878 60.775 69.6453C60.5734 69.3028 60.3166 69.031 60.0046 68.8297C59.6907 68.6128 59.3137 68.4674 58.8736 68.3936C58.4492 68.3178 57.9697 68.3127 57.4349 68.3782C56.8216 68.4534 56.2964 68.5975 55.8596 68.8107C55.4385 69.0219 55.1263 69.2757 54.9232 69.5719C54.7357 69.8663 54.6642 70.1943 54.7085 70.5561C54.7605 70.9807 54.9769 71.3134 55.3576 71.5541C55.752 71.7772 56.2509 71.9396 56.854 72.0413C57.4728 72.1411 58.1458 72.2263 58.8728 72.2969C59.5665 72.3556 60.2728 72.4526 60.9918 72.588C61.7246 72.7058 62.411 72.9011 63.0511 73.1739C63.7049 73.429 64.2484 73.8254 64.6814 74.3631C65.1282 74.883 65.4046 75.5755 65.5106 76.4406C65.6262 77.3842 65.4757 78.2408 65.0591 79.0102C64.6425 79.7796 63.955 80.4226 62.9966 80.9391C62.0519 81.4379 60.8483 81.7769 59.3856 81.9561ZM67.86 84.6057L66.6289 74.5555L65.8572 68.2565L68.6647 67.9126L69.1102 71.3541L69.5378 71.3257C69.5772 70.4747 69.7353 69.745 70.0119 69.1364C70.3043 68.5259 70.7162 68.0444 71.2478 67.6919C71.7793 67.3394 72.4147 67.1179 73.1539 67.0274C74.2548 66.8925 75.2322 67.0522 76.0861 67.5063C76.938 67.9447 77.6291 68.6343 78.1594 69.5751C78.7035 70.4982 79.0574 71.6282 79.2212 72.9651C79.3734 74.2076 79.3205 75.3395 79.0625 76.3609C78.8025 77.3666 78.3298 78.1987 77.6442 78.8574C76.9743 79.5142 76.0811 79.9109 74.9644 80.0477C74.178 80.1441 73.4912 80.0765 72.9042 79.8451C72.3328 79.6118 71.8335 79.2499 71.4062 78.7595C70.9928 78.2514 70.6219 77.6343 70.2935 76.9083L69.8452 76.9632C69.9916 77.3763 70.1311 77.7982 70.2637 78.229C70.3963 78.6597 70.5122 79.0845 70.6114 79.5034C70.7086 79.9066 70.7814 80.3047 70.8295 80.6979L71.2573 84.1895L67.86 84.6057ZM73.4524 77.4792C74.0186 77.4098 74.4791 77.1938 74.8337 76.831C75.1884 76.4683 75.4333 75.9913 75.5684 75.4001C75.7192 74.8069 75.7503 74.1485 75.6617 73.4251C75.5654 72.6387 75.3734 71.9837 75.0858 71.4602C74.7962 70.921 74.4277 70.5191 73.9803 70.2547C73.5328 69.9902 73.026 69.8926 72.4598 69.962C71.9565 70.0236 71.5374 70.1867 71.2027 70.4512C70.8679 70.7157 70.5968 71.0443 70.3895 71.4368C70.1979 71.8275 70.073 72.2419 70.015 72.68C69.955 73.1024 69.9481 73.5024 69.9943 73.8798L70.0492 74.3281C70.0858 74.6269 70.1637 74.9367 70.2828 75.2573C70.4 75.5622 70.5643 75.8614 70.7759 76.1548C70.9855 76.4324 71.2237 76.6826 71.4904 76.9053C71.7552 77.1124 72.0545 77.2752 72.3884 77.394C72.7203 77.497 73.075 77.5254 73.4524 77.4792ZM87.0824 78.5633C86.06 78.6885 85.1305 78.6587 84.2937 78.4739C83.4726 78.2871 82.7541 77.9601 82.1381 77.4927C81.5221 77.0254 81.0165 76.4169 80.6213 75.6671C80.2419 74.9154 79.9915 74.0441 79.8701 73.0532C79.7507 72.0781 79.7745 71.1652 79.9417 70.3146C80.1227 69.4463 80.444 68.6806 80.9055 68.0174C81.3651 67.3385 81.96 66.7868 82.6903 66.3621C83.4205 65.9374 84.2731 65.6653 85.2483 65.5458C86.192 65.4302 87.0527 65.4844 87.8304 65.7085C88.6062 65.9167 89.2755 66.2977 89.8382 66.8514C90.4166 67.4031 90.8709 68.1137 91.2009 68.9833C91.5447 69.8351 91.7555 70.839 91.8332 71.9948L82.1249 73.2799L81.8966 71.4161L89.6496 70.3945L88.5621 71.4856C88.57 70.6385 88.4312 69.9611 88.1455 69.4533C87.8598 68.9455 87.4892 68.5918 87.0337 68.3922C86.594 68.1907 86.1224 68.1207 85.6191 68.1824C85.0215 68.2556 84.5139 68.4774 84.0963 68.8478C83.6787 69.2183 83.3817 69.7256 83.2051 70.3698C83.0267 70.9983 82.9895 71.7372 83.0936 72.5865C83.2573 73.9234 83.6687 74.8707 84.3277 75.4286C85.0024 75.9845 85.8195 76.2037 86.7789 76.0861C87.2193 76.0322 87.5822 75.9319 87.8675 75.7852C88.1666 75.6208 88.399 75.4327 88.5646 75.2208C88.746 75.0071 88.8773 74.7755 88.9585 74.5261C89.0554 74.2747 89.1287 74.0263 89.1784 73.7807L92.2055 74.0565C92.1352 74.6557 91.9874 75.2086 91.7621 75.7152C91.5506 76.204 91.238 76.6494 90.8243 77.0513C90.4086 77.4375 89.889 77.7565 89.2653 78.0085C88.6593 78.2743 87.9317 78.4593 87.0824 78.5633ZM96.7794 77.3754C96.0874 77.4602 95.4576 77.4016 94.8901 77.1998C94.3207 76.9822 93.8547 76.6322 93.4923 76.1498C93.1299 75.6673 92.9015 75.0408 92.8071 74.2701C92.7243 73.5938 92.7807 73.0122 92.9765 72.5253C93.188 72.0364 93.5281 71.6196 93.9967 71.2748C94.4653 70.9301 95.0576 70.6181 95.7737 70.3388C96.4898 70.0595 97.311 69.7913 98.2374 69.5341C98.731 69.3938 99.1313 69.2729 99.4382 69.1715C99.7588 69.0524 99.9881 68.9046 100.126 68.728C100.262 68.5358 100.311 68.2823 100.272 67.9678C100.219 67.5274 100.015 67.1692 99.6619 66.8932C99.3088 66.6171 98.7941 66.5205 98.1178 66.6034C97.6617 66.6593 97.2467 66.7899 96.8728 66.9954C96.5146 67.1989 96.2132 67.4753 95.9686 67.8245C95.7398 68.1718 95.5923 68.597 95.5262 69.1L92.4173 68.5469C92.5271 67.8789 92.726 67.2878 93.0142 66.7736C93.3182 66.2575 93.7025 65.8113 94.1673 65.4351C94.6301 65.0431 95.1743 64.729 95.7999 64.4927C96.4255 64.2565 97.1158 64.0921 97.8707 63.9996C99.0818 63.8513 100.089 63.9274 100.892 64.2282C101.709 64.5112 102.356 65.0386 102.834 65.8102C103.31 66.5661 103.625 67.581 103.781 68.855L104.042 70.9782C104.109 71.5287 104.185 72.0861 104.27 72.6504C104.371 73.2127 104.473 73.7829 104.576 74.361C104.692 74.9215 104.809 75.4819 104.925 76.0423L101.929 76.4093C101.818 76.0238 101.7 75.5833 101.576 75.0877C101.465 74.5745 101.362 74.0603 101.267 73.5451L100.842 73.5971C100.695 74.2218 100.447 74.8029 100.098 75.3406C99.7489 75.8782 99.2937 76.3331 98.7327 76.7051C98.1854 77.0595 97.5343 77.2829 96.7794 77.3754ZM97.9179 74.7456C98.2168 74.709 98.5089 74.6173 98.7942 74.4706C99.0953 74.322 99.3758 74.136 99.6358 73.9125C99.9096 73.6715 100.146 73.3871 100.345 73.0593C100.56 72.7297 100.724 72.3665 100.835 71.9697L100.545 69.9938L101.102 70.0453C100.844 70.2844 100.534 70.49 100.172 70.6621C99.8075 70.8184 99.4249 70.9531 99.0237 71.0661C98.6382 71.1772 98.2537 71.2961 97.8701 71.4229C97.4865 71.5497 97.1452 71.6953 96.846 71.8597C96.5626 72.0221 96.34 72.225 96.1783 72.4683C96.0303 72.694 95.9795 72.9955 96.0257 73.373C96.0854 73.8606 96.2899 74.2266 96.6391 74.4712C96.9884 74.7158 97.4146 74.8072 97.9179 74.7456ZM106.458 75.8546L104.392 58.9863L107.742 58.5759L108.889 67.942C109.336 67.5519 109.757 67.1412 110.151 66.7098C110.559 66.2607 110.918 65.8017 111.227 65.3327C111.553 64.8618 111.83 64.3889 112.059 63.9138C112.304 63.4368 112.503 62.9735 112.655 62.5238L116.548 62.0469C116.385 62.6735 116.145 63.3175 115.827 63.9791C115.522 64.623 115.135 65.2372 114.664 65.8217C114.206 66.3886 113.654 66.8953 113.006 67.3418C112.358 67.7884 111.625 68.1256 110.807 68.3535L110.856 68.7546C111.887 68.4368 112.762 68.3456 113.481 68.481C114.2 68.6164 114.809 68.9009 115.309 69.3345C115.823 69.7505 116.253 70.2567 116.597 70.853C116.939 71.4337 117.259 72.0251 117.557 72.6272L118.325 74.4009L114.621 74.8546L114.172 73.7362C113.858 72.9925 113.531 72.3461 113.193 71.7969C112.854 71.2477 112.445 70.8428 111.966 70.5822C111.501 70.3039 110.891 70.211 110.136 70.3035L109.192 70.4191L109.808 75.4442L106.458 75.8546ZM124.737 73.9506C123.715 74.0758 122.785 74.046 121.949 73.8612C121.128 73.6744 120.409 73.3474 119.793 72.8801C119.177 72.4127 118.672 71.8042 118.276 71.0544C117.897 70.3027 117.646 69.4314 117.525 68.4405C117.406 67.4654 117.43 66.5525 117.597 65.7019C117.778 64.8336 118.099 64.0679 118.561 63.4048C119.02 62.7259 119.615 62.1741 120.345 61.7494C121.075 61.3247 121.928 61.0526 122.903 60.9332C123.847 60.8176 124.708 60.8718 125.485 61.0958C126.261 61.304 126.93 61.685 127.493 62.2387C128.072 62.7904 128.526 63.501 128.856 64.3706C129.2 65.2224 129.41 66.2263 129.488 67.3821L119.78 68.6672L119.552 66.8034L127.305 65.7818L126.217 66.8729C126.225 66.0258 126.086 65.3484 125.8 64.8406C125.515 64.3329 125.144 63.9792 124.689 63.7795C124.249 63.578 123.777 63.508 123.274 63.5697C122.676 63.6429 122.169 63.8647 121.751 64.2351C121.334 64.6056 121.037 65.1129 120.86 65.7571C120.682 66.3856 120.645 67.1245 120.749 67.9738C120.912 69.3107 121.324 70.258 121.983 70.8159C122.657 71.3718 123.474 71.591 124.434 71.4735C124.874 71.4195 125.237 71.3192 125.522 71.1725C125.822 71.0081 126.054 70.82 126.22 70.6082C126.401 70.3944 126.532 70.1628 126.613 69.9134C126.71 69.662 126.784 69.4136 126.833 69.168L129.86 69.4438C129.79 70.0431 129.642 70.596 129.417 71.1025C129.206 71.5913 128.893 72.0367 128.479 72.4386C128.064 72.8248 127.544 73.1438 126.92 73.3958C126.314 73.6616 125.587 73.8466 124.737 73.9506ZM131.469 72.7907L130.735 66.7984L129.952 60.405L132.759 60.061L133.3 64.2811L133.748 64.2262C133.745 63.157 133.852 62.2738 134.07 61.5767C134.304 60.8775 134.677 60.337 135.189 59.955C135.701 59.573 136.366 59.3319 137.183 59.2317C137.325 59.2144 137.475 59.204 137.635 59.2004C137.808 59.1792 138.007 59.1787 138.233 59.1989L138.534 62.8259C138.284 62.7447 138.015 62.6978 137.726 62.6853C137.437 62.6728 137.183 62.68 136.963 62.707C136.349 62.7821 135.84 62.9882 135.434 63.3253C135.028 63.6623 134.717 64.1156 134.499 64.685C134.295 65.2368 134.192 65.8959 134.191 66.6624L134.89 72.3717L131.469 72.7907ZM145.491 71.4084C144.657 71.5105 143.892 71.5243 143.197 71.4499C142.501 71.3755 141.891 71.2187 141.367 70.9796C140.843 70.7405 140.406 70.4348 140.058 70.0624C139.707 69.6744 139.452 69.2266 139.294 68.7192L141.759 67.3396C141.865 67.6779 142.077 67.9792 142.397 68.2433C142.717 68.5075 143.124 68.705 143.619 68.836C144.128 68.9492 144.72 68.9645 145.397 68.8816C146.12 68.793 146.666 68.6224 147.034 68.3697C147.4 68.1014 147.559 67.7706 147.511 67.3774C147.474 67.0786 147.335 66.8561 147.094 66.7101C146.853 66.5641 146.512 66.4541 146.072 66.3803C145.632 66.3065 145.106 66.2512 144.495 66.2143C143.896 66.144 143.28 66.0678 142.647 65.9857C142.03 65.9016 141.445 65.7498 140.891 65.5303C140.353 65.3089 139.891 64.9903 139.505 64.5747C139.133 64.1413 138.902 63.563 138.814 62.8395C138.721 62.0845 138.845 61.3989 139.184 60.7826C139.524 60.1663 140.067 59.6527 140.815 59.2418C141.561 58.8152 142.5 58.5325 143.633 58.3938C144.655 58.2686 145.569 58.3003 146.374 58.489C147.178 58.662 147.855 58.9781 148.406 59.4374C148.971 59.879 149.384 60.4431 149.643 61.1297L146.996 62.3879C146.887 62.0182 146.689 61.7071 146.402 61.4549C146.132 61.2007 145.783 61.0278 145.357 60.9364C144.947 60.843 144.474 60.829 143.939 60.8945C143.263 60.9774 142.749 61.152 142.399 61.4185C142.064 61.683 141.919 61.9961 141.963 62.3578C142 62.6567 142.148 62.886 142.407 63.0458C142.682 63.2037 143.047 63.3186 143.503 63.3905C143.956 63.4467 144.49 63.501 145.103 63.5537C145.748 63.6024 146.379 63.6767 146.998 63.7765C147.615 63.8606 148.176 64.0074 148.68 64.217C149.201 64.4246 149.629 64.7313 149.966 65.137C150.304 65.5427 150.514 66.0916 150.599 66.7836C150.699 67.6014 150.566 68.3362 150.199 68.9878C149.83 69.6237 149.248 70.1499 148.453 70.5666C147.657 70.9833 146.67 71.2639 145.491 71.4084Z" fill="white"/>
</svg>
