<svg width="193" height="100" viewBox="0 0 193 100" fill="none" xmlns="http://www.w3.org/2000/svg">
<path d="M189.978 82.0262C189.299 80.434 188.607 78.7308 187.903 76.9612C187.208 75.2209 186.518 73.443 185.827 71.628C185.127 69.7986 184.418 67.94 183.707 66.0516C183.006 64.1999 182.302 62.2889 181.605 60.3774C180.907 58.4511 180.208 56.5099 179.516 54.5609C179.411 54.2765 179.305 53.9846 179.206 53.6924L185.923 56.0506L183.644 14.9457L178.598 15.3892C177.953 15.4483 177.309 15.5073 176.671 15.5585L175.847 0.68136L170.512 1.15624C163.251 1.80032 155.909 2.47132 148.68 3.15825L146.977 3.32222L143.718 3.63428L143.719 3.64912L141.593 3.85943C135.069 4.50623 128.28 5.19793 121.426 5.93055L116.526 6.44774L116.671 9.00128C114.38 8.26777 111.666 7.81156 108.446 7.62247C106.092 7.48088 103.442 7.49766 100.554 7.66198C98.8171 7.76083 96.957 7.91882 95.0177 8.126C91.8723 8.46883 89.151 8.93647 86.6926 9.57533C83.8669 10.3021 81.4189 11.2531 79.2022 12.474C78.2057 13.0222 77.2733 13.6487 76.3949 14.3094L76.2243 11.3105L70.7228 11.9959C61.3321 13.1708 50.2834 14.5219 39.2381 15.6718L37.4094 15.8577C26.7265 16.9646 16.3409 17.928 6.53356 18.717L1.48537 19.1234L2.60806 38.4593L6.60407 39.1926C8.23721 39.4943 9.4929 39.7058 10.7691 39.8864L11.2114 47.6584C10.8049 47.4506 10.3753 47.2294 9.91516 46.9949L1.8266 42.7858L4.06509 81.2047L21.1024 91.1303L25.6633 91.1909C30.336 91.2527 32.7346 91.2652 37.8886 91.2772L39.2813 91.2798L43.087 91.2867C48.6557 91.2602 51.7892 91.2308 57.7204 91.1614L62.8478 91.1005L62.7599 89.5564C62.8057 89.5762 62.8511 89.5885 62.8969 89.6082C64.1954 90.0482 65.6303 90.3985 67.2848 90.6841C68.7439 90.9362 70.4226 91.1237 72.4189 91.2633C74.4003 91.4037 76.4735 91.457 78.5648 91.4348C79.5917 91.4211 80.5654 91.388 81.4784 91.336C83.6978 91.2097 85.6276 90.9659 87.3716 90.5985C90.197 89.9984 92.6694 89.0832 94.7294 87.8563C96.9196 86.5625 98.7337 84.94 100.138 83.0504C100.387 82.716 100.62 82.3677 100.846 82.0197C101.369 83.4794 101.892 84.9465 102.402 86.459L103.573 89.8925L108.033 89.7504C115.786 89.5028 123.806 89.24 131.672 89.1498L135.654 89.102L135.653 89.0871C141.717 89.0026 147.768 88.9413 154.943 88.8756L159.134 88.8382L163.08 88.8295C170.599 88.7963 178.114 88.808 185.422 88.8539L192.879 88.8987L189.964 82.0345L189.978 82.0262Z" fill="#00CE86"/>
<path d="M60.1731 50.6932C58.8116 50.7397 57.613 50.6443 56.5773 50.4071C55.5626 50.1691 54.7112 49.7998 54.023 49.299C53.3349 48.7982 52.7894 48.1772 52.3866 47.436C51.9838 46.6949 51.7248 45.8649 51.6095 44.9461L55.6501 43.5184C55.7141 44.1663 55.8696 44.7272 56.1165 45.2011C56.3633 45.675 56.6806 46.0626 57.0684 46.3639C57.4562 46.6653 57.9144 46.8803 58.443 47.009C58.9717 47.1378 59.5397 47.1918 60.1472 47.171C60.9432 47.1438 61.6409 47.0047 62.2405 46.7535C62.861 46.5017 63.3306 46.1291 63.6493 45.6359C63.9889 45.142 64.1462 44.5285 64.1212 43.7953C64.0897 42.8737 63.7498 42.1304 63.1014 41.5653C62.4529 41.0003 61.5072 40.6341 60.2643 40.4669C59.0206 40.2787 57.4695 40.3002 55.611 40.5314L55.523 37.955L62.3457 33.2553L62.3361 32.9725L52.2537 33.4112L52.1281 29.7351L66.7696 29.2351L66.9144 33.4767L60.5294 38.0986L60.5391 38.3814C62.5254 38.2087 64.0927 38.3544 65.2409 38.8185C66.4102 39.2819 67.2514 39.9661 67.7646 40.8713C68.2981 41.7549 68.5831 42.7307 68.6195 43.799C68.6653 45.1396 68.3908 46.3128 67.7961 47.3187C67.2013 48.3247 66.2743 49.1218 65.0152 49.71C63.7561 50.2982 62.1421 50.626 60.1731 50.6932ZM78.9452 50.0522C77.6256 50.0972 76.4025 49.8978 75.2759 49.454C74.1702 49.0094 73.2145 48.35 72.4088 47.4758C71.6023 46.5806 70.967 45.4804 70.503 44.1751C70.0383 42.8488 69.777 41.3374 69.7191 39.6407C69.6375 37.2528 69.9567 35.2392 70.6767 33.5999C71.3966 31.9606 72.4234 30.7092 73.757 29.8458C75.0906 28.9824 76.6162 28.5214 78.3338 28.4627C80.1142 28.4019 81.6785 28.7679 83.0268 29.5607C84.396 30.3528 85.4642 31.5431 86.2314 33.1316C87.0189 34.6985 87.452 36.634 87.5307 38.9381C87.59 40.6766 87.423 42.2342 87.0297 43.6107C86.6565 44.9656 86.0877 46.1174 85.3232 47.0662C84.558 47.9941 83.639 48.7175 82.5663 49.2365C81.4928 49.7345 80.2858 50.0064 78.9452 50.0522ZM78.9172 46.4671C79.4618 46.4485 79.9811 46.305 80.4753 46.0364C80.9903 45.7672 81.448 45.3531 81.8484 44.7942C82.248 44.2144 82.5584 43.4803 82.7798 42.5919C83.0004 41.6827 83.0881 40.5682 83.0431 39.2486C82.9894 37.6776 82.7555 36.354 82.3412 35.2777C81.9263 34.1804 81.3845 33.3601 80.7159 32.8167C80.0465 32.2524 79.2719 31.9852 78.3922 32.0153C77.701 32.0389 77.0281 32.2925 76.3735 32.7762C75.7183 33.239 75.1781 34.0019 74.7531 35.0649C74.349 36.1273 74.178 37.5696 74.2403 39.3919C74.2839 40.6697 74.4366 41.7654 74.6985 42.6792C74.9806 43.5713 75.3307 44.3038 75.7487 44.8767C76.1869 45.4279 76.6729 45.8412 77.2066 46.1166C77.7605 46.3703 78.3307 46.4872 78.9172 46.4671ZM98.3001 49.3912C96.9805 49.4363 95.7574 49.2369 94.6308 48.793C93.5251 48.3484 92.5694 47.689 91.7636 46.8148C90.9571 45.9197 90.3219 44.8194 89.8579 43.5141C89.3932 42.1878 89.1319 40.6764 89.0739 38.9797C88.9924 36.5919 89.3116 34.5783 90.0315 32.9389C90.7514 31.2996 91.7782 30.0482 93.1118 29.1848C94.4454 28.3214 95.971 27.8604 97.6886 27.8018C99.4691 27.741 101.033 28.1069 102.382 28.8997C103.751 29.6918 104.819 30.8821 105.586 32.4707C106.374 34.0375 106.807 35.973 106.886 38.2771C106.945 40.0157 106.778 41.5732 106.385 42.9497C106.011 44.3046 105.443 45.4564 104.678 46.4053C103.913 47.3331 102.994 48.0565 101.921 48.5755C100.848 49.0735 99.6407 49.3454 98.3001 49.3912ZM98.272 45.8062C98.8166 45.7876 99.336 45.644 99.8301 45.3755C100.345 45.1062 100.803 44.6922 101.203 44.1333C101.603 43.5534 101.913 42.8193 102.135 41.931C102.355 41.0217 102.443 39.9073 102.398 38.5876C102.344 37.0167 102.11 35.693 101.696 34.6167C101.281 33.5194 100.739 32.6991 100.071 32.1557C99.4013 31.5914 98.6268 31.3243 97.747 31.3543C97.0558 31.3779 96.3829 31.6316 95.7284 32.1153C95.0731 32.578 94.533 33.3409 94.1079 34.404C93.7038 35.4663 93.5329 36.9087 93.5951 38.731C93.6387 40.0087 93.7915 41.1044 94.0534 42.0182C94.3355 42.9103 94.6856 43.6428 95.1036 44.2157C95.5418 44.767 96.0278 45.1803 96.5614 45.4556C97.1153 45.7094 97.6855 45.8262 98.272 45.8062ZM117.655 48.7302C116.335 48.7753 115.112 48.5759 113.986 48.132C112.88 47.6875 111.924 47.0281 111.118 46.1539C110.312 45.2587 109.677 44.1585 109.213 42.8531C108.748 41.5269 108.487 40.0154 108.429 38.3188C108.347 35.9309 108.666 33.9173 109.386 32.278C110.106 30.6386 111.133 29.3873 112.467 28.5239C113.8 27.6605 115.326 27.1994 117.044 27.1408C118.824 27.08 120.388 27.446 121.736 28.2388C123.106 29.0308 124.174 30.2211 124.941 31.8097C125.729 33.3766 126.162 35.3121 126.24 37.6162C126.3 39.3547 126.133 40.9122 125.739 42.2888C125.366 43.6436 124.797 44.7955 124.033 45.7443C123.268 46.6722 122.349 47.3956 121.276 47.9145C120.203 48.4126 118.996 48.6845 117.655 48.7302ZM117.627 45.1452C118.171 45.1266 118.691 44.983 119.185 44.7145C119.7 44.4453 120.158 44.0312 120.558 43.4723C120.958 42.8924 121.268 42.1583 121.489 41.27C121.71 40.3607 121.798 39.2463 121.753 37.9267C121.699 36.3557 121.465 35.0321 121.051 33.9557C120.636 32.8585 120.094 32.0381 119.426 31.4948C118.756 30.9304 117.982 30.6633 117.102 30.6933C116.411 30.7169 115.738 30.9706 115.083 31.4543C114.428 31.9171 113.888 32.68 113.463 33.743C113.059 34.8054 112.888 36.2477 112.95 38.07C112.994 39.3477 113.146 40.4435 113.408 41.3573C113.69 42.2494 114.04 42.9819 114.458 43.5548C114.897 44.106 115.383 44.5193 115.916 44.7947C116.47 45.0484 117.04 45.1652 117.627 45.1452ZM132.482 44.1032L132.038 31.1269L135.683 31.0025L136.126 43.9787L132.482 44.1032ZM127.668 39.4862L127.55 36.0301L140.495 35.588L140.613 39.0441L127.668 39.4862ZM36.2853 68.6579L36.1936 65.9737L39.7805 65.8512C40.9207 65.8123 41.7681 65.5534 42.3225 65.0747C42.8764 64.5801 43.1349 63.7944 43.0981 62.7176C43.0657 61.7674 42.7719 61.056 42.2167 60.5835C41.6768 60.0946 40.8525 59.869 39.744 59.9069L35.9908 60.0351L35.9008 57.3983L39.749 57.2669C40.7625 57.2323 41.6771 57.32 42.4929 57.5299C43.3245 57.7394 44.0335 58.0719 44.6198 58.5275C45.2214 58.9667 45.6849 59.5375 46.0101 60.2399C46.3348 60.9264 46.5133 61.7448 46.5458 62.695C46.5874 63.9144 46.3455 64.9532 45.8198 65.8114C45.2937 66.6538 44.4916 67.3075 43.4135 67.7724C42.3512 68.2368 41.0124 68.4965 39.3971 68.5517L36.2853 68.6579ZM34.037 73.1582L33.5016 57.4803L36.9222 57.3634L37.4576 73.0414L34.037 73.1582ZM50.7642 72.9199C50.0674 72.9437 49.4452 72.8302 48.8976 72.5794C48.3494 72.3127 47.916 71.9232 47.5972 71.4109C47.2785 70.8986 47.1059 70.2544 47.0794 69.4784C47.0561 68.7975 47.1633 68.223 47.401 67.7551C47.6546 67.2867 48.0298 66.9013 48.5269 66.5989C49.0239 66.2966 49.6413 66.0377 50.3791 65.8222C51.117 65.6068 51.9585 65.4115 52.9038 65.2366C53.4079 65.1401 53.8172 65.0547 54.1318 64.9806C54.4616 64.89 54.703 64.7629 54.856 64.5991C55.0084 64.4195 55.0792 64.1713 55.0684 63.8546C55.0532 63.4112 54.8819 63.0365 54.5544 62.7306C54.2268 62.4247 53.7226 62.2834 53.0416 62.3066C52.5823 62.3223 52.1575 62.4161 51.767 62.588C51.3923 62.7593 51.0679 63.0082 50.7936 63.3347C50.5352 63.6606 50.3511 64.0712 50.2411 64.5665L47.1927 63.7431C47.3605 63.0873 47.6106 62.5159 47.9427 62.0289C48.2907 61.5414 48.7127 61.1306 49.2087 60.7966C49.7041 60.4467 50.2737 60.1815 50.9176 60.001C51.5615 59.8204 52.2635 59.7172 53.0236 59.6912C54.243 59.6496 55.2396 59.8137 56.0132 60.1837C56.8022 60.5373 57.4008 61.1193 57.8089 61.9298C58.2166 62.7245 58.4423 63.7632 58.4861 65.0459L58.5591 67.1838C58.5781 67.7381 58.6052 68.3 58.6405 68.8696C58.6916 69.4386 58.743 70.0156 58.7947 70.6004C58.8617 71.1689 58.9287 71.7374 58.9957 72.3059L55.9788 72.4089C55.902 72.0152 55.8232 71.566 55.7426 71.0614C55.6772 70.5404 55.6198 70.0192 55.5703 69.4976L55.1427 69.5122C54.9415 70.1216 54.6435 70.6788 54.2485 71.1837C53.8535 71.6887 53.3603 72.102 52.7687 72.4234C52.1925 72.7285 51.5244 72.894 50.7642 72.9199ZM52.1289 70.4C52.4298 70.3897 52.7288 70.324 53.0259 70.2029C53.3388 70.0812 53.6346 69.9205 53.9131 69.7207C54.207 69.5046 54.4675 69.242 54.6948 68.933C54.9379 68.6234 55.1322 68.2759 55.2776 67.8904L55.1619 65.8967L55.7123 65.9968C55.4343 66.2124 55.1074 66.3901 54.7317 66.5297C54.3554 66.6536 53.9624 66.7542 53.5529 66.8316C53.1591 66.9085 52.7656 66.9932 52.3724 67.0859C51.9792 67.1786 51.6264 67.2937 51.314 67.4312C51.0175 67.5682 50.778 67.7508 50.5955 67.979C50.4283 68.1908 50.3512 68.4868 50.3642 68.8668C50.381 69.3578 50.5526 69.7403 50.879 70.0146C51.2055 70.2888 51.6221 70.4173 52.1289 70.4ZM60.5388 72.2532L60.3327 66.2195L60.1129 59.7821L62.9397 59.6855L63.1086 63.9368L63.56 63.9214C63.6504 62.856 63.8347 61.9856 64.1129 61.3102C64.4069 60.6343 64.8257 60.1285 65.3691 59.7928C65.9126 59.4572 66.596 59.2753 67.4195 59.2472C67.5621 59.2423 67.7128 59.2451 67.8717 59.2555C68.0459 59.2496 68.2446 59.2666 68.468 59.3065L68.4496 62.9458C68.2082 62.8431 67.9442 62.7728 67.6576 62.735C67.3709 62.6972 67.1167 62.6821 66.895 62.6897C66.2774 62.7108 65.7517 62.8715 65.318 63.1716C64.8843 63.4718 64.5342 63.896 64.2675 64.4442C64.0161 64.976 63.8559 65.6236 63.7869 66.387L63.9832 72.1355L60.5388 72.2532ZM74.7335 72.0538C73.3399 72.1014 72.2981 71.7723 71.6081 71.0666C70.9334 70.3444 70.5684 69.1757 70.5133 67.5604L70.3275 62.1206L68.5221 62.1823L68.478 59.4964L69.737 59.4534C70.2279 59.4367 70.5897 59.3529 70.8224 59.2023C71.0551 59.0517 71.1887 58.7855 71.2232 58.4038L71.4712 56.6117L73.419 56.5452L73.5139 59.3244L76.6733 59.2165L76.7682 61.9958L73.6089 62.1037L73.7865 67.3059C73.806 67.876 73.9546 68.2832 74.2325 68.5274C74.5104 68.7716 74.9265 68.8842 75.4807 68.8653C75.7816 68.855 76.0656 68.8136 76.3326 68.741C76.6155 68.668 76.8575 68.5566 77.0585 68.4071L77.1672 71.5902C76.6817 71.7653 76.2338 71.8837 75.8237 71.9452C75.4136 72.0068 75.0502 72.043 74.7335 72.0538ZM78.3454 71.6451L77.9195 59.174L81.3401 59.0572L81.766 71.5283L78.3454 71.6451ZM79.5895 57.2382C78.9243 57.2609 78.4051 57.1438 78.0316 56.8871C77.6735 56.6139 77.4852 56.2081 77.4668 55.6697C77.4479 55.1154 77.6078 54.6898 77.9465 54.3928C78.301 54.0954 78.8108 53.9353 79.4759 53.9125C80.1569 53.8893 80.6764 54.0142 81.0345 54.2874C81.4085 54.56 81.605 54.9735 81.6239 55.5277C81.6417 56.0503 81.4734 56.4604 81.1189 56.7579C80.7802 57.0548 80.2704 57.2149 79.5895 57.2382ZM89.5295 71.5961C88.4526 71.6329 87.5049 71.5067 86.6865 71.2175C85.868 70.9284 85.1798 70.508 84.6219 69.9562C84.064 69.4045 83.6372 68.7453 83.3415 67.9785C83.0452 67.1959 82.8811 66.3374 82.8492 65.403C82.8157 64.4212 82.9198 63.5218 83.1614 62.705C83.4183 61.8718 83.8057 61.1451 84.3236 60.5249C84.8415 59.9047 85.4907 59.4149 86.2711 59.0553C87.0516 58.6957 87.9486 58.4985 88.9621 58.4639C89.9756 58.4293 90.8602 58.5656 91.6159 58.8727C92.3874 59.1793 93.013 59.6257 93.4928 60.2118C93.9879 60.7815 94.3364 61.4672 94.5382 62.2689L91.4137 63.3983C91.3494 62.9089 91.2005 62.4939 90.9669 62.1531C90.7486 61.7959 90.4543 61.5364 90.0841 61.3746C89.7292 61.1965 89.3301 61.115 88.8867 61.1301C88.4274 61.1458 88.0348 61.2543 87.7087 61.4557C87.3821 61.6413 87.1059 61.9123 86.8803 62.2688C86.6699 62.609 86.5098 63.0267 86.3999 63.5219C86.3053 64.0008 86.2682 64.5411 86.2888 65.1429C86.318 65.9981 86.4537 66.7227 86.696 67.3169C86.9535 67.8948 87.3094 68.3345 87.7636 68.6361C88.2332 68.9213 88.8005 69.0525 89.4656 69.0298C90.0991 69.0082 90.6018 68.8721 90.9737 68.6216C91.3452 68.3552 91.6115 68.029 91.7727 67.643C91.9492 67.2406 92.0542 66.8327 92.0876 66.4194L95.1034 66.9823C95.0453 67.6026 94.8909 68.1866 94.64 68.7342C94.405 69.2813 94.0568 69.7609 93.5952 70.173C93.1336 70.5852 92.5664 70.9216 91.8936 71.1824C91.236 71.4268 90.448 71.5647 89.5295 71.5961ZM96.0127 71.0417L95.5869 58.5707L99.0075 58.4538L99.4334 70.9249L96.0127 71.0417ZM97.2568 56.6348C96.5917 56.6575 96.0724 56.5405 95.699 56.2837C95.3409 56.0106 95.1526 55.6048 95.1342 55.0663C95.1153 54.5121 95.2752 54.0865 95.6138 53.7895C95.9683 53.492 96.4782 53.3319 97.1433 53.3092C97.8242 53.2859 98.3438 53.4109 98.7019 53.6841C99.0759 53.9567 99.2723 54.3701 99.2913 54.9244C99.3091 55.447 99.1408 55.857 98.7863 56.1545C98.4476 56.4515 97.9378 56.6116 97.2568 56.6348ZM101.549 74.8481L101.204 64.7287L100.987 58.3862L103.814 58.2897L103.956 61.757L104.385 61.7662C104.499 60.922 104.72 60.2089 105.049 59.6269C105.394 59.0443 105.846 58.6008 106.407 58.2963C106.967 57.9918 107.619 57.8268 108.364 57.8014C109.472 57.7635 110.432 58.0082 111.242 58.5354C112.053 59.0468 112.681 59.7943 113.127 60.778C113.588 61.7452 113.841 62.9019 113.887 64.248C113.93 65.499 113.778 66.622 113.431 67.6168C113.084 68.5958 112.54 69.3834 111.8 69.9794C111.075 70.5749 110.15 70.8919 109.026 70.9303C108.234 70.9573 107.556 70.8299 106.991 70.5479C106.443 70.2654 105.977 69.8612 105.594 69.3352C105.227 68.7928 104.912 68.1456 104.648 67.3936L104.197 67.409C104.306 67.8333 104.408 68.2658 104.503 68.7065C104.597 69.1473 104.675 69.5806 104.737 70.0066C104.799 70.4167 104.837 70.8197 104.85 71.2156L104.97 74.7313L101.549 74.8481ZM107.745 68.2391C108.315 68.2196 108.793 68.0448 109.178 67.7145C109.563 67.3843 109.849 66.9306 110.035 66.3534C110.237 65.7758 110.326 65.1227 110.301 64.3942C110.274 63.6024 110.14 62.9332 109.9 62.3865C109.658 61.8239 109.326 61.3913 108.904 61.0886C108.481 60.786 107.985 60.6444 107.415 60.6639C106.908 60.6812 106.476 60.8069 106.12 61.041C105.763 61.2752 105.464 61.5787 105.223 61.9516C104.998 62.3239 104.838 62.7258 104.741 63.1572C104.645 63.5727 104.603 63.9705 104.616 64.3506L104.631 64.8019C104.641 65.1028 104.692 65.4182 104.782 65.748C104.872 66.062 105.01 66.3744 105.195 66.6852C105.379 66.9802 105.595 67.2503 105.841 67.4955C106.086 67.725 106.37 67.9135 106.692 68.061C107.014 68.1927 107.365 68.2521 107.745 68.2391ZM118.307 70.6134C117.61 70.6372 116.988 70.5236 116.44 70.2728C115.892 70.0061 115.458 69.6167 115.14 69.1043C114.821 68.592 114.648 67.9479 114.622 67.1719C114.599 66.4909 114.706 65.9165 114.944 65.4486C115.197 64.9801 115.572 64.5947 116.069 64.2924C116.566 63.99 117.184 63.7311 117.922 63.5156C118.659 63.3002 119.501 63.105 120.446 62.93C120.95 62.8335 121.36 62.7482 121.674 62.674C122.004 62.5835 122.246 62.4563 122.398 62.2926C122.551 62.113 122.622 61.8648 122.611 61.5481C122.596 61.1046 122.424 60.73 122.097 60.4241C121.769 60.1182 121.265 59.9768 120.584 60.0001C120.125 60.0158 119.7 60.1096 119.309 60.2814C118.935 60.4528 118.61 60.7017 118.336 61.0281C118.078 61.3541 117.894 61.7647 117.784 62.2599L114.735 61.4365C114.903 60.7807 115.153 60.2093 115.485 59.7224C115.833 59.2348 116.255 58.824 116.751 58.49C117.247 58.1401 117.816 57.8749 118.46 57.6944C119.104 57.5139 119.806 57.4106 120.566 57.3847C121.786 57.343 122.782 57.5072 123.556 57.8771C124.345 58.2307 124.943 58.8127 125.351 59.6232C125.759 60.4179 125.985 61.4566 126.029 62.7394L126.102 64.8773C126.121 65.4315 126.148 65.9935 126.183 66.563C126.234 67.1321 126.286 67.709 126.337 68.2939C126.404 68.8623 126.471 69.4308 126.538 69.9993L123.521 70.1023C123.444 69.7086 123.366 69.2594 123.285 68.7548C123.22 68.2338 123.162 67.7126 123.113 67.1911L122.685 67.2057C122.484 67.815 122.186 68.3722 121.791 68.8772C121.396 69.3822 120.903 69.7954 120.311 70.1168C119.735 70.4219 119.067 70.5874 118.307 70.6134ZM119.671 68.0934C119.972 68.0831 120.271 68.0174 120.568 67.8963C120.881 67.7746 121.177 67.6139 121.456 67.4141C121.749 67.198 122.01 66.9354 122.237 66.6264C122.48 66.3169 122.675 65.9694 122.82 65.5839L122.704 63.5901L123.255 63.6903C122.977 63.9059 122.65 64.0835 122.274 64.2232C121.898 64.347 121.505 64.4476 121.095 64.525C120.702 64.6019 120.308 64.6867 119.915 64.7794C119.522 64.8721 119.169 64.9872 118.857 65.1247C118.56 65.2617 118.32 65.4442 118.138 65.6724C117.971 65.8843 117.894 66.1802 117.907 66.5603C117.923 67.0512 118.095 67.4338 118.422 67.708C118.748 67.9823 119.165 68.1107 119.671 68.0934ZM128.081 69.9466L127.823 62.3927L127.655 57.4755L130.458 57.3798L130.562 61.1101L131.037 61.0938C131.212 60.1841 131.479 59.4219 131.839 58.8071C132.198 58.1924 132.658 57.7248 133.218 57.4045C133.794 57.0836 134.477 56.9096 135.269 56.8826C136.71 56.8333 137.82 57.3028 138.599 58.2909C139.394 59.2785 139.828 60.857 139.903 63.0266L140.125 69.5353L136.68 69.653L136.471 63.5243C136.426 62.1941 136.195 61.2348 135.778 60.6465C135.377 60.0419 134.804 59.7523 134.06 59.7777C133.427 59.7993 132.903 60.0154 132.489 60.4259C132.075 60.8364 131.768 61.3701 131.568 62.027C131.384 62.6675 131.298 63.3839 131.309 64.1762L131.502 69.8298L128.081 69.9466ZM146.475 69.6039C145.081 69.6515 144.039 69.3224 143.349 68.6166C142.675 67.8945 142.31 66.7258 142.255 65.1105L142.069 59.6707L140.263 59.7323L140.219 57.0465L141.478 57.0035C141.969 56.9867 142.331 56.903 142.564 56.7524C142.796 56.6017 142.93 56.3356 142.964 55.9539L143.212 54.1617L145.16 54.0952L145.255 56.8745L148.415 56.7666L148.509 59.5459L145.35 59.6538L145.528 64.856C145.547 65.4261 145.696 65.8332 145.974 66.0774C146.252 66.3216 146.668 66.4343 147.222 66.4153C147.523 66.405 147.807 66.3636 148.074 66.2911C148.357 66.218 148.599 66.1067 148.8 65.9571L148.908 69.1402C148.423 69.3154 147.975 69.4337 147.565 69.4953C147.155 69.5569 146.791 69.5931 146.475 69.6039ZM155.086 69.3573C154.247 69.386 153.484 69.3328 152.798 69.1977C152.112 69.0626 151.518 68.853 151.017 68.5688C150.515 68.2847 150.107 67.9419 149.792 67.5404C149.477 67.1231 149.263 66.6548 149.15 66.1354L151.726 64.9773C151.802 65.3235 151.987 65.6422 152.282 65.9334C152.577 66.2245 152.966 66.457 153.447 66.6308C153.944 66.7882 154.533 66.8553 155.214 66.8321C155.943 66.8072 156.501 66.6851 156.89 66.4657C157.279 66.2304 157.466 65.9149 157.452 65.519C157.442 65.2181 157.323 64.9843 157.096 64.8177C156.868 64.6511 156.538 64.5117 156.106 64.3996C155.674 64.2875 155.156 64.1863 154.55 64.096C153.959 63.9735 153.352 63.8436 152.729 63.7063C152.122 63.5685 151.552 63.366 151.02 63.0988C150.504 62.8311 150.071 62.4732 149.723 62.0253C149.39 61.5611 149.211 60.9647 149.186 60.2362C149.16 59.4761 149.343 58.8039 149.736 58.2198C150.128 57.6356 150.715 57.1716 151.496 56.8279C152.276 56.4683 153.236 56.269 154.377 56.23C155.406 56.1949 156.313 56.3066 157.099 56.5652C157.884 56.8079 158.531 57.1821 159.04 57.688C159.564 58.1774 159.925 58.7755 160.124 59.4822L157.376 60.5035C157.3 60.1256 157.13 59.7985 156.867 59.5221C156.62 59.2451 156.288 59.0424 155.871 58.914C155.471 58.7849 155.001 58.7296 154.463 58.748C153.782 58.7713 153.255 58.9002 152.882 59.1349C152.526 59.3691 152.354 59.6683 152.366 60.0325C152.376 60.3334 152.503 60.5748 152.747 60.7567C153.007 60.9381 153.361 61.0846 153.809 61.1961C154.256 61.2918 154.783 61.3928 155.389 61.4989C156.027 61.604 156.649 61.7333 157.257 61.887C157.864 62.0248 158.41 62.2202 158.894 62.4732C159.394 62.7256 159.795 63.0687 160.095 63.5024C160.395 63.9361 160.557 64.5013 160.581 65.1981C160.609 66.0216 160.412 66.7418 159.989 67.3587C159.565 67.9598 158.939 68.433 158.111 68.7784C157.282 69.1238 156.274 69.3168 155.086 69.3573Z" fill="white"/>
</svg>
