<svg width="222" height="161" viewBox="0 0 222 161" fill="none" xmlns="http://www.w3.org/2000/svg">
<path d="M181.378 149.578C181.452 147.849 181.561 146.014 181.689 144.113C181.813 142.244 181.957 140.342 182.116 138.406C182.273 136.454 182.435 134.471 182.608 132.461C182.774 130.488 182.962 128.46 183.157 126.435C183.358 124.396 183.565 122.343 183.781 120.286C183.809 119.984 183.839 119.675 183.876 119.369L188.92 124.393L204.587 86.323L199.843 84.5473C199.236 84.3227 198.629 84.098 198.032 83.8693L203.703 70.0909L198.685 68.219C191.856 65.6691 184.943 63.1088 178.124 60.6114L176.516 60.0248L173.441 58.9011L173.436 58.9149L171.428 58.1882C165.262 55.9587 158.838 53.6552 152.338 51.3607L147.694 49.7143L146.724 52.0809C144.973 50.4314 142.721 48.8493 139.897 47.2901C137.834 46.1474 135.436 45.0198 132.76 43.923C131.15 43.2632 129.404 42.6036 127.565 41.9543C124.579 40.9074 121.922 40.1559 119.428 39.6722C116.566 39.1095 113.947 38.912 111.42 39.0577C110.285 39.1227 109.173 39.2859 108.096 39.5032L109.235 36.7238L103.976 34.97C94.9964 31.9808 84.445 28.4356 73.9835 24.7104L72.2533 24.0896C62.1374 20.4819 52.3514 16.8728 43.1625 13.3557L38.4325 11.5457L31.1078 29.4756L34.3971 31.8603C35.7405 32.8368 36.7822 33.5691 37.8559 34.2824L34.9036 41.4854C34.6264 41.1227 34.3342 40.7377 34.0202 40.3278L28.5372 33.0424L13.9906 68.6713L25.0827 84.9731L29.1717 86.9945C33.361 89.0651 35.5198 90.1107 40.1648 92.3439L41.4202 92.9468L44.851 94.594C49.8869 96.9714 52.7267 98.2961 58.1081 100.791L62.7606 102.947L63.3471 101.516C63.3799 101.553 63.4156 101.584 63.4484 101.622C64.4302 102.579 65.5738 103.513 66.9435 104.484C68.1512 105.341 69.585 106.234 71.326 107.221C73.0531 108.202 74.9008 109.144 76.7972 110.026C77.7297 110.456 78.6224 110.846 79.4686 111.193C81.5255 112.036 83.3718 112.648 85.1038 113.069C87.9119 113.746 90.5372 113.986 92.9249 113.767C95.4589 113.544 97.7953 112.863 99.877 111.763C100.246 111.569 100.607 111.355 100.961 111.139C100.803 112.681 100.642 114.23 100.45 115.815L100.026 119.418L104.111 121.213C111.213 124.332 118.563 127.554 125.699 130.864L129.312 132.538L129.318 132.524C134.826 135.063 140.312 137.616 146.814 140.651L150.611 142.424L154.175 144.118C160.974 147.331 167.749 150.581 174.323 153.774L181.031 157.03L181.361 149.58L181.378 149.578Z" fill="#1CC2FF"/>
<path d="M86.3568 69.2831L91.8568 56.1808L89.045 55.0004L90.5782 51.348C91.4865 51.7293 92.2954 51.887 93.0049 51.8212C93.7419 51.7441 94.3961 51.2687 94.9675 50.3948L98.5909 51.9158L90.5599 71.0474L86.3568 69.2831ZM100.642 75.7572C99.425 75.2461 98.3975 74.5534 97.5598 73.679C96.7415 72.8127 96.1493 71.814 95.7831 70.6828C95.425 69.5324 95.3082 68.2673 95.4328 66.8876C95.5654 65.4886 95.9603 64.0064 96.6174 62.4411C97.5422 60.238 98.6744 58.5426 100.014 57.3547C101.354 56.1668 102.81 55.4597 104.382 55.2333C105.955 55.0069 107.533 55.2263 109.118 55.8915C110.761 56.5811 112.028 57.5679 112.921 58.8519C113.834 60.1441 114.306 61.6721 114.338 63.4359C114.398 65.1885 113.982 67.1277 113.09 69.2535C112.416 70.8574 111.613 72.2023 110.68 73.2881C109.774 74.3626 108.776 75.1709 107.685 75.7129C106.602 76.2357 105.464 76.5083 104.273 76.531C103.089 76.5343 101.879 76.2764 100.642 75.7572ZM102.117 72.4891C102.619 72.7 103.151 72.7869 103.712 72.7497C104.292 72.7206 104.881 72.5359 105.479 72.1957C106.084 71.8362 106.673 71.2993 107.246 70.585C107.827 69.8514 108.373 68.8758 108.884 67.6583C109.492 66.209 109.833 64.9088 109.907 63.7579C109.989 62.5877 109.84 61.6159 109.46 60.8427C109.088 60.0501 108.497 59.4835 107.685 59.1428C107.047 58.8751 106.33 58.824 105.533 58.9896C104.744 59.1358 103.935 59.6028 103.104 60.3906C102.292 61.1865 101.534 62.4251 100.828 64.1063C100.333 65.2851 100.014 66.3443 99.8693 67.2838C99.7524 68.2122 99.7639 69.0239 99.904 69.7192C100.071 70.4032 100.34 70.9819 100.709 71.4552C101.106 71.9174 101.576 72.262 102.117 72.4891ZM118.499 83.253C117.282 82.7419 116.254 82.0492 115.416 81.1748C114.598 80.3085 114.006 79.3097 113.64 78.1786C113.282 77.0282 113.165 75.7631 113.289 74.3834C113.422 72.9844 113.817 71.5022 114.474 69.9369C115.399 67.7338 116.531 66.0384 117.871 64.8505C119.21 63.6626 120.666 62.9555 122.239 62.7291C123.811 62.5027 125.39 62.7221 126.975 63.3873C128.617 64.0769 129.885 65.0637 130.778 66.3477C131.69 67.6399 132.163 69.1679 132.195 70.9317C132.255 72.6843 131.839 74.6235 130.946 76.7493C130.273 78.3532 129.47 79.6981 128.537 80.7839C127.631 81.8584 126.633 82.6667 125.541 83.2087C124.458 83.7314 123.321 84.0041 122.129 84.0268C120.946 84.0301 119.736 83.7722 118.499 83.253ZM119.973 79.9849C120.476 80.1958 121.008 80.2827 121.569 80.2455C122.149 80.2164 122.738 80.0317 123.336 79.6915C123.941 79.332 124.53 78.7951 125.103 78.0808C125.683 77.3472 126.229 76.3716 126.74 75.1541C127.349 73.7048 127.69 72.4046 127.764 71.2537C127.846 70.0835 127.697 69.1117 127.317 68.3385C126.945 67.5459 126.353 66.9793 125.542 66.6386C124.904 66.3709 124.187 66.3198 123.39 66.4854C122.601 66.6316 121.791 67.0986 120.961 67.8864C120.149 68.6823 119.391 69.9208 118.685 71.6021C118.19 72.7809 117.87 73.8401 117.726 74.7796C117.609 75.708 117.621 76.5197 117.761 77.215C117.928 77.899 118.197 78.4777 118.566 78.951C118.963 79.4131 119.432 79.7578 119.973 79.9849ZM133.902 85.2522L138.927 73.2804L142.29 74.6919L137.264 86.6637L133.902 85.2522ZM131.461 79.0452L132.8 75.8566L144.743 80.8699L143.404 84.0585L131.461 79.0452ZM67.9123 80.6056L68.9518 78.1291L72.2611 79.5183C73.3131 79.9599 74.191 80.0792 74.8948 79.8763C75.6048 79.6588 76.1683 79.0533 76.5853 78.0597C76.9533 77.1831 76.984 76.4141 76.6774 75.7526C76.3915 75.0827 75.7372 74.5331 74.7144 74.1038L71.2518 72.6502L72.2729 70.2176L75.8233 71.7079C76.7583 72.1004 77.5524 72.5627 78.2056 73.0946C78.8733 73.6327 79.3782 74.2313 79.7202 74.8904C80.0829 75.541 80.2651 76.2533 80.2667 77.0273C80.2744 77.7867 80.0943 78.6047 79.7263 79.4814C79.2541 80.6064 78.5997 81.4487 77.7633 82.0084C76.933 82.5535 75.931 82.8117 74.7573 82.783C73.5982 82.7604 72.2735 82.4363 70.7832 81.8108L67.9123 80.6056ZM63.9876 83.7528L70.0594 69.2884L73.2153 70.6131L67.1435 85.0775L63.9876 83.7528ZM76.7996 89.1309L79.1363 83.5643L81.6294 77.6252L84.2374 78.7199L82.6126 82.652L83.029 82.8268C83.5568 81.897 84.0883 81.1835 84.6235 80.6864C85.1733 80.1954 85.7652 79.9112 86.3992 79.8336C87.0332 79.7561 87.7301 79.8768 88.4899 80.1957C88.6214 80.2509 88.7571 80.3164 88.8971 80.3924C89.0578 80.4598 89.2312 80.5584 89.4174 80.6881L87.8783 83.986C87.7021 83.7918 87.4917 83.6175 87.2471 83.4633C87.0025 83.3091 86.7779 83.189 86.5734 83.1031C86.0036 82.864 85.4589 82.79 84.9395 82.8813C84.42 82.9725 83.9245 83.2113 83.4529 83.5977C83.0022 83.9756 82.5858 84.4968 82.2037 85.1613L79.9774 90.4649L76.7996 89.1309ZM90.2507 95.1382C89.0965 94.6537 88.1761 94.001 87.4896 93.1801C86.8092 92.3446 86.4077 91.3769 86.2851 90.2772C86.1686 89.1628 86.3924 87.9335 86.9567 86.5893C87.5209 85.2452 88.2385 84.2317 89.1094 83.549C89.9949 82.8724 90.9679 82.499 92.0285 82.4287C93.1099 82.3499 94.2131 82.5466 95.3381 83.0188C96.4923 83.5034 97.4127 84.1561 98.0992 84.977C98.8003 85.804 99.2091 86.7747 99.3256 87.8891C99.4629 88.995 99.2494 90.22 98.6851 91.5642C98.1147 92.923 97.3764 93.9449 96.4702 94.63C95.5847 95.3065 94.6044 95.6769 93.5291 95.7411C92.4685 95.8114 91.3757 95.6105 90.2507 95.1382ZM91.3446 92.8392C91.9144 93.0784 92.4445 93.1463 92.9347 93.0427C93.4396 92.9453 93.8974 92.6735 94.3082 92.2273C94.7396 91.7726 95.1148 91.1653 95.4337 90.4056C95.7711 89.602 95.9467 88.8766 95.9606 88.2294C95.9952 87.5737 95.8693 87.0139 95.5829 86.55C95.3026 86.0715 94.8483 85.7003 94.2201 85.4366C93.6795 85.2097 93.1568 85.1449 92.6519 85.2423C92.1531 85.3251 91.688 85.5938 91.2566 86.0486C90.8312 86.4887 90.456 87.0959 90.131 87.8703C89.6096 89.1122 89.4624 90.1588 89.6893 91.0102C89.9162 91.8616 90.468 92.4713 91.3446 92.8392ZM94.5791 101.801C94.4915 101.765 94.3996 101.717 94.3034 101.66C94.2158 101.623 94.1269 101.569 94.0369 101.496L94.9055 98.6904C95.5776 98.9725 96.0984 99.0623 96.468 98.9597C96.8522 98.8632 97.1823 98.4862 97.4583 97.8287L102.297 86.301L105.453 87.6258L100.577 99.2411C100.258 100.001 99.8906 100.611 99.4737 101.072C99.0653 101.554 98.6153 101.889 98.1235 102.078C97.6257 102.281 97.0801 102.353 96.4866 102.293C95.9016 102.253 95.2658 102.09 94.5791 101.801ZM104.602 85.2321C103.988 84.9745 103.566 84.651 103.334 84.2615C103.123 83.8636 103.122 83.4163 103.33 82.9195C103.545 82.4081 103.868 82.0884 104.3 81.9604C104.746 81.8384 105.276 81.9063 105.89 82.1639C106.518 82.4276 106.938 82.7584 107.149 83.1563C107.375 83.5604 107.38 84.0181 107.165 84.5295C106.963 85.0116 106.639 85.3136 106.192 85.4356C105.76 85.5636 105.23 85.4958 104.602 85.2321ZM107.666 102.449C106.717 102.05 105.925 101.563 105.29 100.987C104.67 100.418 104.208 99.7771 103.905 99.0657C103.603 98.3543 103.466 97.5751 103.495 96.728C103.538 95.8871 103.753 95.0064 104.14 94.0859C104.52 93.1801 104.994 92.3994 105.561 91.744C106.149 91.08 106.808 90.5747 107.538 90.228C108.274 89.8667 109.064 89.6829 109.909 89.6766C110.754 89.6703 111.629 89.8573 112.535 90.2376C113.411 90.6056 114.132 91.0798 114.696 91.6602C115.266 92.2261 115.658 92.889 115.872 93.6489C116.1 94.415 116.142 95.2574 115.997 96.176C115.872 97.0862 115.557 98.0623 115.051 99.1044L105.985 95.4018L106.712 93.6704L113.949 96.6314L112.464 97.0388C112.891 96.3074 113.107 95.6504 113.111 95.0677C113.115 94.4851 112.968 93.9941 112.672 93.5948C112.39 93.2015 112.016 92.9068 111.548 92.7105C110.993 92.4775 110.442 92.4181 109.896 92.5325C109.35 92.6468 108.84 92.9398 108.367 93.4115C107.9 93.8686 107.501 94.4916 107.17 95.2806C106.649 96.5225 106.536 97.5491 106.831 98.3604C107.141 99.1779 107.741 99.7737 108.632 100.148C109.042 100.32 109.406 100.413 109.727 100.427C110.068 100.433 110.363 100.385 110.612 100.283C110.876 100.187 111.105 100.051 111.299 99.8751C111.508 99.705 111.695 99.5257 111.86 99.3373L114.351 101.079C113.992 101.564 113.59 101.971 113.143 102.299C112.717 102.618 112.224 102.85 111.665 102.993C111.113 103.122 110.503 103.141 109.837 103.051C109.179 102.981 108.455 102.78 107.666 102.449ZM119.39 107.37C118.397 106.953 117.589 106.442 116.966 105.837C116.344 105.232 115.894 104.562 115.618 103.828C115.342 103.093 115.231 102.316 115.283 101.496C115.341 100.661 115.551 99.8127 115.913 98.9507C116.293 98.0448 116.764 97.2714 117.325 96.6306C117.907 95.9812 118.563 95.4832 119.293 95.1365C120.022 94.7899 120.817 94.6165 121.676 94.6163C122.536 94.6161 123.433 94.8123 124.368 95.2048C125.303 95.5973 126.049 96.0911 126.607 96.6862C127.18 97.2874 127.561 97.9546 127.752 98.6876C127.963 99.4122 127.993 100.181 127.841 100.993L124.531 100.712C124.677 100.241 124.715 99.8016 124.646 99.3943C124.597 98.9785 124.438 98.6197 124.169 98.318C123.922 98.0077 123.593 97.7667 123.184 97.595C122.76 97.4171 122.358 97.3515 121.978 97.398C121.604 97.4299 121.239 97.5606 120.885 97.79C120.552 98.011 120.232 98.3234 119.925 98.7272C119.639 99.1226 119.379 99.5979 119.146 100.153C118.815 100.942 118.635 101.657 118.606 102.298C118.599 102.931 118.738 103.479 119.024 103.943C119.331 104.398 119.792 104.755 120.406 105.013C120.99 105.258 121.503 105.345 121.946 105.273C122.395 105.186 122.773 105.001 123.081 104.718C123.41 104.426 123.676 104.1 123.879 103.738L126.383 105.511C126.071 106.05 125.686 106.516 125.229 106.908C124.787 107.307 124.27 107.597 123.678 107.778C123.087 107.96 122.431 108.028 121.71 107.983C121.011 107.93 120.237 107.726 119.39 107.37ZM129.674 111.636C128.388 111.096 127.58 110.361 127.248 109.431C126.937 108.493 127.095 107.279 127.72 105.789L129.827 100.77L128.161 100.071L129.245 97.6129L130.406 98.1005C130.859 98.2906 131.223 98.3659 131.497 98.3264C131.772 98.2869 132.004 98.1011 132.195 97.7688L133.17 96.2447L134.967 96.9991L133.891 99.5632L136.806 100.787L135.729 103.351L132.815 102.127L130.8 106.927C130.579 107.453 130.544 107.885 130.694 108.223C130.844 108.561 131.175 108.837 131.686 109.052C131.964 109.169 132.239 109.25 132.512 109.295C132.8 109.347 133.066 109.348 133.311 109.296L132.078 112.232C131.564 112.188 131.108 112.109 130.71 111.993C130.311 111.877 129.966 111.758 129.674 111.636ZM137.599 115.014C136.825 114.689 136.154 114.321 135.587 113.912C135.02 113.502 134.569 113.063 134.232 112.595C133.896 112.128 133.669 111.645 133.55 111.149C133.438 110.638 133.44 110.123 133.554 109.604L136.379 109.63C136.303 109.976 136.338 110.343 136.484 110.731C136.631 111.119 136.886 111.492 137.251 111.852C137.636 112.203 138.143 112.51 138.771 112.774C139.444 113.056 140.002 113.179 140.447 113.142C140.898 113.091 141.2 112.882 141.354 112.517C141.47 112.24 141.46 111.978 141.323 111.731C141.186 111.484 140.945 111.22 140.599 110.937C140.254 110.655 139.825 110.346 139.313 110.011C138.827 109.652 138.33 109.28 137.822 108.895C137.328 108.516 136.895 108.094 136.523 107.628C136.166 107.169 135.923 106.663 135.794 106.111C135.686 105.55 135.773 104.933 136.055 104.261C136.35 103.56 136.797 103.026 137.398 102.659C137.998 102.293 138.725 102.117 139.579 102.131C140.438 102.131 141.393 102.352 142.445 102.793C143.395 103.192 144.173 103.673 144.778 104.237C145.39 104.785 145.821 105.396 146.072 106.068C146.343 106.732 146.421 107.427 146.306 108.151L143.383 107.93C143.471 107.555 143.454 107.186 143.331 106.825C143.222 106.47 143.005 106.147 142.681 105.856C142.37 105.572 141.967 105.325 141.47 105.116C140.842 104.853 140.31 104.749 139.873 104.807C139.451 104.87 139.17 105.07 139.029 105.406C138.912 105.684 138.927 105.956 139.072 106.224C139.232 106.497 139.492 106.778 139.853 107.067C140.219 107.341 140.655 107.653 141.161 108.003C141.696 108.365 142.208 108.743 142.696 109.137C143.189 109.516 143.603 109.921 143.937 110.354C144.286 110.792 144.506 111.271 144.597 111.791C144.689 112.31 144.599 112.891 144.329 113.534C144.011 114.294 143.53 114.866 142.888 115.249C142.252 115.618 141.485 115.786 140.588 115.753C139.691 115.72 138.695 115.474 137.599 115.014Z" fill="white"/>
</svg>
