<svg width="202" height="124" viewBox="0 0 202 124" fill="none" xmlns="http://www.w3.org/2000/svg">
<path d="M183.552 115.907C183.286 114.196 183.034 112.375 182.787 110.487C182.542 108.629 182.312 106.736 182.088 104.807C181.86 102.861 181.63 100.885 181.406 98.8802C181.183 96.9129 180.97 94.8872 180.765 92.863C180.563 90.8241 180.363 88.7707 180.173 86.7114C180.14 86.4097 180.109 86.1008 180.086 85.7932L186.016 89.7324L193.925 49.3311L188.925 48.5189C188.285 48.4174 187.646 48.316 187.016 48.2087L189.879 33.5864L184.591 32.7335C177.395 31.5704 170.114 30.4135 162.938 29.2999L161.247 29.0395L158.012 28.5398L158.009 28.5543L155.897 28.235C149.415 27.2561 142.664 26.2552 135.84 25.2781L130.964 24.5731L130.476 27.0839C128.436 25.8091 125.918 24.6988 122.843 23.7228C120.596 23.0061 118.024 22.3701 115.185 21.8186C113.477 21.4868 111.635 21.182 109.704 20.9055C106.571 20.4635 103.819 20.2469 101.279 20.261C98.3611 20.2698 95.7543 20.589 93.3053 21.2267C92.2045 21.5127 91.1465 21.8904 90.1326 22.3145L90.7054 19.3659L85.2045 18.676C75.8136 17.5031 64.7722 16.093 53.7837 14.4886L51.9655 14.2187C41.3389 12.6619 31.0356 11.0392 21.3359 9.38976L16.343 8.54106L12.6715 27.5583L16.364 29.2526C17.8727 29.9471 19.0376 30.4612 20.2302 30.9504L18.7457 38.5921C18.4029 38.2907 18.0409 37.9705 17.6527 37.6299L10.8491 31.5594L3.56166 69.3471L17.6315 83.1611L22.0372 84.3426C26.5509 85.5526 28.8726 86.1552 33.865 87.4355L35.2142 87.7809L38.9012 88.7243C44.3051 90.0694 47.3494 90.8123 53.1152 92.205L58.0998 93.4081L58.3947 91.8899C58.4342 91.9203 58.4752 91.9434 58.5147 91.9739C59.6649 92.7199 60.9694 93.4126 62.5027 94.0967C63.8548 94.7002 65.4358 95.2951 67.3363 95.9218C69.2221 96.5457 71.2185 97.1077 73.2509 97.601C74.2496 97.8404 75.2014 98.048 76.0991 98.2224C78.2813 98.6463 80.2117 98.885 81.9925 98.9582C84.8787 99.072 87.5003 98.7936 89.7989 98.1116C92.2402 97.3967 94.3979 96.2706 96.224 94.7849C96.5477 94.5221 96.8596 94.2419 97.1643 93.9602C97.3113 95.5036 97.457 97.0542 97.5795 98.6459L97.8692 102.262L102.227 103.222C109.802 104.891 117.64 106.61 125.287 108.459L129.157 109.393L129.16 109.378C135.059 110.789 140.939 112.219 147.909 113.921L151.98 114.917L155.807 115.88C163.103 117.698 170.384 119.56 177.455 121.403L184.672 123.282L183.536 115.911L183.552 115.907Z" fill="#FFC420"/>
<path d="M62.0086 63.1825C60.6685 62.9374 59.5179 62.5885 58.5567 62.1357C57.6161 61.6867 56.8631 61.1442 56.2976 60.5081C55.7321 59.872 55.3317 59.149 55.0964 58.3389C54.861 57.5288 54.785 56.6627 54.8685 55.7405L59.1206 55.2078C59.0449 55.8545 59.0771 56.4356 59.2172 56.9513C59.3572 57.4669 59.5845 57.9133 59.8991 58.2904C60.2136 58.6675 60.6154 58.9754 61.1044 59.214C61.5935 59.4525 62.1369 59.6265 62.7348 59.7358C63.5182 59.8791 64.2296 59.892 64.869 59.7746C65.5289 59.6609 66.0672 59.3972 66.4838 58.9833C66.921 58.5732 67.2056 58.0074 67.3375 57.2858C67.5034 56.3787 67.3299 55.5799 66.817 54.8896C66.3041 54.1992 65.4583 53.6397 64.2796 53.2111C63.1047 52.7618 61.5847 52.4519 59.7197 52.2813L60.1835 49.7454L67.8519 46.6096L67.9028 46.3313L57.9589 44.6086L58.6206 40.9904L73.0316 43.6259L72.2681 47.8008L65.0439 50.9539L64.993 51.2322C66.9705 51.4873 68.4706 51.9641 69.4934 52.6625C70.5368 53.3647 71.2127 54.2127 71.521 55.2065C71.8536 56.1835 71.9238 57.1977 71.7315 58.2492C71.4902 59.5686 70.9717 60.6563 70.176 61.5122C69.3803 62.368 68.3046 62.949 66.949 63.255C65.5933 63.5611 63.9465 63.5369 62.0086 63.1825ZM80.3308 66.0858L80.9925 62.4676L86.93 63.5535C88.0846 63.7646 89.0885 63.6926 89.9418 63.3373C90.7989 62.9614 91.5119 62.3247 92.0808 61.4274C92.6497 60.5301 93.0624 59.3804 93.3187 57.9785C93.5299 56.824 93.5872 55.8118 93.4906 54.9419C93.3978 54.0513 93.153 53.2928 92.7562 52.6663C92.3801 52.0435 91.8454 51.5303 91.1522 51.1265C90.4797 50.7266 89.6486 50.4361 88.659 50.2551L83.4018 49.2936L84.0635 45.6754L89.1661 46.6086C91.6401 47.0611 93.587 47.8326 95.0068 48.9232C96.4266 50.0138 97.37 51.3794 97.8369 53.0202C98.3076 54.6403 98.3526 56.4915 97.9718 58.5738C97.6852 60.1406 97.2508 61.4674 96.6686 62.5541C96.0864 63.6407 95.4022 64.5276 94.616 65.2148C93.8505 65.9057 93.0101 66.4232 92.095 66.7672C91.1798 67.1112 90.2376 67.3117 89.2684 67.3688C88.2992 67.4259 87.3404 67.3678 86.392 67.1943L80.3308 66.0858ZM78.1969 65.6956L81.9297 45.2852L86.3828 46.0996L82.6501 66.51L78.1969 65.6956ZM101.752 70.4508C100.845 70.2849 100.073 69.9626 99.4358 69.4839C98.8027 68.9846 98.3526 68.359 98.0853 67.607C97.818 66.855 97.7767 65.9739 97.9615 64.9637C98.1236 64.0772 98.4242 63.3652 98.8635 62.8276C99.3233 62.2938 99.917 61.9017 100.645 61.6513C101.372 61.4008 102.243 61.2405 103.257 61.1703C104.272 61.1001 105.414 61.0854 106.685 61.1261C107.364 61.1436 107.917 61.1489 108.344 61.1418C108.796 61.1179 109.144 61.0217 109.388 60.8533C109.635 60.6642 109.797 60.3635 109.872 59.9512C109.978 59.3739 109.862 58.8414 109.525 58.3537C109.188 57.8659 108.576 57.541 107.69 57.3789C107.092 57.2695 106.517 57.2708 105.963 57.3827C105.431 57.4984 104.941 57.7285 104.495 58.0729C104.069 58.4212 103.715 58.8997 103.433 59.5087L99.7265 57.5844C100.128 56.7843 100.613 56.1165 101.179 55.581C101.767 55.0492 102.428 54.6375 103.163 54.3458C103.902 54.0335 104.713 53.8516 105.596 53.8C106.479 53.7484 107.415 53.8131 108.405 53.9941C109.992 54.2844 111.234 54.7778 112.129 55.4742C113.049 56.1537 113.658 57.0748 113.957 58.2373C114.259 59.3793 114.258 60.7852 113.952 62.4551L113.443 65.2384C113.311 65.96 113.188 66.6937 113.073 67.4397C112.978 68.1894 112.882 68.9495 112.784 69.7198C112.71 70.4733 112.636 71.2268 112.562 71.9803L108.634 71.2621C108.646 70.7316 108.671 70.1289 108.709 69.4541C108.772 68.7625 108.845 68.0727 108.928 67.3848L108.371 67.283C107.94 68.0137 107.397 68.6495 106.744 69.1906C106.091 69.7317 105.337 70.1264 104.482 70.3749C103.652 70.6065 102.741 70.6318 101.752 70.4508ZM104.226 67.5796C104.618 67.6512 105.023 67.6507 105.441 67.578C105.88 67.5091 106.307 67.3849 106.724 67.2054C107.165 67.009 107.575 66.7432 107.956 66.4081C108.358 66.0767 108.707 65.6825 109.003 65.2254L109.417 62.6164L110.1 62.9011C109.68 63.1012 109.207 63.2385 108.682 63.313C108.161 63.3668 107.625 63.3859 107.074 63.3703C106.543 63.3586 106.011 63.3571 105.476 63.3659C104.942 63.3747 104.454 63.4239 104.011 63.5134C103.589 63.6067 103.228 63.775 102.928 64.0184C102.652 64.245 102.469 64.6056 102.379 65.1004C102.262 65.7396 102.376 66.2824 102.72 66.7289C103.065 67.1754 103.567 67.459 104.226 67.5796ZM119.635 79.0905C118.811 78.9397 117.98 78.7026 117.145 78.3793C116.326 78.0804 115.565 77.6963 114.863 77.2269C114.177 76.7819 113.611 76.263 113.166 75.6702L115.129 72.0983C115.665 72.8993 116.397 73.5552 117.326 74.0661C118.252 74.5976 119.199 74.9519 120.168 75.1291C121.261 75.3289 122.209 75.268 123.014 74.9464C123.835 74.6492 124.514 74.081 125.051 73.2417C125.613 72.3856 126.051 71.2726 126.365 69.9026L127.065 67.1223L126.385 66.9979C125.93 68.3209 125.386 69.372 124.754 70.1512C124.142 70.9341 123.437 71.4658 122.64 71.7461C121.868 72.0097 120.997 72.0528 120.028 71.8756C118.853 71.6607 117.918 71.1808 117.223 70.4358C116.528 69.6909 116.084 68.6829 115.891 67.4117C115.717 66.1443 115.791 64.6344 116.112 62.882L117.356 56.0785L121.809 56.8929L120.763 62.614C120.412 64.5314 120.376 65.9523 120.654 66.8767C120.933 67.8012 121.515 68.3445 122.402 68.5066C122.876 68.5933 123.331 68.5488 123.768 68.373C124.209 68.1767 124.609 67.8556 124.967 67.4098C125.346 66.9678 125.672 66.4095 125.945 65.7349C126.242 65.0435 126.473 64.2442 126.639 63.3371L127.623 57.9562L132.076 58.7706L129.893 70.7076C129.656 72.0064 129.325 73.1712 128.903 74.2017C128.483 75.2117 127.976 76.0669 127.379 76.7674C126.799 77.4923 126.119 78.0605 125.341 78.4721C124.563 78.8837 123.695 79.1406 122.739 79.2427C121.804 79.3486 120.769 79.2979 119.635 79.0905ZM138.043 77.0878C136.95 76.888 135.979 76.6039 135.131 76.2356C134.282 75.8673 133.574 75.4289 133.006 74.9203C132.439 74.4117 132.008 73.8535 131.714 73.2459C131.425 72.6176 131.28 71.952 131.281 71.249L134.937 70.4795C134.936 70.9481 135.086 71.4123 135.385 71.8718C135.685 72.3314 136.121 72.7415 136.694 73.102C137.292 73.4456 138.034 73.6985 138.921 73.8607C139.869 74.0341 140.625 74.0339 141.19 73.8602C141.758 73.6658 142.089 73.3109 142.184 72.7955C142.255 72.4038 142.167 72.0682 141.92 71.7886C141.673 71.509 141.286 71.2359 140.76 70.9691C140.233 70.7024 139.592 70.4252 138.835 70.1376C138.106 69.8126 137.358 69.4735 136.592 69.1202C135.846 68.7708 135.167 68.3483 134.554 67.8528C133.963 67.3611 133.505 66.7766 133.181 66.0996C132.882 65.4057 132.819 64.5845 132.993 63.6362C133.174 62.6466 133.6 61.8297 134.272 61.1855C134.943 60.5414 135.832 60.1074 136.939 59.8836C138.049 59.6392 139.346 59.6527 140.83 59.9241C142.17 60.1692 143.312 60.5697 144.254 61.1255C145.2 61.6608 145.93 62.327 146.445 63.1242C146.984 63.9046 147.282 64.7794 147.339 65.7486L143.501 66.293C143.509 65.7831 143.382 65.3125 143.12 64.881C142.878 64.4534 142.507 64.0978 142.004 63.8142C141.523 63.5344 140.932 63.3304 140.231 63.2022C139.344 63.04 138.627 63.0581 138.08 63.2562C137.553 63.4581 137.246 63.7962 137.159 64.2703C137.087 64.6621 137.184 65.0099 137.448 65.3138C137.732 65.6216 138.148 65.9107 138.695 66.1812C139.246 66.4311 139.898 66.7101 140.651 67.0183C141.446 67.3341 142.214 67.677 142.956 68.047C143.702 68.3965 144.352 68.803 144.906 69.2666C145.481 69.734 145.902 70.2902 146.167 70.9353C146.433 71.5805 146.482 72.3566 146.317 73.2637C146.12 74.3358 145.662 75.2107 144.942 75.8886C144.225 76.5458 143.282 76.9807 142.114 77.1932C140.946 77.4057 139.589 77.3706 138.043 77.0878Z" fill="white"/>
</svg>
