<svg width="281" height="178" viewBox="0 0 281 178" fill="none" xmlns="http://www.w3.org/2000/svg">
<path d="M242.89 89.2696L218.727 104.558L205.368 96.9801C183.671 107.96 162.678 110.841 143.529 102.821C141.288 101.883 139.072 100.795 136.883 99.5532L136.03 99.0695L142.521 94.9625L161.988 82.6453L164.973 84.3382C165.373 84.5654 165.764 84.7767 166.149 84.9705C171.911 87.8706 176.372 86.8462 192.68 76.5279C197.177 73.6824 200.421 71.5051 202.66 69.7901C208.258 65.5023 207.58 64.1036 204.535 62.3761C201.124 60.4413 197.908 60.7708 189.319 65.0115L156.344 81.1004C136.669 90.6502 118.448 90.7527 103.099 82.046C97.6185 78.9369 93.5319 74.8378 92.1026 69.882C90.2743 63.5425 92.7943 55.8011 102.306 46.937C104.061 45.3017 106.054 43.6282 108.301 41.9183L95.0842 34.4209L119.247 19.1324L133.459 27.1941C156.493 17.3953 177.682 18.3139 194.878 28.0686L195.731 28.5523L169.773 44.9765L167.641 43.7673C160.819 39.8976 155.646 40.4424 138.248 51.4501C124.993 59.8369 123.941 62.7196 128.063 65.0575C128.651 65.391 129.242 65.6494 129.857 65.8284C132.361 66.558 135.244 65.9681 139.806 63.7663L166.064 51.3087L173.208 47.9192C178.26 45.516 183.011 43.6889 187.475 42.3555C206.031 36.8128 219.646 39.799 229.498 45.3876C238.18 50.3127 242.905 57.1332 240.719 65.4163C239.435 70.2848 235.763 75.6586 229.105 81.4497L234.724 84.6372L242.89 89.2696Z" fill="#AEFFE2"/>
<path d="M242.89 89.2696L218.727 104.558L205.368 96.9801C183.671 107.96 162.678 110.841 143.529 102.821L136.133 107.458C138.434 109.513 147.129 114.038 163.509 115.698C179.889 117.358 198.298 109.671 205.455 105.62L218.603 112.864L242.956 97.5228L242.89 89.2696Z" fill="#02BE7C"/>
<path d="M240.719 65.4163C239.435 70.2848 235.763 75.6586 229.105 81.4497L234.724 84.6372L237.93 80.3183C242.74 73.8383 241.632 67.6444 240.719 65.4163Z" fill="#02BE7C"/>
<path d="M161.988 82.6453L164.973 84.3382C165.373 84.5654 165.764 84.7767 166.149 84.9705C175.418 80.2823 194.232 70.8705 195.342 70.7282C196.729 70.5504 198.761 69.3499 202.66 69.7901C208.258 65.5023 207.58 64.1036 204.535 62.3761C201.124 60.4413 197.908 60.7708 189.319 65.0115L156.344 81.1004C136.669 90.6502 118.448 90.7527 103.099 82.046C97.6185 78.9369 93.5319 74.8378 92.1026 69.882C91.1021 73.7641 91.3607 83.0244 100.4 89.0093C111.698 96.4905 127.539 99.7766 142.521 94.9625L161.988 82.6453Z" fill="#02BE7C"/>
<path d="M195.731 28.5523L169.773 44.9765L167.641 43.7673C160.819 39.8976 155.646 40.4424 138.248 51.4501C124.993 59.8369 123.941 62.7196 128.063 65.0575C128.651 65.391 129.242 65.6494 129.857 65.8284C130.277 65.4409 134.077 62.8218 145.915 55.4457C157.753 48.0697 164.28 49.6143 166.064 51.3087L173.208 47.9192C178.26 45.516 183.011 43.6889 187.475 42.3555L195.998 36.8055L195.731 28.5523Z" fill="#02BE7C"/>
<path d="M108.301 41.9183L95.0842 34.4209L95.4559 43.1154L102.306 46.937C104.061 45.3017 106.054 43.6282 108.301 41.9183Z" fill="#02BE7C"/>
<path d="M136.883 99.5532L136.03 99.0695L136.133 107.458L143.529 102.821C141.288 101.883 139.072 100.795 136.883 99.5532Z" fill="#02BE7C"/>
<path d="M37.3072 120.495L15.8082 105.685L105.858 45.2037L128.729 60.9595L120.381 85.9478L116.264 98.2702L113.432 104.722L109.462 113.767L106.773 119.892L108.26 120.916L113.816 116.766L122.02 110.638L126.854 107.028L161.664 83.6478L183.163 98.4583L160.569 113.633L143.252 125.264L134.593 131.08L117.276 142.71L93.1132 158.939L75.7206 146.958L70.2419 143.184L76.2585 123.74L78.6269 116.085L82.2751 104.296L85.3514 97.1572L89.266 88.0736L90.2959 85.6837L88.8093 84.6596L86.6523 86.2731L78.4541 92.4058L72.5206 96.8444L61.4701 104.266L37.3072 120.495Z" fill="#CAF1FF"/>
<path d="M74.2589 54.1748L120.381 85.9478L126.194 89.9522L160.569 113.633L170.461 120.447L163.77 124.941L153.143 132.078L143.252 125.264L122.02 110.638L113.432 104.722L89.266 88.0736L86.6523 86.2731L56.9417 65.8058L74.2589 54.1748Z" fill="#CAF1FF"/>
<path d="M48.2831 71.6213L78.4541 92.4058L85.3514 97.1572L109.462 113.767L113.816 116.766L134.593 131.08L144.485 137.894L137.892 142.322L127.168 149.525L117.276 142.71L78.6269 116.085L61.4701 104.266L30.9658 83.2523L48.2831 71.6213Z" fill="#CAF1FF"/>
<path d="M37.3072 120.495L15.8082 105.685L18.7818 116.989L40.406 131.878L64.8661 115.571L76.2585 123.74L78.6269 116.085L61.4701 104.266L37.3072 120.495Z" fill="#1CC2FF"/>
<path d="M117.276 142.71L93.1132 158.939L75.7206 146.958L73.374 154.565L96.0616 170.163L120.167 153.856L130.448 160.946L147.818 149.248L137.892 142.322L127.168 149.525L117.276 142.71Z" fill="#1CC2FF"/>
<path d="M85.3514 97.1572L89.266 88.0736L86.6523 86.2731L78.4541 92.4058L85.3514 97.1572Z" fill="#1CC2FF"/>
<path d="M113.432 104.722L109.462 113.767L113.816 116.766L122.02 110.638L113.432 104.722Z" fill="#1CC2FF"/>
<path d="M144.485 137.894L146.4 136.486L156.326 143.576L173.696 131.878L163.77 124.941L153.143 132.078L143.252 125.264L134.593 131.08L144.485 137.894Z" fill="#1CC2FF"/>
<path d="M160.569 113.633L170.461 120.447L186.11 109.631L183.163 98.4583L160.569 113.633Z" fill="#1CC2FF"/>
<path d="M128.729 60.9595L120.381 85.9478L126.194 89.9522L131.866 72.3225L128.729 60.9595Z" fill="#1CC2FF"/>
<path d="M170.461 120.447L163.77 124.941L173.696 131.878L170.461 120.447Z" fill="#1CC2FF"/>
</svg>
