<svg width="48" height="48" viewBox="0 0 48 48" fill="none" xmlns="http://www.w3.org/2000/svg">
<rect width="48" height="48" rx="24" fill="#FFC420"/>
<path fill-rule="evenodd" clip-rule="evenodd" d="M24.0694 11H23.9307C22.7327 11 21.7338 10.9999 20.9408 11.1065C20.1037 11.2191 19.348 11.4667 18.7407 12.0739C18.1334 12.6812 17.8858 13.437 17.7733 14.274C17.6952 14.8547 17.6743 15.5458 17.6688 16.3446C16.8565 16.3579 16.144 16.3871 15.5173 16.4508C14.3338 16.5712 13.3458 16.8232 12.4815 17.4007C11.7899 17.8628 11.1962 18.4565 10.7341 19.1481C10.1566 20.0123 9.90463 21.0004 9.78424 22.1839C9.66672 23.3391 9.66673 24.8965 9.66675 26.7221C9.66673 28.5477 9.66673 29.9943 9.78424 31.1495C9.90463 32.3329 10.1566 33.3209 10.7341 34.1853C11.1962 34.8768 11.7899 35.4705 12.4815 35.9327C13.3458 36.5101 14.3338 36.7621 15.5173 36.8825C16.6725 37 18.119 37 19.9446 37H28.0555C29.8811 37 31.3277 37 32.4829 36.8825C33.6663 36.7621 34.6543 36.5101 35.5187 35.9327C36.2102 35.4705 36.8039 34.8768 37.2661 34.1853C37.8435 33.3209 38.0955 32.3329 38.2159 31.1495C38.3334 29.9943 38.3334 28.5477 38.3334 26.7221C38.3334 24.8964 38.3334 23.3391 38.2159 22.1839C38.0955 21.0004 37.8435 20.0123 37.2661 19.1481C36.8039 18.4565 36.2102 17.8628 35.5187 17.4007C34.6543 16.8232 33.6663 16.5712 32.4829 16.4508C31.8561 16.3871 31.1437 16.3579 30.3314 16.3446C30.3258 15.5458 30.3049 14.8547 30.2269 14.274C30.1143 13.437 29.8667 12.6812 29.2594 12.0739C28.6522 11.4667 27.8965 11.2191 27.0594 11.1065C26.2663 10.9999 25.2674 11 24.0694 11ZM28.331 16.3333C28.3254 15.5741 28.3066 15.0012 28.2447 14.5405C28.1619 13.9252 28.019 13.6619 27.8453 13.4882C27.6715 13.3144 27.4082 13.1714 26.7929 13.0887C26.1489 13.0021 25.2854 13 24.0001 13C22.7147 13 21.8513 13.0021 21.2073 13.0887C20.592 13.1714 20.3287 13.3144 20.1549 13.4882C19.9811 13.6619 19.8382 13.9252 19.7555 14.5405C19.6935 15.0012 19.6748 15.5741 19.6692 16.3333C19.76 16.3333 19.8518 16.3333 19.9446 16.3333H28.0555C28.1483 16.3333 28.2402 16.3333 28.331 16.3333ZM15.0452 22.3709C15.2087 21.8433 15.7688 21.5483 16.2964 21.7117L17.1657 21.9812C21.5503 23.34 26.4503 23.34 30.835 21.9812L31.7043 21.7117C32.2318 21.5483 32.7921 21.8433 32.9555 22.3709C33.119 22.8984 32.8239 23.4587 32.2963 23.6221L31.427 23.8915C29.3574 24.5329 27.1857 24.896 25.0003 24.9809V26.6669C25.0003 27.2192 24.5526 27.6669 24.0003 27.6669C23.4481 27.6669 23.0003 27.2192 23.0003 26.6669V24.9809C20.8151 24.896 18.6433 24.5329 16.5736 23.8915L15.7043 23.6221C15.1768 23.4587 14.8817 22.8984 15.0452 22.3709Z" fill="white"/>
</svg>
