<svg width="48" height="48" viewBox="0 0 48 48" fill="none" xmlns="http://www.w3.org/2000/svg">
<rect width="48" height="48" rx="24" fill="#00CE86"/>
<path d="M29.3334 13.668C33.1347 13.668 35.8257 14.3914 37.0639 14.819C37.8867 15.1831 38.3334 16.004 38.3334 16.8255V31.3229C38.3334 32.2027 37.8525 32.9149 37.2487 33.3412C36.7239 33.7116 36.0418 33.9157 35.3477 33.8295C34.0907 33.5187 31.8877 33.1472 29.3334 33.1472C26.199 33.1472 24.4307 33.7379 21.8842 34.1028C19.5189 34.4419 16.7995 34.5091 12.3647 33.5677L11.4545 33.3659C10.3952 33.1211 9.66675 32.1728 9.66675 31.1055V16.3763C9.66675 14.8428 11.1038 13.7682 12.547 14.082L13.3621 14.2513C17.3319 15.0394 19.7034 14.9286 21.7579 14.6211C23.9383 14.2948 26.0849 13.668 29.3334 13.668ZM24.0001 20.0013C21.7909 20.0013 20.0001 21.7921 20.0001 24.0013C20.0001 26.2104 21.7909 28.0013 24.0001 28.0013C26.2093 28.0013 28.0001 26.2104 28.0001 24.0013C28.0001 21.7921 26.2093 20.0013 24.0001 20.0013ZM15.3334 23.3191C14.597 23.3191 14.0001 23.916 14.0001 24.6524V24.6653C14.0001 25.4017 14.597 25.9987 15.3334 25.9987C16.0698 25.9987 16.6667 25.4017 16.6667 24.6653V24.6524C16.6667 23.916 16.0698 23.3191 15.3334 23.3191ZM32.6667 21.9857C31.9303 21.9857 31.3334 22.5827 31.3334 23.3191V23.332C31.3334 24.0684 31.9303 24.6653 32.6667 24.6653C33.4031 24.6653 34.0001 24.0684 34.0001 23.332V23.3191C34.0001 22.5827 33.4031 21.9857 32.6667 21.9857Z" fill="white"/>
</svg>
