<svg width="48" height="48" viewBox="0 0 48 48" fill="none" xmlns="http://www.w3.org/2000/svg">
<rect width="48" height="48" rx="24" fill="#1CC2FF"/>
<path d="M23.6062 9.7476C23.8577 9.6398 24.1425 9.6398 24.3939 9.7476L33.7273 13.7476C34.095 13.9052 34.3334 14.2667 34.3334 14.6667V20.0001C34.3334 20.5524 33.8857 21.0001 33.3334 21.0001C32.7811 21.0001 32.3334 20.5524 32.3334 20.0001V16.1833L29.6667 17.3261V19.3334C29.6667 19.6696 29.4978 19.9832 29.2173 20.1683C28.9382 20.3522 28.5859 20.3846 28.2782 20.2548C28.1146 20.2023 27.6459 20.0541 27.2906 19.9779C26.5801 19.8256 25.4837 19.6667 24.0001 19.6667C22.5165 19.6667 21.4201 19.8256 20.7096 19.9779C20.3542 20.0541 19.8897 20.2005 19.7261 20.2531C19.4174 20.385 19.0632 20.3531 18.7829 20.1683C18.5023 19.9832 18.3334 19.6696 18.3334 19.3334V17.3261L14.2728 15.5859C13.9051 15.4283 13.6667 15.0668 13.6667 14.6667C13.6667 14.2667 13.9051 13.9052 14.2728 13.7476L23.6062 9.7476Z" fill="white"/>
<path fill-rule="evenodd" clip-rule="evenodd" d="M19.3333 18.3333C19.8855 18.3333 20.3333 18.781 20.3333 19.3333V20.6666C20.3333 22.6917 21.9749 24.3333 23.9999 24.3333C26.025 24.3333 27.6666 22.6917 27.6666 20.6666V19.3333C27.6666 18.781 28.1143 18.3333 28.6666 18.3333C29.2189 18.3333 29.6666 18.781 29.6666 19.3333V20.6666C29.6666 23.7962 27.1295 26.3333 23.9999 26.3333C20.8703 26.3333 18.3333 23.7962 18.3333 20.6666V19.3333C18.3333 18.781 18.781 18.3333 19.3333 18.3333Z" fill="white"/>
<path d="M17.8488 29.4219C21.6127 27.0807 26.3878 27.0807 30.1517 29.4219C30.8884 29.8558 32.4645 30.7875 33.2528 31.5936C33.7481 32.1002 34.2317 32.7806 34.3197 33.6214C34.4134 34.5175 34.037 35.3542 33.2999 36.0878C32.0701 37.3118 30.5553 38.3327 28.5727 38.3327H19.4278C17.4452 38.3327 15.9304 37.3118 14.7006 36.0878C13.9635 35.3542 13.5871 34.5175 13.6809 33.6214C13.7689 32.7806 14.2525 32.1002 14.7478 31.5936C15.5361 30.7875 17.1122 29.8558 17.8488 29.4219Z" fill="white"/>
</svg>
