<svg width="252" height="161" viewBox="0 0 252 161" fill="none" xmlns="http://www.w3.org/2000/svg">
<g clip-path="url(#clip0_210_151)">
<rect width="252" height="161" rx="24" fill="#00CE86"/>
<g clip-path="url(#clip1_210_151)">
<path fill-rule="evenodd" clip-rule="evenodd" d="M37.8333 31.75C37.8333 31.0606 37.9691 30.3779 38.233 29.7409C38.4968 29.104 38.8835 28.5252 39.371 28.0377C39.8585 27.5502 40.4373 27.1635 41.0742 26.8996C41.7112 26.6358 42.3939 26.5 43.0833 26.5C43.7728 26.5 44.4555 26.6358 45.0924 26.8996C45.7294 27.1635 46.3081 27.5502 46.7956 28.0377C47.2831 28.5252 47.6699 29.104 47.9337 29.7409C48.1975 30.3779 48.3333 31.0606 48.3333 31.75C48.3333 33.1424 47.7802 34.4777 46.7956 35.4623C45.8111 36.4469 44.4757 37 43.0833 37C41.6909 37 40.3556 36.4469 39.371 35.4623C38.3865 34.4777 37.8333 33.1424 37.8333 31.75ZM43.0833 28.8333C42.3098 28.8333 41.5679 29.1406 41.0209 29.6876C40.474 30.2346 40.1667 30.9765 40.1667 31.75C40.1667 32.5235 40.474 33.2654 41.0209 33.8124C41.5679 34.3594 42.3098 34.6667 43.0833 34.6667C43.8569 34.6667 44.5987 34.3594 45.1457 33.8124C45.6927 33.2654 46 32.5235 46 31.75C46 30.9765 45.6927 30.2346 45.1457 29.6876C44.5987 29.1406 43.8569 28.8333 43.0833 28.8333ZM43.0833 38.1667C45.4085 38.1667 47.5225 38.876 49.0765 39.877C49.8547 40.3787 50.5208 40.9702 51.005 41.6153C51.4798 42.2512 51.8333 43.0153 51.8333 43.8332C51.8333 44.714 51.425 45.4198 50.8253 45.9297C50.2595 46.408 49.5222 46.7183 48.7603 46.9318C47.2285 47.36 45.202 47.5 43.0833 47.5C40.9647 47.5 38.9382 47.36 37.4075 46.9318C36.6445 46.7183 35.9072 46.408 35.3425 45.9297C34.7405 45.421 34.3333 44.714 34.3333 43.8332C34.3333 43.0142 34.6868 42.2512 35.1617 41.6165C35.6458 40.9702 36.312 40.3775 37.0902 39.8782C38.6442 38.8748 40.7582 38.1667 43.0833 38.1667ZM43.0833 40.5C41.2202 40.5 39.5425 41.074 38.3525 41.8393C37.7575 42.222 37.3142 42.635 37.0295 43.0142C36.7378 43.4038 36.6667 43.6862 36.6667 43.8332C36.6667 43.9195 36.6842 44.0082 36.8498 44.1482C37.0517 44.3208 37.4262 44.5145 38.0352 44.6848C39.2485 45.0232 41.0137 45.1667 43.0833 45.1667C45.153 45.1667 46.9182 45.0232 48.1315 44.6848C48.7405 44.5145 49.115 44.3208 49.3168 44.1482C49.4825 44.0082 49.5 43.9195 49.5 43.8332C49.5 43.6862 49.4288 43.4038 49.1372 43.0142C48.8525 42.635 48.4092 42.222 47.8142 41.8393C46.6242 41.074 44.9465 40.5 43.0833 40.5ZM53 38.1667C54.54 38.1667 55.9377 38.6753 56.9667 39.3928C57.9257 40.0613 58.8333 41.116 58.8333 42.3328C58.8333 43.0177 58.5382 43.5847 58.089 43.9965C57.6725 44.3792 57.1452 44.6125 56.6377 44.7665C55.6227 45.0733 54.316 45.1667 53 45.1667H52.7632C52.9148 44.7607 53 44.315 53 43.8332C53 43.5718 52.9743 43.3198 52.93 43.0748L52.8752 42.8333H53C54.2612 42.8333 55.2867 42.7377 55.9622 42.5335C56.2678 42.4402 56.4253 42.3468 56.493 42.2932C56.4592 42.1555 56.2772 41.7565 55.632 41.3073C55.0695 40.925 54.4304 40.6699 53.7592 40.5599C53.088 40.4499 52.4009 40.4876 51.7458 40.6703C51.181 39.9997 50.5188 39.4177 49.7812 38.9437C50.7775 38.4337 51.8807 38.1674 53 38.1667ZM49.5 33.5C49.5 32.5717 49.8687 31.6815 50.5251 31.0251C51.1815 30.3687 52.0717 30 53 30C53.9283 30 54.8185 30.3687 55.4749 31.0251C56.1312 31.6815 56.5 32.5717 56.5 33.5C56.5 34.4283 56.1312 35.3185 55.4749 35.9749C54.8185 36.6313 53.9283 37 53 37C52.0717 37 51.1815 36.6313 50.5251 35.9749C49.8687 35.3185 49.5 34.4283 49.5 33.5ZM53 32.3333C52.6906 32.3333 52.3938 32.4562 52.175 32.675C51.9562 32.8938 51.8333 33.1906 51.8333 33.5C51.8333 33.8094 51.9562 34.1062 52.175 34.325C52.3938 34.5437 52.6906 34.6667 53 34.6667C53.3094 34.6667 53.6062 34.5437 53.825 34.325C54.0437 34.1062 54.1667 33.8094 54.1667 33.5C54.1667 33.1906 54.0437 32.8938 53.825 32.675C53.6062 32.4562 53.3094 32.3333 53 32.3333Z" fill="white"/>
</g>
<path d="M36.176 87.536V84.824H39.8C40.952 84.824 41.816 84.592 42.392 84.128C42.968 83.648 43.256 82.864 43.256 81.776C43.256 80.816 42.984 80.088 42.44 79.592C41.912 79.08 41.088 78.824 39.968 78.824H36.176V76.16H40.064C41.088 76.16 42.008 76.28 42.824 76.52C43.656 76.76 44.36 77.12 44.936 77.6C45.528 78.064 45.976 78.656 46.28 79.376C46.584 80.08 46.736 80.912 46.736 81.872C46.736 83.104 46.456 84.144 45.896 84.992C45.336 85.824 44.504 86.456 43.4 86.888C42.312 87.32 40.952 87.536 39.32 87.536H36.176ZM33.752 92V76.16H37.208V92H33.752ZM50.6407 92.336C49.9367 92.336 49.3127 92.2 48.7687 91.928C48.2247 91.64 47.8007 91.232 47.4967 90.704C47.1927 90.176 47.0407 89.52 47.0407 88.736C47.0407 88.048 47.1687 87.472 47.4247 87.008C47.6967 86.544 48.0887 86.168 48.6007 85.88C49.1127 85.592 49.7447 85.352 50.4967 85.16C51.2487 84.968 52.1047 84.8 53.0647 84.656C53.5767 84.576 53.9927 84.504 54.3127 84.44C54.6487 84.36 54.8967 84.24 55.0567 84.08C55.2167 83.904 55.2967 83.656 55.2967 83.336C55.2967 82.888 55.1367 82.504 54.8167 82.184C54.4967 81.864 53.9927 81.704 53.3047 81.704C52.8407 81.704 52.4087 81.784 52.0087 81.944C51.6247 82.104 51.2887 82.344 51.0007 82.664C50.7287 82.984 50.5287 83.392 50.4007 83.888L47.3527 82.952C47.5447 82.296 47.8167 81.728 48.1687 81.248C48.5367 80.768 48.9767 80.368 49.4887 80.048C50.0007 79.712 50.5847 79.464 51.2407 79.304C51.8967 79.144 52.6087 79.064 53.3767 79.064C54.6087 79.064 55.6087 79.264 56.3767 79.664C57.1607 80.048 57.7447 80.656 58.1287 81.488C58.5127 82.304 58.7047 83.36 58.7047 84.656V86.816C58.7047 87.376 58.7127 87.944 58.7287 88.52C58.7607 89.096 58.7927 89.68 58.8247 90.272C58.8727 90.848 58.9207 91.424 58.9687 92H55.9207C55.8567 91.6 55.7927 91.144 55.7287 90.632C55.6807 90.104 55.6407 89.576 55.6087 89.048H55.1767C54.9527 89.656 54.6327 90.208 54.2167 90.704C53.8007 91.2 53.2887 91.6 52.6807 91.904C52.0887 92.192 51.4087 92.336 50.6407 92.336ZM52.1047 89.84C52.4087 89.84 52.7127 89.784 53.0167 89.672C53.3367 89.56 53.6407 89.408 53.9287 89.216C54.2327 89.008 54.5047 88.752 54.7447 88.448C55.0007 88.144 55.2087 87.8 55.3687 87.416L55.3207 85.4L55.8727 85.52C55.5847 85.728 55.2487 85.896 54.8647 86.024C54.4807 86.136 54.0807 86.224 53.6647 86.288C53.2647 86.352 52.8647 86.424 52.4647 86.504C52.0647 86.584 51.7047 86.688 51.3847 86.816C51.0807 86.944 50.8327 87.12 50.6407 87.344C50.4647 87.552 50.3767 87.848 50.3767 88.232C50.3767 88.728 50.5367 89.12 50.8567 89.408C51.1767 89.696 51.5927 89.84 52.1047 89.84ZM60.5278 92V85.904V79.4H63.3838L63.4078 83.696H63.8638C63.9918 82.624 64.2078 81.752 64.5118 81.08C64.8318 80.408 65.2718 79.912 65.8318 79.592C66.3918 79.272 67.0878 79.112 67.9198 79.112C68.0638 79.112 68.2158 79.12 68.3758 79.136C68.5518 79.136 68.7518 79.16 68.9758 79.208L68.8318 82.88C68.5918 82.768 68.3278 82.688 68.0398 82.64C67.7518 82.592 67.4958 82.568 67.2718 82.568C66.6478 82.568 66.1118 82.712 65.6638 83C65.2158 83.288 64.8478 83.704 64.5598 84.248C64.2878 84.776 64.1038 85.424 64.0078 86.192V92H60.5278ZM74.8593 92.288C73.4513 92.288 72.4113 91.92 71.7393 91.184C71.0833 90.432 70.7553 89.24 70.7553 87.608V82.112H68.9313L68.9793 79.4H70.2513C70.7473 79.4 71.1153 79.328 71.3553 79.184C71.5953 79.04 71.7393 78.776 71.7873 78.392L72.0993 76.592H74.0673V79.4H77.2593V82.208H74.0673V87.464C74.0673 88.04 74.2033 88.456 74.4753 88.712C74.7473 88.968 75.1633 89.096 75.7233 89.096C76.0273 89.096 76.3153 89.064 76.5873 89C76.8753 88.936 77.1233 88.832 77.3313 88.688V91.904C76.8353 92.064 76.3793 92.168 75.9633 92.216C75.5473 92.264 75.1793 92.288 74.8593 92.288ZM78.5184 92V79.4H81.9744V92H78.5184ZM80.2704 77.504C79.5984 77.504 79.0784 77.368 78.7104 77.096C78.3584 76.808 78.1824 76.392 78.1824 75.848C78.1824 75.288 78.3584 74.864 78.7104 74.576C79.0784 74.288 79.5984 74.144 80.2704 74.144C80.9584 74.144 81.4784 74.288 81.8304 74.576C82.1984 74.864 82.3824 75.288 82.3824 75.848C82.3824 76.376 82.1984 76.784 81.8304 77.072C81.4784 77.36 80.9584 77.504 80.2704 77.504ZM89.8066 92.336C88.7186 92.336 87.7666 92.176 86.9506 91.856C86.1346 91.536 85.4546 91.088 84.9106 90.512C84.3666 89.936 83.9586 89.256 83.6866 88.472C83.4146 87.672 83.2786 86.8 83.2786 85.856C83.2786 84.864 83.4146 83.96 83.6866 83.144C83.9746 82.312 84.3906 81.592 84.9346 80.984C85.4786 80.376 86.1506 79.904 86.9506 79.568C87.7506 79.232 88.6626 79.064 89.6866 79.064C90.7106 79.064 91.5986 79.232 92.3506 79.568C93.1186 79.904 93.7346 80.376 94.1986 80.984C94.6786 81.576 95.0066 82.28 95.1826 83.096L91.9906 84.128C91.9426 83.632 91.8066 83.208 91.5826 82.856C91.3746 82.488 91.0866 82.216 90.7186 82.04C90.3666 81.848 89.9666 81.752 89.5186 81.752C89.0546 81.752 88.6546 81.848 88.3186 82.04C87.9826 82.216 87.6946 82.48 87.4546 82.832C87.2306 83.168 87.0546 83.584 86.9266 84.08C86.8146 84.56 86.7586 85.104 86.7586 85.712C86.7586 86.576 86.8706 87.312 87.0946 87.92C87.3346 88.512 87.6786 88.968 88.1266 89.288C88.5906 89.592 89.1586 89.744 89.8306 89.744C90.4706 89.744 90.9826 89.624 91.3666 89.384C91.7506 89.128 92.0306 88.808 92.2066 88.424C92.3986 88.024 92.5186 87.616 92.5666 87.2L95.5906 87.872C95.5106 88.496 95.3346 89.08 95.0626 89.624C94.8066 90.168 94.4386 90.64 93.9586 91.04C93.4786 91.44 92.8946 91.76 92.2066 92C91.5346 92.224 90.7346 92.336 89.8066 92.336ZM96.3684 92V79.4H99.8244V92H96.3684ZM98.1204 77.504C97.4484 77.504 96.9284 77.368 96.5604 77.096C96.2084 76.808 96.0324 76.392 96.0324 75.848C96.0324 75.288 96.2084 74.864 96.5604 74.576C96.9284 74.288 97.4484 74.144 98.1204 74.144C98.8084 74.144 99.3284 74.288 99.6804 74.576C100.048 74.864 100.232 75.288 100.232 75.848C100.232 76.376 100.048 76.784 99.6804 77.072C99.3284 77.36 98.8084 77.504 98.1204 77.504ZM101.825 96.032V85.808V79.4H104.681L104.705 82.904L105.137 82.928C105.281 82.08 105.529 81.368 105.881 80.792C106.249 80.216 106.721 79.784 107.297 79.496C107.873 79.208 108.537 79.064 109.289 79.064C110.409 79.064 111.369 79.344 112.169 79.904C112.969 80.448 113.577 81.224 113.993 82.232C114.425 83.224 114.641 84.4 114.641 85.76C114.641 87.024 114.449 88.152 114.065 89.144C113.681 90.12 113.105 90.896 112.337 91.472C111.585 92.048 110.641 92.336 109.505 92.336C108.705 92.336 108.025 92.184 107.465 91.88C106.921 91.576 106.465 91.152 106.097 90.608C105.745 90.048 105.449 89.384 105.209 88.616H104.753C104.849 89.048 104.937 89.488 105.017 89.936C105.097 90.384 105.161 90.824 105.209 91.256C105.257 91.672 105.281 92.08 105.281 92.48V96.032H101.825ZM108.305 89.576C108.881 89.576 109.369 89.416 109.769 89.096C110.169 88.776 110.473 88.328 110.681 87.752C110.905 87.176 111.017 86.52 111.017 85.784C111.017 84.984 110.905 84.304 110.681 83.744C110.457 83.168 110.137 82.72 109.721 82.4C109.305 82.08 108.809 81.92 108.233 81.92C107.721 81.92 107.281 82.032 106.913 82.256C106.545 82.48 106.233 82.776 105.977 83.144C105.737 83.512 105.561 83.912 105.449 84.344C105.337 84.76 105.281 85.16 105.281 85.544V86C105.281 86.304 105.321 86.624 105.401 86.96C105.481 87.28 105.609 87.6 105.785 87.92C105.961 88.224 106.169 88.504 106.409 88.76C106.649 89 106.929 89.2 107.249 89.36C107.569 89.504 107.921 89.576 108.305 89.576ZM118.881 92.336C118.177 92.336 117.553 92.2 117.009 91.928C116.465 91.64 116.041 91.232 115.737 90.704C115.433 90.176 115.281 89.52 115.281 88.736C115.281 88.048 115.409 87.472 115.665 87.008C115.937 86.544 116.329 86.168 116.841 85.88C117.353 85.592 117.985 85.352 118.737 85.16C119.489 84.968 120.345 84.8 121.305 84.656C121.817 84.576 122.233 84.504 122.553 84.44C122.889 84.36 123.137 84.24 123.297 84.08C123.457 83.904 123.537 83.656 123.537 83.336C123.537 82.888 123.377 82.504 123.057 82.184C122.737 81.864 122.233 81.704 121.545 81.704C121.081 81.704 120.649 81.784 120.249 81.944C119.865 82.104 119.529 82.344 119.241 82.664C118.969 82.984 118.769 83.392 118.641 83.888L115.593 82.952C115.785 82.296 116.057 81.728 116.409 81.248C116.777 80.768 117.217 80.368 117.729 80.048C118.241 79.712 118.825 79.464 119.481 79.304C120.137 79.144 120.849 79.064 121.617 79.064C122.849 79.064 123.849 79.264 124.617 79.664C125.401 80.048 125.985 80.656 126.369 81.488C126.753 82.304 126.945 83.36 126.945 84.656V86.816C126.945 87.376 126.953 87.944 126.969 88.52C127.001 89.096 127.033 89.68 127.065 90.272C127.113 90.848 127.161 91.424 127.209 92H124.161C124.097 91.6 124.033 91.144 123.969 90.632C123.921 90.104 123.881 89.576 123.849 89.048H123.417C123.193 89.656 122.873 90.208 122.457 90.704C122.041 91.2 121.529 91.6 120.921 91.904C120.329 92.192 119.649 92.336 118.881 92.336ZM120.345 89.84C120.649 89.84 120.953 89.784 121.257 89.672C121.577 89.56 121.881 89.408 122.169 89.216C122.473 89.008 122.745 88.752 122.985 88.448C123.241 88.144 123.449 87.8 123.609 87.416L123.561 85.4L124.113 85.52C123.825 85.728 123.489 85.896 123.105 86.024C122.721 86.136 122.321 86.224 121.905 86.288C121.505 86.352 121.105 86.424 120.705 86.504C120.305 86.584 119.945 86.688 119.625 86.816C119.321 86.944 119.073 87.12 118.881 87.344C118.705 87.552 118.617 87.848 118.617 88.232C118.617 88.728 118.777 89.12 119.097 89.408C119.417 89.696 119.833 89.84 120.345 89.84ZM128.768 92V84.368V79.4H131.6L131.576 83.168H132.056C132.264 82.256 132.56 81.496 132.944 80.888C133.328 80.28 133.808 79.824 134.384 79.52C134.976 79.216 135.672 79.064 136.472 79.064C137.928 79.064 139.032 79.576 139.784 80.6C140.552 81.624 140.936 83.232 140.936 85.424V92H137.456V85.808C137.456 84.464 137.256 83.488 136.856 82.88C136.472 82.256 135.904 81.944 135.152 81.944C134.512 81.944 133.976 82.144 133.544 82.544C133.112 82.944 132.784 83.472 132.56 84.128C132.352 84.768 132.24 85.488 132.224 86.288V92H128.768ZM147.342 92.288C145.934 92.288 144.894 91.92 144.222 91.184C143.566 90.432 143.238 89.24 143.238 87.608V82.112H141.414L141.462 79.4H142.734C143.23 79.4 143.598 79.328 143.838 79.184C144.078 79.04 144.222 78.776 144.27 78.392L144.582 76.592H146.55V79.4H149.742V82.208H146.55V87.464C146.55 88.04 146.686 88.456 146.958 88.712C147.23 88.968 147.646 89.096 148.206 89.096C148.51 89.096 148.798 89.064 149.07 89C149.358 88.936 149.606 88.832 149.814 88.688V91.904C149.318 92.064 148.862 92.168 148.446 92.216C148.03 92.264 147.662 92.288 147.342 92.288ZM156.041 92.336C155.193 92.336 154.425 92.256 153.737 92.096C153.049 91.936 152.457 91.704 151.961 91.4C151.465 91.096 151.065 90.736 150.761 90.32C150.457 89.888 150.257 89.408 150.161 88.88L152.801 87.8C152.865 88.152 153.041 88.48 153.329 88.784C153.617 89.088 154.001 89.336 154.481 89.528C154.977 89.704 155.569 89.792 156.257 89.792C156.993 89.792 157.561 89.688 157.961 89.48C158.361 89.256 158.561 88.944 158.561 88.544C158.561 88.24 158.449 88 158.225 87.824C158.001 87.648 157.673 87.496 157.241 87.368C156.809 87.24 156.289 87.12 155.681 87.008C155.089 86.864 154.481 86.712 153.857 86.552C153.249 86.392 152.681 86.168 152.153 85.88C151.641 85.592 151.217 85.216 150.881 84.752C150.561 84.272 150.401 83.664 150.401 82.928C150.401 82.16 150.609 81.488 151.025 80.912C151.441 80.336 152.049 79.888 152.849 79.568C153.649 79.232 154.625 79.064 155.777 79.064C156.817 79.064 157.729 79.208 158.513 79.496C159.297 79.768 159.937 80.168 160.433 80.696C160.945 81.208 161.289 81.824 161.465 82.544L158.657 83.48C158.593 83.096 158.433 82.76 158.177 82.472C157.937 82.184 157.609 81.968 157.193 81.824C156.793 81.68 156.321 81.608 155.777 81.608C155.089 81.608 154.553 81.72 154.169 81.944C153.801 82.168 153.617 82.464 153.617 82.832C153.617 83.136 153.737 83.384 153.977 83.576C154.233 83.768 154.585 83.928 155.033 84.056C155.481 84.168 156.009 84.288 156.617 84.416C157.257 84.544 157.881 84.696 158.489 84.872C159.097 85.032 159.641 85.248 160.121 85.52C160.617 85.792 161.009 86.152 161.297 86.6C161.585 87.048 161.729 87.624 161.729 88.328C161.729 89.16 161.505 89.88 161.057 90.488C160.609 91.08 159.961 91.536 159.113 91.856C158.265 92.176 157.241 92.336 156.041 92.336Z" fill="white"/>
<path d="M42.404 129.504C40.844 129.504 39.476 129.348 38.3 129.036C37.148 128.724 36.188 128.268 35.42 127.668C34.652 127.068 34.052 126.336 33.62 125.472C33.188 124.608 32.924 123.648 32.828 122.592L37.508 121.116C37.556 121.86 37.712 122.508 37.976 123.06C38.24 123.612 38.588 124.068 39.02 124.428C39.452 124.788 39.968 125.052 40.568 125.22C41.168 125.388 41.816 125.472 42.512 125.472C43.424 125.472 44.228 125.34 44.924 125.076C45.644 124.812 46.196 124.404 46.58 123.852C46.988 123.3 47.192 122.604 47.192 121.764C47.192 120.708 46.832 119.844 46.112 119.172C45.392 118.5 44.324 118.044 42.908 117.804C41.492 117.54 39.716 117.504 37.58 117.696V114.744L45.572 109.632V109.308L34.016 109.416V105.204H50.792V110.064L43.304 115.104V115.428C45.584 115.308 47.372 115.536 48.668 116.112C49.988 116.688 50.924 117.504 51.476 118.56C52.052 119.592 52.34 120.72 52.34 121.944C52.34 123.48 51.98 124.812 51.26 125.94C50.54 127.068 49.448 127.944 47.984 128.568C46.52 129.192 44.66 129.504 42.404 129.504ZM63.9129 129.504C62.4009 129.504 61.0089 129.228 59.7369 128.676C58.4889 128.124 57.4209 127.332 56.5329 126.3C55.6449 125.244 54.9609 123.96 54.4809 122.448C54.0009 120.912 53.7609 119.172 53.7609 117.228C53.7609 114.492 54.2049 112.2 55.0929 110.352C55.9809 108.504 57.2049 107.112 58.7649 106.176C60.3249 105.24 62.0889 104.772 64.0569 104.772C66.0969 104.772 67.8729 105.252 69.3849 106.212C70.9209 107.172 72.0969 108.576 72.9129 110.424C73.7529 112.248 74.1729 114.48 74.1729 117.12C74.1729 119.112 73.9209 120.888 73.4169 122.448C72.9369 123.984 72.2409 125.28 71.3289 126.336C70.4169 127.368 69.3369 128.16 68.0889 128.712C66.8409 129.24 65.4489 129.504 63.9129 129.504ZM64.0209 125.4C64.6449 125.4 65.2449 125.256 65.8209 124.968C66.4209 124.68 66.9609 124.224 67.4409 123.6C67.9209 122.952 68.3049 122.124 68.5929 121.116C68.8809 120.084 69.0249 118.812 69.0249 117.3C69.0249 115.5 68.8089 113.976 68.3769 112.728C67.9449 111.456 67.3569 110.496 66.6129 109.848C65.8689 109.176 64.9929 108.84 63.9849 108.84C63.1929 108.84 62.4129 109.104 61.6449 109.632C60.8769 110.136 60.2289 110.988 59.7009 112.188C59.1969 113.388 58.9449 115.032 58.9449 117.12C58.9449 118.584 59.0769 119.844 59.3409 120.9C59.6289 121.932 60.0009 122.784 60.4569 123.456C60.9369 124.104 61.4769 124.596 62.0769 124.932C62.7009 125.244 63.3489 125.4 64.0209 125.4ZM86.0894 129.504C84.5774 129.504 83.1854 129.228 81.9134 128.676C80.6654 128.124 79.5974 127.332 78.7094 126.3C77.8214 125.244 77.1374 123.96 76.6574 122.448C76.1774 120.912 75.9374 119.172 75.9374 117.228C75.9374 114.492 76.3814 112.2 77.2694 110.352C78.1574 108.504 79.3814 107.112 80.9414 106.176C82.5014 105.24 84.2654 104.772 86.2334 104.772C88.2734 104.772 90.0494 105.252 91.5614 106.212C93.0974 107.172 94.2734 108.576 95.0894 110.424C95.9294 112.248 96.3494 114.48 96.3494 117.12C96.3494 119.112 96.0974 120.888 95.5934 122.448C95.1134 123.984 94.4174 125.28 93.5054 126.336C92.5934 127.368 91.5134 128.16 90.2654 128.712C89.0174 129.24 87.6254 129.504 86.0894 129.504ZM86.1974 125.4C86.8214 125.4 87.4214 125.256 87.9974 124.968C88.5974 124.68 89.1374 124.224 89.6174 123.6C90.0974 122.952 90.4814 122.124 90.7694 121.116C91.0574 120.084 91.2014 118.812 91.2014 117.3C91.2014 115.5 90.9854 113.976 90.5534 112.728C90.1214 111.456 89.5334 110.496 88.7894 109.848C88.0454 109.176 87.1694 108.84 86.1614 108.84C85.3694 108.84 84.5894 109.104 83.8214 109.632C83.0534 110.136 82.4054 110.988 81.8774 112.188C81.3734 113.388 81.1214 115.032 81.1214 117.12C81.1214 118.584 81.2534 119.844 81.5174 120.9C81.8054 121.932 82.1774 122.784 82.6334 123.456C83.1134 124.104 83.6534 124.596 84.2534 124.932C84.8774 125.244 85.5254 125.4 86.1974 125.4ZM108.266 129.504C106.754 129.504 105.362 129.228 104.09 128.676C102.842 128.124 101.774 127.332 100.886 126.3C99.998 125.244 99.314 123.96 98.834 122.448C98.354 120.912 98.114 119.172 98.114 117.228C98.114 114.492 98.558 112.2 99.446 110.352C100.334 108.504 101.558 107.112 103.118 106.176C104.678 105.24 106.442 104.772 108.41 104.772C110.45 104.772 112.226 105.252 113.738 106.212C115.274 107.172 116.45 108.576 117.266 110.424C118.106 112.248 118.526 114.48 118.526 117.12C118.526 119.112 118.274 120.888 117.77 122.448C117.29 123.984 116.594 125.28 115.682 126.336C114.77 127.368 113.69 128.16 112.442 128.712C111.194 129.24 109.802 129.504 108.266 129.504ZM108.374 125.4C108.998 125.4 109.598 125.256 110.174 124.968C110.774 124.68 111.314 124.224 111.794 123.6C112.274 122.952 112.658 122.124 112.946 121.116C113.234 120.084 113.378 118.812 113.378 117.3C113.378 115.5 113.162 113.976 112.73 112.728C112.298 111.456 111.71 110.496 110.966 109.848C110.222 109.176 109.346 108.84 108.338 108.84C107.546 108.84 106.766 109.104 105.998 109.632C105.23 110.136 104.582 110.988 104.054 112.188C103.55 113.388 103.298 115.032 103.298 117.12C103.298 118.584 103.43 119.844 103.694 120.9C103.982 121.932 104.354 122.784 104.81 123.456C105.29 124.104 105.83 124.596 106.43 124.932C107.054 125.244 107.702 125.4 108.374 125.4ZM125.415 124.788V109.92H129.591V124.788H125.415ZM120.087 119.316V115.356H134.919V119.316H120.087Z" fill="white"/>
<g clip-path="url(#clip2_210_151)">
<path fill-rule="evenodd" clip-rule="evenodd" d="M209.417 64.625C209.417 61.0301 210.125 57.4703 211.5 54.149C212.876 50.8278 214.893 47.81 217.435 45.268C219.977 42.7259 222.994 40.7095 226.316 39.3338C229.637 37.9581 233.197 37.25 236.792 37.25C240.387 37.25 243.946 37.9581 247.268 39.3338C250.589 40.7095 253.607 42.7259 256.149 45.268C258.691 47.81 260.707 50.8278 262.083 54.149C263.459 57.4703 264.167 61.0301 264.167 64.625C264.167 71.8853 261.283 78.8482 256.149 83.982C251.015 89.1159 244.052 92 236.792 92C229.531 92 222.568 89.1159 217.435 83.982C212.301 78.8482 209.417 71.8853 209.417 64.625ZM236.792 49.4167C232.758 49.4167 228.89 51.019 226.038 53.8711C223.186 56.7232 221.583 60.5915 221.583 64.625C221.583 68.6585 223.186 72.5268 226.038 75.3789C228.89 78.231 232.758 79.8333 236.792 79.8333C240.825 79.8333 244.693 78.231 247.546 75.3789C250.398 72.5268 252 68.6585 252 64.625C252 60.5915 250.398 56.7232 247.546 53.8711C244.693 51.019 240.825 49.4167 236.792 49.4167ZM236.792 98.0833C248.916 98.0833 259.939 101.782 268.042 107.002C272.099 109.617 275.573 112.702 278.097 116.066C280.573 119.381 282.417 123.366 282.417 127.63C282.417 132.223 280.287 135.903 277.161 138.562C274.21 141.056 270.366 142.674 266.393 143.787C258.406 146.02 247.839 146.75 236.792 146.75C225.744 146.75 215.178 146.02 207.196 143.787C203.218 142.674 199.373 141.056 196.429 138.562C193.29 135.91 191.167 132.223 191.167 127.63C191.167 123.36 193.01 119.381 195.486 116.072C198.01 112.702 201.484 109.611 205.542 107.008C213.645 101.776 224.668 98.0833 236.792 98.0833ZM236.792 110.25C227.077 110.25 218.329 113.243 212.124 117.234C209.021 119.229 206.71 121.383 205.225 123.36C203.704 125.391 203.333 126.864 203.333 127.63C203.333 128.08 203.425 128.543 204.288 129.273C205.341 130.173 207.294 131.183 210.469 132.071C216.796 133.835 226 134.583 236.792 134.583C247.583 134.583 256.788 133.835 263.114 132.071C266.29 131.183 268.242 130.173 269.295 129.273C270.159 128.543 270.25 128.08 270.25 127.63C270.25 126.864 269.879 125.391 268.358 123.36C266.874 121.383 264.562 119.229 261.46 117.234C255.255 113.243 246.507 110.25 236.792 110.25ZM288.5 98.0833C296.53 98.0833 303.818 100.736 309.183 104.477C314.184 107.963 318.917 113.462 318.917 119.807C318.917 123.378 317.378 126.334 315.035 128.482C312.864 130.477 310.114 131.694 307.468 132.497C302.175 134.097 295.362 134.583 288.5 134.583H287.265C288.056 132.466 288.5 130.143 288.5 127.63C288.5 126.267 288.366 124.953 288.135 123.676L287.849 122.417H288.5C295.076 122.417 300.423 121.918 303.946 120.853C305.539 120.367 306.361 119.88 306.713 119.6C306.537 118.882 305.588 116.802 302.224 114.46C299.291 112.466 295.959 111.136 292.459 110.562C288.959 109.989 285.376 110.185 281.96 111.138C279.015 107.641 275.562 104.606 271.716 102.135C276.911 99.4756 282.664 98.0871 288.5 98.0833ZM270.25 73.75C270.25 68.9098 272.173 64.2678 275.595 60.8453C279.018 57.4228 283.66 55.5 288.5 55.5C293.34 55.5 297.982 57.4228 301.405 60.8453C304.827 64.2678 306.75 68.9098 306.75 73.75C306.75 78.5902 304.827 83.2322 301.405 86.6547C297.982 90.0772 293.34 92 288.5 92C283.66 92 279.018 90.0772 275.595 86.6547C272.173 83.2322 270.25 78.5902 270.25 73.75ZM288.5 67.6667C286.887 67.6667 285.339 68.3076 284.198 69.4484C283.058 70.5893 282.417 72.1366 282.417 73.75C282.417 75.3634 283.058 76.9107 284.198 78.0516C285.339 79.1924 286.887 79.8333 288.5 79.8333C290.113 79.8333 291.661 79.1924 292.802 78.0516C293.942 76.9107 294.583 75.3634 294.583 73.75C294.583 72.1366 293.942 70.5893 292.802 69.4484C291.661 68.3076 290.113 67.6667 288.5 67.6667Z" fill="#53D6A8"/>
</g>
</g>
<defs>
<clipPath id="clip0_210_151">
<rect width="252" height="161" rx="24" fill="white"/>
</clipPath>
<clipPath id="clip1_210_151">
<rect width="28" height="28" fill="white" transform="translate(32 23)"/>
</clipPath>
<clipPath id="clip2_210_151">
<rect width="146" height="146" fill="white" transform="translate(179 19)"/>
</clipPath>
</defs>
</svg>
