<svg width="404" height="308" viewBox="0 0 404 308" fill="none" xmlns="http://www.w3.org/2000/svg">
<rect width="404" height="308" fill="#CDF2FF"/>
<path d="M331 213.105C331 224.403 321.841 233.563 310.542 233.563H293.92V255.299L276.152 241.569C269.435 236.378 261.186 233.563 252.698 233.563H185.239C173.94 233.563 164.781 224.403 164.781 213.105V173.468H235.104C246.403 173.468 255.562 164.309 255.562 153.01V119.767H310.542C321.841 119.767 331 128.926 331 140.224V213.105Z" fill="#1CC2FF"/>
<path d="M164.781 140.224C164.781 128.926 173.94 119.767 185.239 119.767H255.562V153.01C255.562 164.309 246.403 173.468 235.104 173.468H164.781V140.224Z" fill="#0B3E51"/>
<path d="M102.458 165.796H119.08V187.532L136.848 173.802C143.565 168.612 151.814 165.796 160.302 165.796H227.761C239.06 165.796 248.219 156.637 248.219 145.338V72.4577C248.219 61.1592 239.06 52 227.761 52H102.458C91.1592 52 82 61.1593 82 72.4577V145.338C82 156.637 91.1592 165.796 102.458 165.796Z" fill="white"/>
<rect x="101" y="79" width="56" height="4" rx="2" fill="#FFC521"/>
<rect x="150" y="91" width="75" height="4" rx="2" fill="#1CC2FF"/>
<rect x="113" y="111" width="75" height="4" rx="2" fill="#1CC2FF" fill-opacity="0.31"/>
<rect x="150" y="127" width="75" height="4" rx="2" fill="#1CC2FF" fill-opacity="0.31"/>
</svg>
