<svg width="252" height="161" viewBox="0 0 252 161" fill="none" xmlns="http://www.w3.org/2000/svg">
<g clip-path="url(#clip0_210_154)">
<rect width="252" height="161" rx="24" fill="#1CC2FF"/>
<g clip-path="url(#clip1_210_154)">
<path fill-rule="evenodd" clip-rule="evenodd" d="M47.1667 26.766L56.4977 32.1525C56.8524 32.3573 57.1469 32.6518 57.3517 33.0065C57.5565 33.3612 57.6643 33.7636 57.6644 34.1732V39.8268C57.6643 40.2364 57.5565 40.6388 57.3517 40.9935C57.1469 41.3482 56.8524 41.6427 56.4977 41.8475L47.1667 47.234C46.812 47.4388 46.4096 47.5466 46 47.5466C45.5904 47.5466 45.1881 47.4388 44.8334 47.234L35.5024 41.8475C35.1477 41.6427 34.8531 41.3482 34.6483 40.9935C34.4435 40.6388 34.3357 40.2364 34.3357 39.8268V34.1732C34.3357 33.7636 34.4435 33.3612 34.6483 33.0065C34.8531 32.6518 35.1477 32.3573 35.5024 32.1525L44.8334 26.766C45.1881 26.5612 45.5904 26.4534 46 26.4534C46.4096 26.4534 46.812 26.5612 47.1667 26.766ZM41.5644 38.3475L37.8357 40.5L44.8334 44.5402V40.2352L41.5644 38.3475ZM50.4357 38.3475L47.1667 40.234V44.539L54.1644 40.5L50.4357 38.3475ZM36.669 35.5207V38.4793L39.231 37L36.669 35.5207ZM55.331 35.5207L52.769 37L55.331 38.4793V35.5207ZM46 35.7867L43.8977 37L46 38.2133L48.1024 37L46 35.7867ZM44.8334 29.4598L37.8357 33.5L41.5644 35.6525L44.8334 33.766V29.4598ZM47.1667 29.4598V33.7648L50.4357 35.6525L54.1644 33.5L47.1667 29.4598Z" fill="white"/>
</g>
<path d="M36.176 87.536V84.824H39.8C40.952 84.824 41.816 84.592 42.392 84.128C42.968 83.648 43.256 82.864 43.256 81.776C43.256 80.816 42.984 80.088 42.44 79.592C41.912 79.08 41.088 78.824 39.968 78.824H36.176V76.16H40.064C41.088 76.16 42.008 76.28 42.824 76.52C43.656 76.76 44.36 77.12 44.936 77.6C45.528 78.064 45.976 78.656 46.28 79.376C46.584 80.08 46.736 80.912 46.736 81.872C46.736 83.104 46.456 84.144 45.896 84.992C45.336 85.824 44.504 86.456 43.4 86.888C42.312 87.32 40.952 87.536 39.32 87.536H36.176ZM33.752 92V76.16H37.208V92H33.752ZM47.7824 92V85.904V79.4H50.6384L50.6624 83.696H51.1184C51.2464 82.624 51.4624 81.752 51.7664 81.08C52.0864 80.408 52.5264 79.912 53.0864 79.592C53.6464 79.272 54.3424 79.112 55.1744 79.112C55.3184 79.112 55.4704 79.12 55.6304 79.136C55.8064 79.136 56.0064 79.16 56.2304 79.208L56.0864 82.88C55.8464 82.768 55.5824 82.688 55.2944 82.64C55.0064 82.592 54.7504 82.568 54.5264 82.568C53.9024 82.568 53.3664 82.712 52.9184 83C52.4704 83.288 52.1024 83.704 51.8144 84.248C51.5424 84.776 51.3584 85.424 51.2624 86.192V92H47.7824ZM62.6538 92.336C61.3898 92.336 60.2778 92.088 59.3178 91.592C58.3578 91.08 57.6058 90.336 57.0618 89.36C56.5178 88.368 56.2458 87.136 56.2458 85.664C56.2458 84.192 56.5178 82.968 57.0618 81.992C57.6218 81.016 58.3818 80.288 59.3418 79.808C60.3178 79.312 61.4218 79.064 62.6538 79.064C63.9178 79.064 65.0298 79.312 65.9898 79.808C66.9658 80.304 67.7258 81.048 68.2698 82.04C68.8298 83.016 69.1098 84.24 69.1098 85.712C69.1098 87.2 68.8218 88.44 68.2458 89.432C67.6858 90.408 66.9178 91.136 65.9418 91.616C64.9818 92.096 63.8858 92.336 62.6538 92.336ZM62.7738 89.768C63.3978 89.768 63.9178 89.624 64.3338 89.336C64.7658 89.048 65.0858 88.616 65.2938 88.04C65.5178 87.448 65.6298 86.736 65.6298 85.904C65.6298 85.024 65.5098 84.28 65.2698 83.672C65.0458 83.048 64.7098 82.576 64.2618 82.256C63.8138 81.92 63.2458 81.752 62.5578 81.752C61.9658 81.752 61.4538 81.896 61.0218 82.184C60.5898 82.456 60.2618 82.888 60.0378 83.48C59.8138 84.056 59.7018 84.768 59.7018 85.616C59.7018 86.976 59.9738 88.008 60.5178 88.712C61.0618 89.416 61.8138 89.768 62.7738 89.768ZM69.2879 96.848C69.1919 96.848 69.0879 96.84 68.9759 96.824C68.8799 96.824 68.7759 96.808 68.6639 96.776L68.3759 93.824C69.1119 93.824 69.6319 93.704 69.9359 93.464C70.2559 93.224 70.4159 92.744 70.4159 92.024V79.4H73.8719V92.12C73.8719 92.952 73.7679 93.664 73.5599 94.256C73.3679 94.864 73.0799 95.352 72.6959 95.72C72.3119 96.104 71.8319 96.384 71.2559 96.56C70.6959 96.752 70.0399 96.848 69.2879 96.848ZM72.1439 77.504C71.4719 77.504 70.9519 77.368 70.5839 77.096C70.2319 76.808 70.0559 76.392 70.0559 75.848C70.0559 75.288 70.2319 74.864 70.5839 74.576C70.9519 74.288 71.4719 74.144 72.1439 74.144C72.8319 74.144 73.3519 74.288 73.7039 74.576C74.0719 74.864 74.2559 75.288 74.2559 75.848C74.2559 76.376 74.0719 76.784 73.7039 77.072C73.3519 77.36 72.8319 77.504 72.1439 77.504ZM81.7259 92.336C80.6859 92.336 79.7579 92.192 78.9419 91.904C78.1419 91.616 77.4619 91.2 76.9019 90.656C76.3419 90.112 75.9099 89.44 75.6059 88.64C75.3179 87.84 75.1739 86.936 75.1739 85.928C75.1739 84.936 75.3099 84.024 75.5819 83.192C75.8699 82.344 76.2859 81.616 76.8299 81.008C77.3739 80.384 78.0379 79.904 78.8219 79.568C79.6059 79.232 80.4939 79.064 81.4859 79.064C82.4459 79.064 83.3019 79.224 84.0539 79.544C84.8059 79.848 85.4299 80.312 85.9259 80.936C86.4379 81.56 86.8059 82.328 87.0299 83.24C87.2699 84.136 87.3579 85.168 87.2939 86.336L77.4059 86.432V84.536L85.3019 84.464L84.0779 85.424C84.1899 84.576 84.1339 83.88 83.9099 83.336C83.6859 82.792 83.3579 82.392 82.9259 82.136C82.5099 81.88 82.0459 81.752 81.5339 81.752C80.9259 81.752 80.3899 81.912 79.9259 82.232C79.4619 82.552 79.1019 83.024 78.8459 83.648C78.5899 84.256 78.4619 84.992 78.4619 85.856C78.4619 87.216 78.7579 88.216 79.3499 88.856C79.9579 89.496 80.7499 89.816 81.7259 89.816C82.1739 89.816 82.5499 89.76 82.8539 89.648C83.1739 89.52 83.4299 89.36 83.6219 89.168C83.8299 88.976 83.9899 88.76 84.1019 88.52C84.2299 88.28 84.3339 88.04 84.4139 87.8L87.4139 88.448C87.2699 89.04 87.0539 89.576 86.7659 90.056C86.4939 90.52 86.1259 90.928 85.6619 91.28C85.1979 91.616 84.6379 91.872 83.9819 92.048C83.3419 92.24 82.5899 92.336 81.7259 92.336ZM94.5644 92.336C93.4764 92.336 92.5244 92.176 91.7084 91.856C90.8924 91.536 90.2124 91.088 89.6684 90.512C89.1244 89.936 88.7164 89.256 88.4444 88.472C88.1724 87.672 88.0364 86.8 88.0364 85.856C88.0364 84.864 88.1724 83.96 88.4444 83.144C88.7324 82.312 89.1484 81.592 89.6924 80.984C90.2364 80.376 90.9084 79.904 91.7084 79.568C92.5084 79.232 93.4204 79.064 94.4444 79.064C95.4684 79.064 96.3564 79.232 97.1084 79.568C97.8764 79.904 98.4924 80.376 98.9564 80.984C99.4364 81.576 99.7644 82.28 99.9404 83.096L96.7484 84.128C96.7004 83.632 96.5644 83.208 96.3404 82.856C96.1324 82.488 95.8444 82.216 95.4764 82.04C95.1244 81.848 94.7244 81.752 94.2764 81.752C93.8124 81.752 93.4124 81.848 93.0764 82.04C92.7404 82.216 92.4524 82.48 92.2124 82.832C91.9884 83.168 91.8124 83.584 91.6844 84.08C91.5724 84.56 91.5164 85.104 91.5164 85.712C91.5164 86.576 91.6284 87.312 91.8524 87.92C92.0924 88.512 92.4364 88.968 92.8844 89.288C93.3484 89.592 93.9164 89.744 94.5884 89.744C95.2284 89.744 95.7404 89.624 96.1244 89.384C96.5084 89.128 96.7884 88.808 96.9644 88.424C97.1564 88.024 97.2764 87.616 97.3244 87.2L100.348 87.872C100.268 88.496 100.092 89.08 99.8204 89.624C99.5644 90.168 99.1964 90.64 98.7164 91.04C98.2364 91.44 97.6524 91.76 96.9644 92C96.2924 92.224 95.4924 92.336 94.5644 92.336ZM105.806 92.288C104.398 92.288 103.358 91.92 102.686 91.184C102.03 90.432 101.702 89.24 101.702 87.608V82.112H99.8782L99.9262 79.4H101.198C101.694 79.4 102.062 79.328 102.302 79.184C102.542 79.04 102.686 78.776 102.734 78.392L103.046 76.592H105.014V79.4H108.206V82.208H105.014V87.464C105.014 88.04 105.15 88.456 105.422 88.712C105.694 88.968 106.11 89.096 106.67 89.096C106.974 89.096 107.262 89.064 107.534 89C107.822 88.936 108.07 88.832 108.278 88.688V91.904C107.782 92.064 107.326 92.168 106.91 92.216C106.494 92.264 106.126 92.288 105.806 92.288ZM114.505 92.336C113.657 92.336 112.889 92.256 112.201 92.096C111.513 91.936 110.921 91.704 110.425 91.4C109.929 91.096 109.529 90.736 109.225 90.32C108.921 89.888 108.721 89.408 108.625 88.88L111.265 87.8C111.329 88.152 111.505 88.48 111.793 88.784C112.081 89.088 112.465 89.336 112.945 89.528C113.441 89.704 114.033 89.792 114.721 89.792C115.457 89.792 116.025 89.688 116.425 89.48C116.825 89.256 117.025 88.944 117.025 88.544C117.025 88.24 116.913 88 116.689 87.824C116.465 87.648 116.137 87.496 115.705 87.368C115.273 87.24 114.753 87.12 114.145 87.008C113.553 86.864 112.945 86.712 112.321 86.552C111.713 86.392 111.145 86.168 110.617 85.88C110.105 85.592 109.681 85.216 109.345 84.752C109.025 84.272 108.865 83.664 108.865 82.928C108.865 82.16 109.073 81.488 109.489 80.912C109.905 80.336 110.513 79.888 111.313 79.568C112.113 79.232 113.089 79.064 114.241 79.064C115.281 79.064 116.193 79.208 116.977 79.496C117.761 79.768 118.401 80.168 118.897 80.696C119.409 81.208 119.753 81.824 119.929 82.544L117.121 83.48C117.057 83.096 116.897 82.76 116.641 82.472C116.401 82.184 116.073 81.968 115.657 81.824C115.257 81.68 114.785 81.608 114.241 81.608C113.553 81.608 113.017 81.72 112.633 81.944C112.265 82.168 112.081 82.464 112.081 82.832C112.081 83.136 112.201 83.384 112.441 83.576C112.697 83.768 113.049 83.928 113.497 84.056C113.945 84.168 114.473 84.288 115.081 84.416C115.721 84.544 116.345 84.696 116.953 84.872C117.561 85.032 118.105 85.248 118.585 85.52C119.081 85.792 119.473 86.152 119.761 86.6C120.049 87.048 120.193 87.624 120.193 88.328C120.193 89.16 119.969 89.88 119.521 90.488C119.073 91.08 118.425 91.536 117.577 91.856C116.729 92.176 115.705 92.336 114.505 92.336Z" fill="white"/>
<path d="M36.608 129V112.728H33.116V108.192C34.244 108.192 35.168 108 35.888 107.616C36.632 107.208 37.112 106.416 37.328 105.24H41.828V129H36.608ZM54.5613 129.504C53.0493 129.504 51.6573 129.228 50.3853 128.676C49.1373 128.124 48.0693 127.332 47.1813 126.3C46.2933 125.244 45.6093 123.96 45.1293 122.448C44.6493 120.912 44.4093 119.172 44.4093 117.228C44.4093 114.492 44.8533 112.2 45.7413 110.352C46.6293 108.504 47.8533 107.112 49.4133 106.176C50.9733 105.24 52.7373 104.772 54.7053 104.772C56.7453 104.772 58.5213 105.252 60.0333 106.212C61.5693 107.172 62.7453 108.576 63.5613 110.424C64.4013 112.248 64.8213 114.48 64.8213 117.12C64.8213 119.112 64.5693 120.888 64.0653 122.448C63.5853 123.984 62.8893 125.28 61.9773 126.336C61.0653 127.368 59.9853 128.16 58.7373 128.712C57.4893 129.24 56.0973 129.504 54.5613 129.504ZM54.6693 125.4C55.2933 125.4 55.8933 125.256 56.4693 124.968C57.0693 124.68 57.6093 124.224 58.0893 123.6C58.5693 122.952 58.9533 122.124 59.2413 121.116C59.5293 120.084 59.6733 118.812 59.6733 117.3C59.6733 115.5 59.4573 113.976 59.0253 112.728C58.5933 111.456 58.0053 110.496 57.2613 109.848C56.5173 109.176 55.6413 108.84 54.6333 108.84C53.8413 108.84 53.0613 109.104 52.2933 109.632C51.5253 110.136 50.8773 110.988 50.3493 112.188C49.8453 113.388 49.5933 115.032 49.5933 117.12C49.5933 118.584 49.7253 119.844 49.9893 120.9C50.2773 121.932 50.6493 122.784 51.1053 123.456C51.5853 124.104 52.1253 124.596 52.7253 124.932C53.3493 125.244 53.9973 125.4 54.6693 125.4ZM76.7379 129.504C75.2259 129.504 73.8339 129.228 72.5619 128.676C71.3139 128.124 70.2459 127.332 69.3579 126.3C68.4699 125.244 67.7859 123.96 67.3059 122.448C66.8259 120.912 66.5859 119.172 66.5859 117.228C66.5859 114.492 67.0299 112.2 67.9179 110.352C68.8059 108.504 70.0299 107.112 71.5899 106.176C73.1499 105.24 74.9139 104.772 76.8819 104.772C78.9219 104.772 80.6979 105.252 82.2099 106.212C83.7459 107.172 84.9219 108.576 85.7379 110.424C86.5779 112.248 86.9979 114.48 86.9979 117.12C86.9979 119.112 86.7459 120.888 86.2419 122.448C85.7619 123.984 85.0659 125.28 84.1539 126.336C83.2419 127.368 82.1619 128.16 80.9139 128.712C79.6659 129.24 78.2739 129.504 76.7379 129.504ZM76.8459 125.4C77.4699 125.4 78.0699 125.256 78.6459 124.968C79.2459 124.68 79.7859 124.224 80.2659 123.6C80.7459 122.952 81.1299 122.124 81.4179 121.116C81.7059 120.084 81.8499 118.812 81.8499 117.3C81.8499 115.5 81.6339 113.976 81.2019 112.728C80.7699 111.456 80.1819 110.496 79.4379 109.848C78.6939 109.176 77.8179 108.84 76.8099 108.84C76.0179 108.84 75.2379 109.104 74.4699 109.632C73.7019 110.136 73.0539 110.988 72.5259 112.188C72.0219 113.388 71.7699 115.032 71.7699 117.12C71.7699 118.584 71.9019 119.844 72.1659 120.9C72.4539 121.932 72.8259 122.784 73.2819 123.456C73.7619 124.104 74.3019 124.596 74.9019 124.932C75.5259 125.244 76.1739 125.4 76.8459 125.4ZM93.8871 124.788V109.92H98.0631V124.788H93.8871ZM88.5591 119.316V115.356H103.391V119.316H88.5591Z" fill="white"/>
<g clip-path="url(#clip2_210_154)">
<path fill-rule="evenodd" clip-rule="evenodd" d="M260.083 36.637L308.738 64.7238C310.587 65.7916 312.123 67.3275 313.191 69.177C314.259 71.0265 314.821 73.1245 314.821 75.2601V104.74C314.821 106.876 314.259 108.974 313.191 110.823C312.123 112.673 310.587 114.208 308.738 115.276L260.083 143.363C258.234 144.431 256.136 144.993 254 144.993C251.864 144.993 249.766 144.431 247.917 143.363L199.262 115.276C197.413 114.208 195.877 112.673 194.809 110.823C193.741 108.974 193.179 106.876 193.179 104.74V75.2601C193.179 73.1245 193.741 71.0265 194.809 69.177C195.877 67.3275 197.413 65.7916 199.262 64.7238L247.917 36.637C249.766 35.5692 251.864 35.007 254 35.007C256.136 35.007 258.234 35.5692 260.083 36.637ZM230.871 97.0263L211.429 108.25L247.917 129.317V106.869L230.871 97.0263ZM277.129 97.0263L260.083 106.863V129.311L296.571 108.25L277.129 97.0263ZM205.346 82.2864V97.7137L218.705 90L205.346 82.2864ZM302.655 82.2864L289.296 90L302.655 97.7137V82.2864ZM254 83.6734L243.038 90L254 96.3267L264.962 90L254 83.6734ZM247.917 50.6835L211.429 71.75L230.871 82.9738L247.917 73.137V50.6835ZM260.083 50.6835V73.131L277.129 82.9738L296.571 71.75L260.083 50.6835Z" fill="#4ECFFF"/>
</g>
</g>
<defs>
<clipPath id="clip0_210_154">
<rect width="252" height="161" rx="24" fill="white"/>
</clipPath>
<clipPath id="clip1_210_154">
<rect width="28" height="28" fill="white" transform="translate(32 23)"/>
</clipPath>
<clipPath id="clip2_210_154">
<rect width="146" height="146" fill="white" transform="translate(181 17)"/>
</clipPath>
</defs>
</svg>
