<svg width="252" height="161" viewBox="0 0 252 161" fill="none" xmlns="http://www.w3.org/2000/svg">
<g clip-path="url(#clip0_210_152)">
<rect width="252" height="161" rx="24" fill="#F85B19"/>
<g clip-path="url(#clip1_210_152)">
<path fill-rule="evenodd" clip-rule="evenodd" d="M54.2483 37.0117C54.4002 37.0331 54.5464 37.0843 54.6785 37.1623C54.8105 37.2404 54.9259 37.3437 55.0181 37.4663C55.1102 37.589 55.1772 37.7286 55.2153 37.8772C55.2533 38.0258 55.2617 38.1805 55.24 38.3323C54.9476 40.3554 53.9994 42.2266 52.541 43.6588C51.0827 45.091 49.1946 46.0052 47.1667 46.261V47.5C47.1667 47.8094 47.0437 48.1062 46.8249 48.325C46.6062 48.5437 46.3094 48.6667 46 48.6667C45.6906 48.6667 45.3938 48.5437 45.175 48.325C44.9562 48.1062 44.8333 47.8094 44.8333 47.5V46.261C42.8056 46.0048 40.918 45.0904 39.4598 43.6583C38.0017 42.2261 37.0537 40.3551 36.7612 38.3323C36.7172 38.026 36.7968 37.7148 36.9823 37.4671C37.1678 37.2194 37.4442 37.0556 37.7505 37.0117C38.0568 36.9677 38.368 37.0473 38.6157 37.2328C38.8634 37.4183 39.0272 37.6947 39.0712 38.001C39.3142 39.6651 40.1481 41.1862 41.4203 42.2862C42.6925 43.3861 44.3182 43.9914 46 43.9914C47.6818 43.9914 49.3074 43.3861 50.5797 42.2862C51.8519 41.1862 52.6858 39.6651 52.9288 38.001C52.9506 37.8493 53.002 37.7034 53.0801 37.5716C53.1582 37.4398 53.2616 37.3246 53.3842 37.2328C53.5069 37.1409 53.6464 37.0741 53.7949 37.0361C53.9433 36.9982 54.0966 36.9899 54.2483 37.0117ZM46 25.3333C47.5471 25.3333 49.0308 25.9479 50.1248 27.0419C51.2187 28.1358 51.8333 29.6196 51.8333 31.1667V37C51.8333 38.5471 51.2187 40.0308 50.1248 41.1248C49.0308 42.2187 47.5471 42.8333 46 42.8333C44.4529 42.8333 42.9692 42.2187 41.8752 41.1248C40.7812 40.0308 40.1667 38.5471 40.1667 37V31.1667C40.1667 29.6196 40.7812 28.1358 41.8752 27.0419C42.9692 25.9479 44.4529 25.3333 46 25.3333ZM46 27.6667C45.0717 27.6667 44.1815 28.0354 43.5251 28.6918C42.8687 29.3482 42.5 30.2384 42.5 31.1667V37C42.5 37.9283 42.8687 38.8185 43.5251 39.4749C44.1815 40.1312 45.0717 40.5 46 40.5C46.9282 40.5 47.8185 40.1312 48.4749 39.4749C49.1312 38.8185 49.5 37.9283 49.5 37V31.1667C49.5 30.2384 49.1312 29.3482 48.4749 28.6918C47.8185 28.0354 46.9282 27.6667 46 27.6667Z" fill="white"/>
</g>
<path d="M39.872 92.336C38.832 92.336 37.896 92.232 37.064 92.024C36.248 91.832 35.544 91.536 34.952 91.136C34.376 90.72 33.92 90.208 33.584 89.6C33.264 88.976 33.08 88.264 33.032 87.464L36.056 86.48C36.088 87.2 36.264 87.8 36.584 88.28C36.92 88.76 37.392 89.112 38 89.336C38.608 89.56 39.288 89.672 40.04 89.672C40.76 89.672 41.368 89.584 41.864 89.408C42.36 89.232 42.736 89 42.992 88.712C43.248 88.408 43.376 88.08 43.376 87.728C43.376 87.312 43.216 86.976 42.896 86.72C42.576 86.464 42.136 86.248 41.576 86.072C41.032 85.896 40.408 85.728 39.704 85.568C38.92 85.392 38.144 85.192 37.376 84.968C36.624 84.744 35.936 84.456 35.312 84.104C34.704 83.752 34.216 83.296 33.848 82.736C33.496 82.176 33.32 81.472 33.32 80.624C33.32 79.648 33.56 78.808 34.04 78.104C34.536 77.384 35.256 76.824 36.2 76.424C37.144 76.024 38.28 75.824 39.608 75.824C40.952 75.824 42.096 76.024 43.04 76.424C44 76.808 44.744 77.36 45.272 78.08C45.8 78.784 46.088 79.624 46.136 80.6L43.016 81.464C43.016 80.968 42.936 80.536 42.776 80.168C42.616 79.8 42.392 79.496 42.104 79.256C41.816 79 41.456 78.808 41.024 78.68C40.608 78.552 40.128 78.488 39.584 78.488C38.96 78.488 38.416 78.568 37.952 78.728C37.504 78.888 37.16 79.104 36.92 79.376C36.696 79.648 36.584 79.968 36.584 80.336C36.584 80.768 36.76 81.128 37.112 81.416C37.48 81.688 37.96 81.912 38.552 82.088C39.16 82.264 39.824 82.432 40.544 82.592C41.232 82.736 41.928 82.92 42.632 83.144C43.352 83.352 44.016 83.632 44.624 83.984C45.248 84.32 45.744 84.784 46.112 85.376C46.496 85.952 46.688 86.68 46.688 87.56C46.688 88.52 46.432 89.36 45.92 90.08C45.408 90.8 44.64 91.36 43.616 91.76C42.608 92.144 41.36 92.336 39.872 92.336ZM48.0403 96.032V85.808V79.4H50.8963L50.9203 82.904L51.3523 82.928C51.4963 82.08 51.7443 81.368 52.0963 80.792C52.4643 80.216 52.9363 79.784 53.5123 79.496C54.0883 79.208 54.7523 79.064 55.5043 79.064C56.6243 79.064 57.5843 79.344 58.3843 79.904C59.1843 80.448 59.7923 81.224 60.2083 82.232C60.6403 83.224 60.8563 84.4 60.8563 85.76C60.8563 87.024 60.6643 88.152 60.2803 89.144C59.8963 90.12 59.3203 90.896 58.5523 91.472C57.8003 92.048 56.8563 92.336 55.7203 92.336C54.9203 92.336 54.2403 92.184 53.6803 91.88C53.1363 91.576 52.6803 91.152 52.3123 90.608C51.9603 90.048 51.6643 89.384 51.4243 88.616H50.9683C51.0643 89.048 51.1523 89.488 51.2323 89.936C51.3123 90.384 51.3763 90.824 51.4243 91.256C51.4723 91.672 51.4963 92.08 51.4963 92.48V96.032H48.0403ZM54.5203 89.576C55.0963 89.576 55.5843 89.416 55.9843 89.096C56.3843 88.776 56.6883 88.328 56.8963 87.752C57.1203 87.176 57.2323 86.52 57.2323 85.784C57.2323 84.984 57.1203 84.304 56.8963 83.744C56.6723 83.168 56.3523 82.72 55.9363 82.4C55.5203 82.08 55.0243 81.92 54.4483 81.92C53.9363 81.92 53.4963 82.032 53.1283 82.256C52.7603 82.48 52.4483 82.776 52.1923 83.144C51.9523 83.512 51.7763 83.912 51.6643 84.344C51.5523 84.76 51.4963 85.16 51.4963 85.544V86C51.4963 86.304 51.5363 86.624 51.6163 86.96C51.6963 87.28 51.8243 87.6 52.0003 87.92C52.1763 88.224 52.3843 88.504 52.6243 88.76C52.8643 89 53.1443 89.2 53.4643 89.36C53.7843 89.504 54.1363 89.576 54.5203 89.576ZM68.0478 92.336C67.0078 92.336 66.0798 92.192 65.2638 91.904C64.4638 91.616 63.7838 91.2 63.2238 90.656C62.6638 90.112 62.2318 89.44 61.9278 88.64C61.6398 87.84 61.4958 86.936 61.4958 85.928C61.4958 84.936 61.6318 84.024 61.9038 83.192C62.1918 82.344 62.6078 81.616 63.1518 81.008C63.6958 80.384 64.3598 79.904 65.1438 79.568C65.9278 79.232 66.8158 79.064 67.8078 79.064C68.7678 79.064 69.6238 79.224 70.3758 79.544C71.1278 79.848 71.7518 80.312 72.2478 80.936C72.7598 81.56 73.1278 82.328 73.3518 83.24C73.5918 84.136 73.6798 85.168 73.6158 86.336L63.7278 86.432V84.536L71.6238 84.464L70.3998 85.424C70.5118 84.576 70.4558 83.88 70.2318 83.336C70.0078 82.792 69.6798 82.392 69.2478 82.136C68.8318 81.88 68.3678 81.752 67.8558 81.752C67.2478 81.752 66.7118 81.912 66.2478 82.232C65.7838 82.552 65.4238 83.024 65.1678 83.648C64.9118 84.256 64.7838 84.992 64.7838 85.856C64.7838 87.216 65.0798 88.216 65.6718 88.856C66.2798 89.496 67.0718 89.816 68.0478 89.816C68.4958 89.816 68.8718 89.76 69.1758 89.648C69.4958 89.52 69.7518 89.36 69.9438 89.168C70.1518 88.976 70.3118 88.76 70.4238 88.52C70.5518 88.28 70.6558 88.04 70.7358 87.8L73.7358 88.448C73.5918 89.04 73.3758 89.576 73.0878 90.056C72.8158 90.52 72.4478 90.928 71.9838 91.28C71.5198 91.616 70.9598 91.872 70.3038 92.048C69.6638 92.24 68.9118 92.336 68.0478 92.336ZM77.9126 92.336C77.2086 92.336 76.5846 92.2 76.0406 91.928C75.4966 91.64 75.0726 91.232 74.7686 90.704C74.4646 90.176 74.3126 89.52 74.3126 88.736C74.3126 88.048 74.4406 87.472 74.6966 87.008C74.9686 86.544 75.3606 86.168 75.8726 85.88C76.3846 85.592 77.0166 85.352 77.7686 85.16C78.5206 84.968 79.3766 84.8 80.3366 84.656C80.8486 84.576 81.2646 84.504 81.5846 84.44C81.9206 84.36 82.1686 84.24 82.3286 84.08C82.4886 83.904 82.5686 83.656 82.5686 83.336C82.5686 82.888 82.4086 82.504 82.0886 82.184C81.7686 81.864 81.2646 81.704 80.5766 81.704C80.1126 81.704 79.6806 81.784 79.2806 81.944C78.8966 82.104 78.5606 82.344 78.2726 82.664C78.0006 82.984 77.8006 83.392 77.6726 83.888L74.6246 82.952C74.8166 82.296 75.0886 81.728 75.4406 81.248C75.8086 80.768 76.2486 80.368 76.7606 80.048C77.2726 79.712 77.8566 79.464 78.5126 79.304C79.1686 79.144 79.8806 79.064 80.6486 79.064C81.8806 79.064 82.8806 79.264 83.6486 79.664C84.4326 80.048 85.0166 80.656 85.4006 81.488C85.7846 82.304 85.9766 83.36 85.9766 84.656V86.816C85.9766 87.376 85.9846 87.944 86.0006 88.52C86.0326 89.096 86.0646 89.68 86.0966 90.272C86.1446 90.848 86.1926 91.424 86.2406 92H83.1926C83.1286 91.6 83.0646 91.144 83.0006 90.632C82.9526 90.104 82.9126 89.576 82.8806 89.048H82.4486C82.2246 89.656 81.9046 90.208 81.4886 90.704C81.0726 91.2 80.5606 91.6 79.9526 91.904C79.3606 92.192 78.6806 92.336 77.9126 92.336ZM79.3766 89.84C79.6806 89.84 79.9846 89.784 80.2886 89.672C80.6086 89.56 80.9126 89.408 81.2006 89.216C81.5046 89.008 81.7766 88.752 82.0166 88.448C82.2726 88.144 82.4806 87.8 82.6406 87.416L82.5926 85.4L83.1446 85.52C82.8566 85.728 82.5206 85.896 82.1366 86.024C81.7526 86.136 81.3526 86.224 80.9366 86.288C80.5366 86.352 80.1366 86.424 79.7366 86.504C79.3366 86.584 78.9766 86.688 78.6566 86.816C78.3526 86.944 78.1046 87.12 77.9126 87.344C77.7366 87.552 77.6486 87.848 77.6486 88.232C77.6486 88.728 77.8086 89.12 78.1286 89.408C78.4486 89.696 78.8646 89.84 79.3766 89.84ZM87.7996 92V74.84H91.2076V84.368C91.7036 84.032 92.1756 83.672 92.6236 83.288C93.0876 82.888 93.5036 82.472 93.8716 82.04C94.2556 81.608 94.5916 81.168 94.8796 80.72C95.1836 80.272 95.4396 79.832 95.6476 79.4H99.6076C99.3676 80.008 99.0476 80.624 98.6476 81.248C98.2636 81.856 97.7996 82.424 97.2556 82.952C96.7276 83.464 96.1116 83.904 95.4076 84.272C94.7036 84.64 93.9276 84.888 93.0796 85.016V85.424C94.1516 85.232 95.0396 85.248 95.7436 85.472C96.4476 85.696 97.0236 86.056 97.4716 86.552C97.9356 87.032 98.3036 87.592 98.5756 88.232C98.8476 88.856 99.0956 89.488 99.3196 90.128L99.8716 92H96.1036L95.7916 90.824C95.5676 90.04 95.3196 89.352 95.0476 88.76C94.7756 88.168 94.4156 87.712 93.9676 87.392C93.5356 87.056 92.9356 86.888 92.1676 86.888H91.2076V92H87.7996ZM106.354 92.336C105.314 92.336 104.386 92.192 103.57 91.904C102.77 91.616 102.09 91.2 101.53 90.656C100.97 90.112 100.538 89.44 100.234 88.64C99.9461 87.84 99.8021 86.936 99.8021 85.928C99.8021 84.936 99.9381 84.024 100.21 83.192C100.498 82.344 100.914 81.616 101.458 81.008C102.002 80.384 102.666 79.904 103.45 79.568C104.234 79.232 105.122 79.064 106.114 79.064C107.074 79.064 107.93 79.224 108.682 79.544C109.434 79.848 110.058 80.312 110.554 80.936C111.066 81.56 111.434 82.328 111.658 83.24C111.898 84.136 111.986 85.168 111.922 86.336L102.034 86.432V84.536L109.93 84.464L108.706 85.424C108.818 84.576 108.762 83.88 108.538 83.336C108.314 82.792 107.986 82.392 107.554 82.136C107.138 81.88 106.674 81.752 106.162 81.752C105.554 81.752 105.018 81.912 104.554 82.232C104.09 82.552 103.73 83.024 103.474 83.648C103.218 84.256 103.09 84.992 103.09 85.856C103.09 87.216 103.386 88.216 103.978 88.856C104.586 89.496 105.378 89.816 106.354 89.816C106.802 89.816 107.178 89.76 107.482 89.648C107.802 89.52 108.058 89.36 108.25 89.168C108.458 88.976 108.618 88.76 108.73 88.52C108.858 88.28 108.962 88.04 109.042 87.8L112.042 88.448C111.898 89.04 111.682 89.576 111.394 90.056C111.122 90.52 110.754 90.928 110.29 91.28C109.826 91.616 109.266 91.872 108.61 92.048C107.97 92.24 107.218 92.336 106.354 92.336ZM113.243 92V85.904V79.4H116.099L116.123 83.696H116.579C116.707 82.624 116.923 81.752 117.227 81.08C117.547 80.408 117.987 79.912 118.547 79.592C119.107 79.272 119.803 79.112 120.635 79.112C120.779 79.112 120.931 79.12 121.091 79.136C121.267 79.136 121.467 79.16 121.691 79.208L121.547 82.88C121.307 82.768 121.043 82.688 120.755 82.64C120.467 82.592 120.211 82.568 119.987 82.568C119.363 82.568 118.827 82.712 118.379 83C117.931 83.288 117.563 83.704 117.275 84.248C117.003 84.776 116.819 85.424 116.723 86.192V92H113.243ZM127.466 92.336C126.618 92.336 125.85 92.256 125.162 92.096C124.474 91.936 123.882 91.704 123.386 91.4C122.89 91.096 122.49 90.736 122.186 90.32C121.882 89.888 121.682 89.408 121.586 88.88L124.226 87.8C124.29 88.152 124.466 88.48 124.754 88.784C125.042 89.088 125.426 89.336 125.906 89.528C126.402 89.704 126.994 89.792 127.682 89.792C128.418 89.792 128.986 89.688 129.386 89.48C129.786 89.256 129.986 88.944 129.986 88.544C129.986 88.24 129.874 88 129.65 87.824C129.426 87.648 129.098 87.496 128.666 87.368C128.234 87.24 127.714 87.12 127.106 87.008C126.514 86.864 125.906 86.712 125.282 86.552C124.674 86.392 124.106 86.168 123.578 85.88C123.066 85.592 122.642 85.216 122.306 84.752C121.986 84.272 121.826 83.664 121.826 82.928C121.826 82.16 122.034 81.488 122.45 80.912C122.866 80.336 123.474 79.888 124.274 79.568C125.074 79.232 126.05 79.064 127.202 79.064C128.242 79.064 129.154 79.208 129.938 79.496C130.722 79.768 131.362 80.168 131.858 80.696C132.37 81.208 132.714 81.824 132.89 82.544L130.082 83.48C130.018 83.096 129.858 82.76 129.602 82.472C129.362 82.184 129.034 81.968 128.618 81.824C128.218 81.68 127.746 81.608 127.202 81.608C126.514 81.608 125.978 81.72 125.594 81.944C125.226 82.168 125.042 82.464 125.042 82.832C125.042 83.136 125.162 83.384 125.402 83.576C125.658 83.768 126.01 83.928 126.458 84.056C126.906 84.168 127.434 84.288 128.042 84.416C128.682 84.544 129.306 84.696 129.914 84.872C130.522 85.032 131.066 85.248 131.546 85.52C132.042 85.792 132.434 86.152 132.722 86.6C133.01 87.048 133.154 87.624 133.154 88.328C133.154 89.16 132.93 89.88 132.482 90.488C132.034 91.08 131.386 91.536 130.538 91.856C129.69 92.176 128.666 92.336 127.466 92.336Z" fill="white"/>
<path d="M42.8 129.504C41 129.504 39.416 129.24 38.048 128.712C36.68 128.184 35.612 127.44 34.844 126.48C34.1 125.496 33.716 124.32 33.692 122.952L38.588 121.98C38.732 123.108 39.188 123.96 39.956 124.536C40.724 125.088 41.672 125.364 42.8 125.364C44.12 125.364 45.14 125.004 45.86 124.284C46.58 123.54 46.94 122.424 46.94 120.936C46.94 120.264 46.868 119.652 46.724 119.1C46.58 118.548 46.352 118.08 46.04 117.696C45.752 117.288 45.368 116.976 44.888 116.76C44.408 116.544 43.832 116.436 43.16 116.436C42.704 116.436 42.284 116.496 41.9 116.616C41.54 116.736 41.204 116.904 40.892 117.12C40.58 117.312 40.292 117.564 40.028 117.876C39.764 118.188 39.524 118.56 39.308 118.992H34.124L34.988 105.24H51.224V109.56H39.308L38.768 116.328H39.2C39.704 115.104 40.496 114.192 41.576 113.592C42.68 112.992 43.892 112.692 45.212 112.692C46.772 112.692 48.068 113.028 49.1 113.7C50.156 114.372 50.948 115.32 51.476 116.544C52.004 117.744 52.268 119.172 52.268 120.828C52.268 122.844 51.872 124.5 51.08 125.796C50.288 127.068 49.172 128.004 47.732 128.604C46.316 129.204 44.672 129.504 42.8 129.504ZM64.0183 129.504C62.5063 129.504 61.1143 129.228 59.8423 128.676C58.5943 128.124 57.5263 127.332 56.6383 126.3C55.7503 125.244 55.0663 123.96 54.5863 122.448C54.1063 120.912 53.8663 119.172 53.8663 117.228C53.8663 114.492 54.3103 112.2 55.1983 110.352C56.0863 108.504 57.3103 107.112 58.8703 106.176C60.4303 105.24 62.1943 104.772 64.1623 104.772C66.2023 104.772 67.9783 105.252 69.4903 106.212C71.0264 107.172 72.2024 108.576 73.0184 110.424C73.8584 112.248 74.2784 114.48 74.2784 117.12C74.2784 119.112 74.0264 120.888 73.5224 122.448C73.0424 123.984 72.3464 125.28 71.4343 126.336C70.5223 127.368 69.4423 128.16 68.1943 128.712C66.9463 129.24 65.5543 129.504 64.0183 129.504ZM64.1263 125.4C64.7503 125.4 65.3503 125.256 65.9263 124.968C66.5263 124.68 67.0663 124.224 67.5463 123.6C68.0263 122.952 68.4103 122.124 68.6983 121.116C68.9863 120.084 69.1303 118.812 69.1303 117.3C69.1303 115.5 68.9143 113.976 68.4823 112.728C68.0503 111.456 67.4623 110.496 66.7183 109.848C65.9743 109.176 65.0983 108.84 64.0903 108.84C63.2983 108.84 62.5183 109.104 61.7503 109.632C60.9823 110.136 60.3343 110.988 59.8063 112.188C59.3023 113.388 59.0503 115.032 59.0503 117.12C59.0503 118.584 59.1823 119.844 59.4463 120.9C59.7343 121.932 60.1063 122.784 60.5623 123.456C61.0423 124.104 61.5823 124.596 62.1823 124.932C62.8063 125.244 63.4543 125.4 64.1263 125.4ZM81.1676 124.788V109.92H85.3436V124.788H81.1676ZM75.8396 119.316V115.356H90.6716V119.316H75.8396Z" fill="white"/>
<g clip-path="url(#clip2_210_152)">
<path fill-rule="evenodd" clip-rule="evenodd" d="M272.009 88.0608C272.801 88.1727 273.563 88.4397 274.252 88.8465C274.941 89.2533 275.542 89.792 276.023 90.4316C276.503 91.0712 276.852 91.7993 277.051 92.5741C277.25 93.349 277.293 94.1554 277.18 94.9472C275.655 105.496 270.711 115.253 263.107 122.721C255.503 130.189 245.658 134.956 235.083 136.289V142.75C235.083 144.363 234.442 145.911 233.302 147.052C232.161 148.192 230.613 148.833 229 148.833C227.387 148.833 225.839 148.192 224.698 147.052C223.558 145.911 222.917 144.363 222.917 142.75V136.289C212.344 134.953 202.501 130.186 194.898 122.718C187.295 115.25 182.352 105.495 180.826 94.9472C180.597 93.3499 181.012 91.727 181.979 90.4356C182.947 89.1442 184.387 88.2899 185.985 88.0608C187.582 87.8317 189.205 88.2465 190.496 89.214C191.788 90.1814 192.642 91.6222 192.871 93.2195C194.138 101.897 198.486 109.828 205.12 115.564C211.754 121.299 220.231 124.455 229 124.455C237.769 124.455 246.246 121.299 252.88 115.564C259.514 109.828 263.862 101.897 265.129 93.2195C265.242 92.4286 265.51 91.6677 265.918 90.9804C266.325 90.2931 266.864 89.6927 267.503 89.2137C268.143 88.7347 268.871 88.3863 269.645 88.1885C270.419 87.9907 271.218 87.9473 272.009 88.0608ZM229 27.1667C237.067 27.1667 244.804 30.3713 250.508 36.0755C256.212 41.7797 259.417 49.5163 259.417 57.5833V88C259.417 96.067 256.212 103.804 250.508 109.508C244.804 115.212 237.067 118.417 229 118.417C220.933 118.417 213.196 115.212 207.492 109.508C201.788 103.804 198.583 96.067 198.583 88V57.5833C198.583 49.5163 201.788 41.7797 207.492 36.0755C213.196 30.3713 220.933 27.1667 229 27.1667ZM229 39.3333C224.16 39.3333 219.518 41.2561 216.095 44.6786C212.673 48.1012 210.75 52.7431 210.75 57.5833V88C210.75 92.8402 212.673 97.4822 216.095 100.905C219.518 104.327 224.16 106.25 229 106.25C233.84 106.25 238.482 104.327 241.905 100.905C245.327 97.4822 247.25 92.8402 247.25 88V57.5833C247.25 52.7431 245.327 48.1012 241.905 44.6786C238.482 41.2561 233.84 39.3333 229 39.3333Z" fill="#FF763D"/>
</g>
</g>
<defs>
<clipPath id="clip0_210_152">
<rect width="252" height="161" rx="24" fill="white"/>
</clipPath>
<clipPath id="clip1_210_152">
<rect width="28" height="28" fill="white" transform="translate(32 23)"/>
</clipPath>
<clipPath id="clip2_210_152">
<rect width="146" height="146" fill="white" transform="translate(156 15)"/>
</clipPath>
</defs>
</svg>
