<svg width="210" height="85" viewBox="0 0 210 85" fill="none" xmlns="http://www.w3.org/2000/svg">
<path d="M95.0364 65.9977C95.0364 75.4007 84.3788 83.0234 71.232 83.0234C58.0853 83.0234 47.4277 75.4007 47.4277 65.9977C47.4277 56.5947 58.0853 48.9721 71.232 48.9721C84.3788 48.9721 95.0364 56.5947 95.0364 65.9977Z" fill="white"/>
<path d="M66.4765 63.0765C65.6815 63.411 65.0581 63.7726 64.5883 64.1522C64.1185 64.5409 63.7842 64.9387 63.5764 65.3454C63.3686 65.7522 63.2602 66.1409 63.2602 66.5205C63.2602 67.0177 63.4499 67.4697 63.8384 67.8855C64.2269 68.3013 64.8684 68.5996 65.7718 68.7894C66.6753 68.9793 67.8769 68.9883 69.3766 68.7894C70.253 68.681 71.03 68.5183 71.7076 68.3013C72.3761 68.0844 72.9543 67.8403 73.4332 67.5601C73.912 67.2799 74.3095 66.9635 74.6167 66.62C74.9329 66.2765 75.1497 65.924 75.2852 65.5805C75.4208 65.2279 75.484 64.8844 75.484 64.5409C75.484 64.1432 75.3756 63.7636 75.1588 63.402C74.9419 63.0404 74.6077 62.7331 74.1469 62.489C73.6861 62.245 73.0627 62.0913 72.2677 62.028C71.4817 61.9647 70.515 62.0461 69.3676 62.263C68.2292 62.48 67.2625 62.7511 66.4675 63.0856L66.4765 63.0765Z" fill="#631FDA"/>
<path d="M39.9509 8.84046C39.9509 16.3522 39.9509 19.9499 39.96 26.8469C35.5962 26.8921 33.437 26.874 29.1998 26.6932C29.1727 26.7293 29.1455 26.7474 29.1365 26.7474C29.1184 26.7474 29.1184 26.7655 29.1184 26.8017C29.1184 28.4197 29.1184 30.0378 29.1184 31.6468C29.1184 33.2558 29.1184 34.8467 29.1184 36.4195C29.1184 37.9924 29.1184 39.5562 29.1184 41.0929C29.1184 42.6386 29.1184 44.1663 29.1184 45.6758C29.1184 47.1854 29.1184 48.6679 29.1184 50.1322C21.8185 49.4362 18.2589 48.7221 11.3022 46.1911C11.3022 43.8951 11.3022 41.5901 11.3022 39.2579C11.3022 36.9258 11.3022 34.5846 11.3022 32.2163C11.3022 29.848 11.3022 27.4706 11.3022 25.0661C11.3022 25.03 11.3022 25.0119 11.2842 24.9938C11.2661 24.9757 11.248 24.9667 11.2209 24.9576C7.18246 24.3159 5.18581 23.9181 1.2648 22.9599C1.2648 17.8708 1.25576 15.3217 1.24673 10.2145C14.1572 9.90712 27.0676 9.43706 39.969 8.84046H39.9509Z" fill="white"/>
<path d="M81.754 19.0369C72.9724 20.6459 68.699 21.4414 60.3872 22.7701C60.3691 22.7701 60.3601 22.7701 60.3421 22.7701C60.3421 24.0176 60.3421 24.6322 60.3421 25.8435C60.3421 25.8797 60.3421 25.9158 60.3421 25.952C60.3601 25.952 60.3691 25.952 60.3872 25.952C68.419 24.5418 72.5297 23.7102 80.9951 21.9927C80.9951 24.7768 80.9951 26.1508 80.9951 28.8898C72.5297 30.9326 68.419 31.918 60.3872 33.536C60.3511 33.536 60.3421 33.5541 60.3421 33.5722C60.3421 33.5903 60.3421 33.6174 60.3421 33.6535C60.3421 34.8196 60.3421 35.3981 60.3421 36.5371C60.3601 36.5371 60.3691 36.5371 60.3872 36.528C68.8165 34.7834 73.1441 33.6897 82.0522 31.4298C82.0522 36.058 82.0522 38.345 82.0522 42.8375C68.6177 46.4171 55.4182 49.6893 41.4598 50.4396C41.4598 48.5052 41.4598 46.5346 41.4598 44.5007C41.4598 42.4759 41.4598 40.415 41.4598 38.3179C41.4598 36.2298 41.4598 34.0874 41.4598 31.8999C41.4598 29.7124 41.4598 27.4797 41.4598 25.2108C41.4598 22.9419 41.4598 20.6369 41.4598 18.3047C41.4598 16.759 41.4598 15.1951 41.4598 13.5952C41.4598 11.9952 41.4598 10.3952 41.4598 8.77719C54.9123 8.15347 68.3377 7.29477 81.7721 6.38179C81.7721 11.5252 81.7721 14.0562 81.7721 19.0369H81.754Z" fill="white"/>
<path d="M112.11 36.0489C109.246 36.7631 106.626 37.2873 104.241 37.6127C101.856 37.9382 99.6786 38.0918 97.7 38.0466C95.7215 38.0104 93.9688 37.7935 92.4329 37.3867C90.897 36.98 89.5418 36.4105 88.3854 35.6783C87.2199 34.9461 86.2623 34.0422 85.4943 32.9755C84.7264 31.9089 84.1662 30.6886 83.7868 29.3146C83.4164 27.9406 83.2266 26.4311 83.2266 24.7949C83.2266 22.1193 83.6784 19.5973 84.5999 17.3013C85.5124 15.0053 86.8134 12.9715 88.5119 11.254C90.2104 9.53652 92.2341 8.09926 94.6193 6.96031C97.0044 5.82135 99.6515 4.98067 102.597 4.40215C105.542 3.82363 108.713 3.48012 112.119 3.30837C118.145 3.00103 123.394 3.09143 127.767 3.59764C132.14 4.11288 135.663 5.0078 138.265 6.39082C140.876 7.77384 142.521 9.60879 143.189 11.9952C135.194 13.0709 126.584 14.246 118.977 17.0753C118.977 16.4787 118.796 16.0087 118.425 15.6562C118.055 15.3036 117.558 15.0596 116.935 14.9149C116.311 14.7703 115.589 14.7161 114.766 14.7341C113.944 14.7522 113.059 14.8516 112.119 15.0234C110.809 15.2584 109.653 15.6019 108.65 16.0448C107.638 16.4878 106.843 17.0301 106.256 17.6538C105.669 18.2866 105.37 18.9917 105.37 19.7781C105.37 20.2572 105.479 20.673 105.696 21.0165C105.912 21.369 106.211 21.6402 106.608 21.8481C107.006 22.056 107.475 22.1916 108.036 22.2458C108.596 22.3001 109.21 22.3001 109.897 22.2458C110.583 22.1916 111.324 22.065 112.119 21.8933C114.044 21.4594 115.67 20.8086 116.989 19.9499C118.308 19.0911 118.977 18.1329 118.977 17.0663C126.819 15.62 135.248 15.8188 143.18 15.9092C142.747 17.7171 141.798 19.525 140.343 21.3509C138.889 23.1769 136.874 24.9486 134.326 26.7113C131.779 28.4739 128.644 30.1372 124.957 31.7823C121.271 33.4275 116.971 34.8286 112.101 36.0399L112.11 36.0489Z" fill="white"/>
<path d="M179.057 0.940073C188.136 0.596578 197.207 0.28022 206.287 0C206.287 2.10617 206.287 4.21233 206.278 6.3185C206.278 8.42467 206.278 10.5399 206.269 12.6551C206.269 14.7703 206.269 16.9036 206.26 19.0549C206.26 22.1554 206.251 25.265 206.242 28.4107C206.242 31.5564 206.233 34.7021 206.224 37.8568C197.487 34.214 188.353 31.5473 179.02 29.9926C179.02 28.2751 179.02 26.5848 179.02 24.9215C179.02 23.2492 179.02 21.604 179.02 19.986C179.02 19.9589 179.011 19.9408 178.984 19.9227C178.966 19.9046 178.93 19.8956 178.885 19.8956C175.398 19.4889 173.672 19.3261 170.257 19.0911C170.212 19.0911 170.194 19.0911 170.194 19.1092C170.194 19.1182 170.194 19.1454 170.194 19.1634C170.194 20.7182 170.194 22.3091 170.194 23.9181C170.194 25.5361 170.194 27.1813 170.194 28.8536C161.99 28.022 153.254 28.0672 145.05 28.8717C145.05 27.1633 145.05 25.5091 145.05 23.891C145.05 22.282 145.05 20.7182 145.05 19.1996C145.05 17.681 145.05 16.2166 145.05 14.7974C145.05 13.3782 145.05 12.0043 145.05 10.6755C145.05 9.34669 145.05 8.07215 145.05 6.8428C145.05 6.06541 145.05 5.3061 145.05 4.57391C145.05 3.84172 145.05 3.13662 145.05 2.44963C153.434 2.04286 161.819 1.65421 170.212 1.31072C170.212 2.3412 170.212 3.40782 170.212 4.50158C170.212 5.59534 170.212 6.69813 170.212 7.81901C170.212 8.93989 170.212 10.0789 170.212 11.245C170.212 11.2721 170.212 11.2902 170.212 11.2992C170.212 11.3082 170.23 11.3172 170.275 11.3172C173.69 11.4257 175.425 11.5071 178.912 11.724C178.957 11.724 178.984 11.724 179.011 11.715C179.029 11.7059 179.048 11.6879 179.048 11.6607C179.048 9.81671 179.048 7.99983 179.048 6.21003C179.048 4.42928 179.048 2.67565 179.048 0.95817L179.057 0.940073Z" fill="white"/>
<path d="M24.8271 53.6214C31.5217 54.67 34.9458 54.7965 41.9566 54.5163C41.9566 55.4383 41.9566 56.3513 41.9566 57.2462C41.9566 58.1501 41.9566 59.027 41.9566 59.8947C41.9566 60.7625 41.9566 61.6122 41.9566 62.4528C41.9566 63.2845 41.9566 64.1071 41.9566 64.9116C41.9566 65.7161 41.9566 66.5025 41.9566 67.2889C41.9566 69.2143 41.9566 71.0403 41.9566 72.7577C41.9566 74.4752 41.9566 76.0932 41.9566 77.6119C33.5274 77.2322 29.4347 77.0333 21.4572 76.5995C19.2798 72.4504 18.2047 70.1002 16.0545 64.9749C16.0545 64.9568 16.0545 64.9387 16.0364 64.9387C16.0183 64.9387 16.0093 64.9387 15.9912 64.9387C15.9732 64.9387 15.9732 64.9387 15.9732 64.9658C15.9732 66.8821 15.9732 68.8166 15.9732 70.742C15.9732 72.6764 15.9732 74.5204 15.9732 76.3011C9.44115 75.9215 6.25194 75.7226 0 75.2797C0 73.2458 0 71.2029 0 69.1691C0 67.1352 0 65.0924 0 63.0585C0 61.0247 0 58.9818 0 56.9479C0 54.914 0 52.8711 0 50.8373C0 48.8034 0 46.7605 0 44.7267C7.28188 49.0565 11.0041 50.5119 18.6745 52.4011C21.0958 58.819 22.3064 61.802 24.7638 67.1714C24.7909 67.1714 24.818 67.1714 24.8271 67.1714C24.8451 67.1714 24.8451 67.1714 24.8451 67.1443C24.8451 62.1003 24.8451 59.3975 24.8361 53.6304L24.8271 53.6214Z" fill="white"/>
<path d="M152.558 33.1111C151.673 36.0128 150.787 38.9596 149.893 41.9516C148.998 44.9436 148.104 47.9809 147.219 51.0814C146.333 54.1819 145.439 57.3185 144.562 60.5274C143.677 63.7364 142.801 66.9996 141.924 70.3261C141.048 73.6526 140.163 77.0514 139.268 80.5135C128.499 80.0254 117.721 79.7632 106.942 79.5011C105.614 74.7554 104.295 70.3532 102.958 66.1951C101.63 62.037 100.311 58.1411 99.0191 54.3988C97.7181 50.6565 96.4081 47.095 95.089 43.6058C103.021 41.4002 111.026 39.3211 119.058 37.5404C119.275 38.7607 119.51 39.9901 119.744 41.2375C119.988 42.4849 120.214 43.7595 120.44 45.0702C120.666 46.3809 120.883 47.7187 121.109 49.0836C121.335 50.4486 121.551 51.8316 121.777 53.2508C122.003 54.67 122.229 56.0982 122.473 57.5535C122.717 58.9998 122.943 60.4913 123.169 62.019C123.187 62.019 123.205 62.019 123.223 62.019C123.241 62.019 123.259 62.019 123.277 62.019C123.467 60.6811 123.656 59.3524 123.864 58.0145C124.072 56.6857 124.271 55.375 124.451 54.0914C124.641 52.8078 124.831 51.5333 125.039 50.2497C125.247 48.9752 125.454 47.7097 125.662 46.4713C125.87 45.2238 126.069 44.0126 126.258 42.8194C126.448 41.6262 126.647 40.442 126.855 39.2669C127.062 38.0918 127.261 36.9438 127.451 35.8229C135.654 34.3405 144.237 33.3552 152.576 33.1202L152.558 33.1111Z" fill="white"/>
<path d="M195.834 39.0048C196.62 41.6352 197.406 44.2748 198.174 46.9052C198.942 49.5357 199.719 52.148 200.496 54.7423C201.273 57.3366 202.059 59.9037 202.863 62.4438C203.667 64.9839 204.453 67.4878 205.239 69.9465C206.025 72.4052 206.811 74.8278 207.597 77.187C208.383 79.5554 209.187 81.8784 210 84.1383C200.197 83.5236 190.395 82.9542 180.592 82.4389C180.159 79.8175 179.951 78.5068 179.517 75.9034C179.346 75.8944 179.201 75.8763 179.075 75.8673C178.948 75.8582 178.795 75.8492 178.632 75.8311C175.84 75.6142 174.449 75.5147 171.693 75.3249C171.567 75.3249 171.44 75.3068 171.314 75.2978C171.187 75.2978 171.061 75.2797 170.943 75.2707C170.519 77.883 170.302 79.2118 169.877 81.8875C161.276 81.4717 152.666 81.0649 144.057 80.7033C144.761 77.7836 145.457 74.9181 146.153 72.1069C146.839 69.3047 147.535 66.5387 148.23 63.8178C148.926 61.097 149.622 58.4213 150.317 55.7818C151.013 53.1423 151.709 50.539 152.414 47.9808C153.109 45.4137 153.814 42.8917 154.519 40.3969C155.223 37.902 155.919 35.4523 156.606 33.0388C170.194 33.0659 182.833 35.3348 195.843 39.0048H195.834ZM171.684 70.6425C171.684 70.6425 171.72 70.6425 171.748 70.6425C174.503 70.8595 175.885 70.977 178.686 71.2391C178.731 71.2391 178.749 71.2211 178.749 71.1759C178.415 69.0154 178.108 67.1081 177.837 65.463C177.566 63.8178 177.277 62.0642 176.988 60.2202C176.698 58.3671 176.418 56.6315 176.174 54.9954C175.922 53.3593 175.614 51.5152 175.235 49.4633C175.208 49.4633 175.199 49.4633 175.172 49.4633C174.828 51.4248 174.53 53.1966 174.25 54.7694C173.979 56.3513 173.69 58.0326 173.392 59.8315C173.094 61.6303 172.823 63.3387 172.57 64.9477C172.317 66.5567 172.019 68.4369 171.684 70.5792C171.684 70.6063 171.684 70.6154 171.684 70.6425Z" fill="white"/>
<path d="M68.7713 57.8337L70.6867 61.35C70.9758 61.8834 71.554 62.1997 72.1593 62.1636L76.1526 61.9195C77.824 61.8201 78.4745 64.0619 77.0018 64.8664L73.4874 66.7827C72.9543 67.072 72.6381 67.6505 72.6743 68.2561L72.9182 72.2515C73.0176 73.9238 70.777 74.5746 69.9729 73.1012L68.0576 69.5849C67.7685 69.0516 67.1903 68.7352 66.585 68.7713L62.5917 69.0154C60.9203 69.1148 60.2698 66.8731 61.7424 66.0686L65.2569 64.1522C65.7899 63.863 66.1061 63.2844 66.07 62.6788L65.826 58.6834C65.7267 57.0111 67.9673 56.3603 68.7713 57.8337Z" fill="black"/>
</svg>
