<svg width="107" height="43" viewBox="0 0 107 43" fill="none" xmlns="http://www.w3.org/2000/svg">
<path d="M48.4233 33.6274C48.4233 38.4185 42.993 42.3024 36.2944 42.3024C29.5958 42.3024 24.1655 38.4185 24.1655 33.6274C24.1655 28.8364 29.5958 24.9524 36.2944 24.9524C42.993 24.9524 48.4233 28.8364 48.4233 33.6274Z" fill="black"/>
<path d="M33.8714 32.139C33.4663 32.3094 33.1486 32.4936 32.9093 32.6871C32.6699 32.8851 32.4996 33.0878 32.3937 33.2951C32.2878 33.5023 32.2326 33.7004 32.2326 33.8938C32.2326 34.1471 32.3293 34.3774 32.5272 34.5893C32.7251 34.8011 33.052 34.9531 33.5123 35.0499C33.9726 35.1466 34.5849 35.1512 35.349 35.0499C35.7956 34.9946 36.1915 34.9117 36.5367 34.8011C36.8774 34.6906 37.172 34.5662 37.4159 34.4235C37.6599 34.2807 37.8625 34.1195 38.019 33.9445C38.1801 33.7695 38.2906 33.5898 38.3596 33.4148C38.4287 33.2352 38.4609 33.0602 38.4609 32.8851C38.4609 32.6825 38.4057 32.4891 38.2952 32.3048C38.1847 32.1206 38.0144 31.964 37.7796 31.8396C37.5448 31.7153 37.2272 31.637 36.8221 31.6047C36.4216 31.5725 35.9291 31.614 35.3444 31.7245C34.7644 31.835 34.2719 31.9732 33.8668 32.1436L33.8714 32.139Z" fill="#631FDA"/>
<path d="M20.3559 4.50443C20.3559 8.33182 20.3559 10.1649 20.3605 13.6791C18.1371 13.7022 17.0369 13.6929 14.878 13.6008C14.8642 13.6192 14.8503 13.6284 14.8457 13.6284C14.8365 13.6284 14.8365 13.6377 14.8365 13.6561C14.8365 14.4805 14.8365 15.305 14.8365 16.1248C14.8365 16.9446 14.8365 17.7552 14.8365 18.5566C14.8365 19.358 14.8365 20.1548 14.8365 20.9378C14.8365 21.7254 14.8365 22.5038 14.8365 23.2729C14.8365 24.0421 14.8365 24.7974 14.8365 25.5436C11.117 25.1889 9.30332 24.8251 5.75875 23.5355C5.75875 22.3656 5.75875 21.1911 5.75875 20.0028C5.75875 18.8146 5.75875 17.6217 5.75875 16.415C5.75875 15.2082 5.75875 13.9969 5.75875 12.7718C5.75875 12.7534 5.75876 12.7441 5.74955 12.7349C5.74034 12.7257 5.73114 12.7211 5.71733 12.7165C3.65963 12.3895 2.64229 12.1868 0.644443 11.6986C0.644443 9.10558 0.639842 7.80677 0.635238 5.20451C7.21341 5.04791 13.7916 4.80841 20.3652 4.50443H20.3559Z" fill="black"/>
<path d="M41.6556 9.69975C37.1812 10.5196 35.0038 10.9249 30.7687 11.6019C30.7595 11.6019 30.7549 11.6019 30.7457 11.6019C30.7457 12.2375 30.7457 12.5507 30.7457 13.1679C30.7457 13.1863 30.7457 13.2047 30.7457 13.2231C30.7549 13.2231 30.7595 13.2231 30.7687 13.2231C34.8611 12.5046 36.9556 12.0809 41.2689 11.2058C41.2689 12.6244 41.2689 13.3245 41.2689 14.72C36.9556 15.7609 34.8611 16.263 30.7687 17.0874C30.7503 17.0874 30.7457 17.0966 30.7457 17.1058C30.7457 17.115 30.7457 17.1288 30.7457 17.1473C30.7457 17.7414 30.7457 18.0362 30.7457 18.6165C30.7549 18.6165 30.7595 18.6165 30.7687 18.6119C35.0636 17.723 37.2687 17.1657 41.8075 16.0142C41.8075 18.3724 41.8075 19.5377 41.8075 21.8267C34.9624 23.6506 28.2369 25.3179 21.1247 25.7002C21.1247 24.7145 21.1247 23.7105 21.1247 22.6742C21.1247 21.6425 21.1247 20.5924 21.1247 19.5239C21.1247 18.4599 21.1247 17.3683 21.1247 16.2537C21.1247 15.1392 21.1247 14.0015 21.1247 12.8455C21.1247 11.6894 21.1247 10.515 21.1247 9.32668C21.1247 8.5391 21.1247 7.74229 21.1247 6.92707C21.1247 6.11185 21.1247 5.29662 21.1247 4.47219C27.9791 4.15439 34.8197 3.71686 41.6648 3.25167C41.6648 5.87236 41.6648 7.16197 41.6648 9.69975H41.6556Z" fill="black"/>
<path d="M57.1228 18.3678C55.6636 18.7316 54.3286 18.9988 53.1133 19.1646C51.898 19.3304 50.7886 19.4087 49.7805 19.3857C48.7724 19.3672 47.8793 19.2567 47.0968 19.0494C46.3142 18.8422 45.6237 18.552 45.0345 18.1789C44.4406 17.8059 43.9527 17.3453 43.5614 16.8018C43.1701 16.2583 42.8847 15.6366 42.6914 14.9365C42.5026 14.2364 42.406 13.4673 42.406 12.6336C42.406 11.2703 42.6361 9.9853 43.1057 8.81544C43.5706 7.64557 44.2335 6.60928 45.0989 5.73418C45.9643 4.85908 46.9955 4.12677 48.2108 3.54644C49.4261 2.96611 50.7748 2.53777 52.2755 2.243C53.7762 1.94823 55.392 1.7732 57.1274 1.68569C60.1979 1.5291 62.8724 1.57516 65.1004 1.83308C67.3284 2.09561 69.1237 2.55159 70.4495 3.25628C71.7799 3.96096 72.6177 4.89591 72.9583 6.11183C68.8844 6.65991 64.4974 7.25869 60.6214 8.7003C60.6214 8.39631 60.5293 8.15681 60.3406 7.97719C60.1518 7.79756 59.8986 7.6732 59.581 7.59951C59.2634 7.52582 58.8951 7.49818 58.4762 7.50739C58.0573 7.5166 57.6062 7.56727 57.1274 7.65478C56.4599 7.77453 55.8707 7.94955 55.3598 8.17523C54.8442 8.40091 54.4391 8.67725 54.1399 8.99504C53.8406 9.31745 53.6887 9.67671 53.6887 10.0774C53.6887 10.3215 53.744 10.5334 53.8545 10.7084C53.9649 10.888 54.1168 11.0262 54.3194 11.1321C54.5219 11.2381 54.7613 11.3071 55.0467 11.3348C55.3321 11.3624 55.6452 11.3624 55.995 11.3348C56.3449 11.3071 56.7223 11.2427 57.1274 11.1551C58.1079 10.9341 58.9365 10.6025 59.6086 10.1649C60.2807 9.72738 60.6214 9.23917 60.6214 8.69568C64.6171 7.95876 68.912 8.06008 72.9537 8.10613C72.7328 9.02729 72.2494 9.94845 71.5083 10.8788C70.7671 11.8092 69.7406 12.7119 68.4424 13.61C67.1443 14.5082 65.5469 15.3556 63.6688 16.1939C61.7906 17.0321 59.5994 17.746 57.1182 18.3632L57.1228 18.3678Z" fill="black"/>
<path d="M91.2336 0.47899C95.8599 0.30397 100.482 0.142779 105.108 0C105.108 1.07314 105.108 2.14628 105.103 3.21943C105.103 4.29257 105.103 5.37032 105.099 6.44807C105.099 7.52582 105.099 8.61276 105.094 9.70894C105.094 11.2887 105.09 12.8731 105.085 14.4759C105.085 16.0787 105.08 17.6815 105.076 19.289C100.624 17.4328 95.9704 16.0741 91.2151 15.2819C91.2151 14.4068 91.2151 13.5456 91.2151 12.6981C91.2151 11.846 91.2151 11.0078 91.2151 10.1833C91.2151 10.1695 91.2106 10.1603 91.1967 10.1511C91.1875 10.1419 91.1691 10.1373 91.1461 10.1373C89.3692 9.93004 88.49 9.84713 86.7499 9.72738C86.7269 9.72738 86.7177 9.72739 86.7177 9.7366C86.7177 9.7412 86.7177 9.75502 86.7177 9.76423C86.7177 10.5564 86.7177 11.367 86.7177 12.1868C86.7177 13.0113 86.7177 13.8495 86.7177 14.7016C82.5379 14.2779 78.0864 14.3009 73.9066 14.7108C73.9066 13.8403 73.9066 12.9975 73.9066 12.173C73.9066 11.3532 73.9066 10.5564 73.9066 9.78264C73.9066 9.00887 73.9066 8.26274 73.9066 7.53964C73.9066 6.81653 73.9066 6.11646 73.9066 5.43941C73.9066 4.76236 73.9066 4.11295 73.9066 3.48657C73.9066 3.09047 73.9066 2.70358 73.9066 2.33052C73.9066 1.95745 73.9066 1.59818 73.9066 1.24814C78.1785 1.04089 82.4504 0.842861 86.7269 0.667842C86.7269 1.1929 86.7269 1.73636 86.7269 2.29366C86.7269 2.85096 86.7269 3.41286 86.7269 3.98397C86.7269 4.55509 86.7269 5.13543 86.7269 5.72958C86.7269 5.74339 86.7269 5.7526 86.7269 5.75721C86.7269 5.76181 86.7361 5.7664 86.7591 5.7664C88.4992 5.82167 89.383 5.86313 91.1599 5.97367C91.1829 5.97367 91.1968 5.97366 91.2106 5.96906C91.2198 5.96445 91.229 5.95524 91.229 5.94142C91.229 5.00185 91.229 4.0761 91.229 3.16416C91.229 2.25682 91.229 1.36331 91.229 0.48821L91.2336 0.47899Z" fill="black"/>
<path d="M12.65 27.3214C16.0611 27.8557 17.8057 27.9201 21.3779 27.7774C21.3779 28.2471 21.3779 28.7123 21.3779 29.1683C21.3779 29.6289 21.3779 30.0756 21.3779 30.5178C21.3779 30.9599 21.3779 31.3929 21.3779 31.8212C21.3779 32.2449 21.3779 32.6641 21.3779 33.074C21.3779 33.4839 21.3779 33.8846 21.3779 34.2853C21.3779 35.2663 21.3779 36.1967 21.3779 37.0718C21.3779 37.9469 21.3779 38.7713 21.3779 39.5451C17.083 39.3516 14.9977 39.2503 10.9329 39.0292C9.82353 36.9152 9.27573 35.7177 8.18014 33.1062C8.18014 33.097 8.18013 33.0878 8.17093 33.0878C8.16172 33.0878 8.15712 33.0878 8.14791 33.0878C8.13871 33.0878 8.1387 33.0878 8.1387 33.1016C8.1387 34.078 8.1387 35.0637 8.1387 36.0447C8.1387 37.0303 8.1387 37.9699 8.1387 38.8772C4.81049 38.6838 3.18551 38.5825 0 38.3568C0 37.3205 0 36.2796 0 35.2433C0 34.207 0 33.1661 0 32.1298C0 31.0935 0 30.0526 0 29.0163C0 27.98 0 26.9391 0 25.9028C0 24.8665 0 23.8256 0 22.7893C3.71029 24.9955 5.60687 25.737 9.51511 26.6996C10.7488 29.9697 11.3656 31.4896 12.6178 34.2254C12.6316 34.2254 12.6454 34.2254 12.65 34.2254C12.6592 34.2254 12.6592 34.2254 12.6592 34.2116C12.6592 31.6416 12.6592 30.2645 12.6546 27.326L12.65 27.3214Z" fill="black"/>
<path d="M77.732 16.8709C77.2809 18.3494 76.8297 19.8508 76.374 21.3753C75.9183 22.8998 75.4625 24.4474 75.0114 26.0272C74.5603 27.6069 74.1045 29.2051 73.658 30.8402C73.2069 32.4752 72.7604 34.1379 72.3138 35.8328C71.8673 37.5278 71.4162 39.2595 70.9605 41.0235C65.4733 40.7748 59.9815 40.6413 54.4897 40.5077C53.813 38.0897 53.1409 35.8466 52.4596 33.728C51.783 31.6093 51.1109 29.6243 50.4526 27.7175C49.7897 25.8107 49.1222 23.996 48.4501 22.2182C52.4919 21.0944 56.5704 20.035 60.6628 19.1277C60.7733 19.7495 60.893 20.3759 61.0126 21.0115C61.1369 21.6471 61.252 22.2965 61.3671 22.9643C61.4822 23.6322 61.5927 24.3138 61.7077 25.0093C61.8228 25.7048 61.9333 26.4094 62.0484 27.1325C62.1635 27.8556 62.2786 28.5834 62.4028 29.3249C62.5271 30.0618 62.6422 30.8218 62.7573 31.6001C62.7665 31.6001 62.7757 31.6001 62.7849 31.6001C62.7941 31.6001 62.8033 31.6001 62.8125 31.6001C62.9092 30.9185 63.0059 30.2414 63.1118 29.5598C63.2176 28.8827 63.3189 28.2149 63.411 27.5609C63.5076 26.9069 63.6043 26.2574 63.7102 25.6034C63.8161 24.954 63.922 24.3092 64.0278 23.6782C64.1337 23.0426 64.235 22.4255 64.3316 21.8175C64.4283 21.2095 64.5296 20.6062 64.6355 20.0074C64.7413 19.4087 64.8426 18.8237 64.9393 18.2526C69.1191 17.4973 73.4923 16.9953 77.7412 16.8755L77.732 16.8709Z" fill="black"/>
<path d="M99.782 19.8739C100.182 21.2141 100.583 22.559 100.974 23.8993C101.366 25.2396 101.761 26.5707 102.157 27.8925C102.553 29.2144 102.954 30.5224 103.363 31.8166C103.773 33.1108 104.174 34.3866 104.574 35.6394C104.975 36.8922 105.375 38.1265 105.776 39.3286C106.176 40.5353 106.586 41.719 107 42.8704C102.005 42.5573 97.0108 42.2671 92.0161 42.0046C91.7952 40.6689 91.6893 40.0011 91.4683 38.6746C91.3809 38.67 91.3072 38.6608 91.2428 38.6562C91.1783 38.6516 91.1001 38.647 91.0172 38.6378C89.5948 38.5272 88.8859 38.4765 87.4818 38.3798C87.4174 38.3798 87.353 38.3706 87.2885 38.366C87.2241 38.366 87.1596 38.3568 87.0998 38.3522C86.8834 39.6833 86.7729 40.3603 86.5566 41.7236C82.1742 41.5117 77.7872 41.3045 73.4002 41.1203C73.7593 39.6326 74.1137 38.1726 74.4682 36.7402C74.8181 35.3124 75.1725 33.903 75.527 32.5167C75.8814 31.1304 76.2359 29.767 76.5903 28.4222C76.9448 27.0773 77.2993 25.7508 77.6583 24.4474C78.0128 23.1393 78.3718 21.8544 78.7309 20.5832C79.09 19.312 79.4444 18.0638 79.7943 16.8341C86.7177 16.8479 93.1578 18.0039 99.7866 19.8739H99.782ZM87.4772 35.994C87.4772 35.994 87.4957 35.994 87.5095 35.994C88.9135 36.1046 89.6178 36.1645 91.0448 36.298C91.0678 36.298 91.0771 36.2888 91.0771 36.2658C90.9067 35.165 90.7502 34.1932 90.6121 33.3549C90.474 32.5167 90.3267 31.6232 90.1794 30.6836C90.0321 29.7394 89.8894 28.8551 89.7651 28.0215C89.6362 27.1878 89.4797 26.2482 89.2863 25.2027C89.2725 25.2027 89.2679 25.2027 89.2541 25.2027C89.0792 26.2022 88.9273 27.1049 88.7846 27.9063C88.6465 28.7123 88.4992 29.569 88.3473 30.4856C88.1954 31.4021 88.0573 32.2726 87.9284 33.0924C87.7995 33.9122 87.6476 34.8702 87.4772 35.9618C87.4772 35.9756 87.4772 35.9802 87.4772 35.994Z" fill="black"/>
<path d="M35.0406 29.4677L36.0165 31.2593C36.1638 31.531 36.4585 31.6922 36.7669 31.6738L38.8016 31.5495C39.6532 31.4988 39.9846 32.641 39.2343 33.051L37.4436 34.0274C37.172 34.1748 37.0109 34.4695 37.0293 34.7781L37.1536 36.8139C37.2042 37.6659 36.0626 37.9975 35.6529 37.2468L34.677 35.4552C34.5297 35.1834 34.235 35.0222 33.9266 35.0406L31.8919 35.165C31.0403 35.2156 30.7089 34.0734 31.4592 33.6635L33.2499 32.6871C33.5215 32.5397 33.6826 32.2449 33.6642 31.9363L33.5399 29.9006C33.4893 29.0485 34.6309 28.7169 35.0406 29.4677Z" fill="white"/>
</svg>
