<svg width="252" height="161" viewBox="0 0 252 161" fill="none" xmlns="http://www.w3.org/2000/svg">
<g clip-path="url(#clip0_210_155)">
<rect width="252" height="161" rx="24" fill="#FFC420"/>
<g clip-path="url(#clip1_210_155)">
<path fill-rule="evenodd" clip-rule="evenodd" d="M50.6667 26.5C50.9761 26.5 51.2728 26.6229 51.4916 26.8417C51.7104 27.0605 51.8333 27.3572 51.8333 27.6667V28.8333H54.1667C54.7855 28.8333 55.379 29.0792 55.8166 29.5168C56.2542 29.9543 56.5 30.5478 56.5 31.1667V45.1667C56.5 45.7855 56.2542 46.379 55.8166 46.8166C55.379 47.2542 54.7855 47.5 54.1667 47.5H37.8333C37.2145 47.5 36.621 47.2542 36.1834 46.8166C35.7458 46.379 35.5 45.7855 35.5 45.1667V31.1667C35.5 30.5478 35.7458 29.9543 36.1834 29.5168C36.621 29.0792 37.2145 28.8333 37.8333 28.8333H40.1667V27.6667C40.1667 27.3572 40.2896 27.0605 40.5084 26.8417C40.7272 26.6229 41.0239 26.5 41.3333 26.5C41.6428 26.5 41.9395 26.6229 42.1583 26.8417C42.3771 27.0605 42.5 27.3572 42.5 27.6667V28.8333H49.5V27.6667C49.5 27.3572 49.6229 27.0605 49.8417 26.8417C50.0605 26.6229 50.3572 26.5 50.6667 26.5ZM41.3333 31.1667H37.8333V33.5H54.1667V31.1667H50.6667H41.3333ZM37.8333 35.8333V45.1667H54.1667V35.8333H37.8333ZM40.1667 38.1667C40.1667 37.8572 40.2896 37.5605 40.5084 37.3417C40.7272 37.1229 41.0239 37 41.3333 37H41.345C41.6544 37 41.9512 37.1229 42.17 37.3417C42.3888 37.5605 42.5117 37.8572 42.5117 38.1667C42.5117 38.4761 42.3888 38.7728 42.17 38.9916C41.9512 39.2104 41.6544 39.3333 41.345 39.3333H41.3333C41.0239 39.3333 40.7272 39.2104 40.5084 38.9916C40.2896 38.7728 40.1667 38.4761 40.1667 38.1667ZM41.3333 40.5C41.0239 40.5 40.7272 40.6229 40.5084 40.8417C40.2896 41.0605 40.1667 41.3572 40.1667 41.6667C40.1667 41.9761 40.2896 42.2728 40.5084 42.4916C40.7272 42.7104 41.0239 42.8333 41.3333 42.8333H41.345C41.6544 42.8333 41.9512 42.7104 42.17 42.4916C42.3888 42.2728 42.5117 41.9761 42.5117 41.6667C42.5117 41.3572 42.3888 41.0605 42.17 40.8417C41.9512 40.6229 41.6544 40.5 41.345 40.5H41.3333ZM44.8333 38.1667C44.8333 37.8572 44.9562 37.5605 45.175 37.3417C45.3938 37.1229 45.6906 37 46 37H46.0117C46.3211 37 46.6178 37.1229 46.8366 37.3417C47.0554 37.5605 47.1783 37.8572 47.1783 38.1667C47.1783 38.4761 47.0554 38.7728 46.8366 38.9916C46.6178 39.2104 46.3211 39.3333 46.0117 39.3333H46C45.6906 39.3333 45.3938 39.2104 45.175 38.9916C44.9562 38.7728 44.8333 38.4761 44.8333 38.1667ZM46 40.5C45.6906 40.5 45.3938 40.6229 45.175 40.8417C44.9562 41.0605 44.8333 41.3572 44.8333 41.6667C44.8333 41.9761 44.9562 42.2728 45.175 42.4916C45.3938 42.7104 45.6906 42.8333 46 42.8333H46.0117C46.3211 42.8333 46.6178 42.7104 46.8366 42.4916C47.0554 42.2728 47.1783 41.9761 47.1783 41.6667C47.1783 41.3572 47.0554 41.0605 46.8366 40.8417C46.6178 40.6229 46.3211 40.5 46.0117 40.5H46ZM49.5 38.1667C49.5 37.8572 49.6229 37.5605 49.8417 37.3417C50.0605 37.1229 50.3572 37 50.6667 37H50.6783C50.9878 37 51.2845 37.1229 51.5033 37.3417C51.7221 37.5605 51.845 37.8572 51.845 38.1667C51.845 38.4761 51.7221 38.7728 51.5033 38.9916C51.2845 39.2104 50.9878 39.3333 50.6783 39.3333H50.6667C50.3572 39.3333 50.0605 39.2104 49.8417 38.9916C49.6229 38.7728 49.5 38.4761 49.5 38.1667ZM50.6667 40.5C50.3572 40.5 50.0605 40.6229 49.8417 40.8417C49.6229 41.0605 49.5 41.3572 49.5 41.6667C49.5 41.9761 49.6229 42.2728 49.8417 42.4916C50.0605 42.7104 50.3572 42.8333 50.6667 42.8333H50.6783C50.9878 42.8333 51.2845 42.7104 51.5033 42.4916C51.7221 42.2728 51.845 41.9761 51.845 41.6667C51.845 41.3572 51.7221 41.0605 51.5033 40.8417C51.2845 40.6229 50.9878 40.5 50.6783 40.5H50.6667Z" fill="white"/>
</g>
<path d="M37.112 92V76.16H40.568V92H37.112ZM32.432 79.064V76.16H45.248V79.064H32.432ZM46.0949 92V79.4H49.5509V92H46.0949ZM47.8469 77.504C47.1749 77.504 46.6549 77.368 46.2869 77.096C45.9349 76.808 45.7589 76.392 45.7589 75.848C45.7589 75.288 45.9349 74.864 46.2869 74.576C46.6549 74.288 47.1749 74.144 47.8469 74.144C48.5349 74.144 49.0549 74.288 49.4069 74.576C49.7749 74.864 49.9589 75.288 49.9589 75.848C49.9589 76.376 49.7749 76.784 49.4069 77.072C49.0549 77.36 48.5349 77.504 47.8469 77.504ZM51.5512 92V83.936V79.4H54.3112V83.168H54.7672C54.9912 82.24 55.2872 81.48 55.6552 80.888C56.0232 80.28 56.4632 79.824 56.9752 79.52C57.5032 79.216 58.1192 79.064 58.8232 79.064C59.5752 79.064 60.1992 79.232 60.6952 79.568C61.1912 79.904 61.5752 80.376 61.8472 80.984C62.1192 81.576 62.2952 82.304 62.3752 83.168H62.7592C62.9992 82.224 63.3192 81.448 63.7192 80.84C64.1352 80.232 64.6232 79.784 65.1832 79.496C65.7592 79.208 66.3912 79.064 67.0792 79.064C67.7672 79.064 68.3672 79.2 68.8792 79.472C69.4072 79.744 69.8472 80.152 70.1992 80.696C70.5512 81.224 70.8152 81.896 70.9912 82.712C71.1672 83.512 71.2552 84.44 71.2552 85.496V92H67.7992V85.928C67.7992 85.064 67.7272 84.344 67.5832 83.768C67.4392 83.176 67.2152 82.736 66.9112 82.448C66.6072 82.16 66.2152 82.016 65.7352 82.016C65.2072 82.016 64.7512 82.2 64.3672 82.568C63.9832 82.92 63.6792 83.408 63.4552 84.032C63.2312 84.656 63.1112 85.368 63.0952 86.168V92H59.7112V86.024C59.7112 85.128 59.6312 84.392 59.4712 83.816C59.3112 83.224 59.0792 82.776 58.7752 82.472C58.4712 82.168 58.0872 82.016 57.6232 82.016C57.0792 82.016 56.6152 82.2 56.2312 82.568C55.8472 82.92 55.5512 83.416 55.3432 84.056C55.1352 84.696 55.0232 85.408 55.0072 86.192V92H51.5512ZM78.9181 92.336C77.8781 92.336 76.9501 92.192 76.1341 91.904C75.3341 91.616 74.6541 91.2 74.0941 90.656C73.5341 90.112 73.1021 89.44 72.7981 88.64C72.5101 87.84 72.3661 86.936 72.3661 85.928C72.3661 84.936 72.5021 84.024 72.7741 83.192C73.0621 82.344 73.4781 81.616 74.0221 81.008C74.5661 80.384 75.2301 79.904 76.0141 79.568C76.7981 79.232 77.6861 79.064 78.6781 79.064C79.6381 79.064 80.4941 79.224 81.2461 79.544C81.9981 79.848 82.6221 80.312 83.1181 80.936C83.6301 81.56 83.9981 82.328 84.2221 83.24C84.4621 84.136 84.5501 85.168 84.4861 86.336L74.5981 86.432V84.536L82.4941 84.464L81.2701 85.424C81.3821 84.576 81.3261 83.88 81.1021 83.336C80.8781 82.792 80.5501 82.392 80.1181 82.136C79.7021 81.88 79.2381 81.752 78.7261 81.752C78.1181 81.752 77.5821 81.912 77.1181 82.232C76.6541 82.552 76.2941 83.024 76.0381 83.648C75.7821 84.256 75.6541 84.992 75.6541 85.856C75.6541 87.216 75.9501 88.216 76.5421 88.856C77.1501 89.496 77.9421 89.816 78.9181 89.816C79.3661 89.816 79.7421 89.76 80.0461 89.648C80.3661 89.52 80.6221 89.36 80.8141 89.168C81.0221 88.976 81.1821 88.76 81.2941 88.52C81.4221 88.28 81.5261 88.04 81.6061 87.8L84.6061 88.448C84.4621 89.04 84.2461 89.576 83.9581 90.056C83.6861 90.52 83.3181 90.928 82.8541 91.28C82.3901 91.616 81.8301 91.872 81.1741 92.048C80.5341 92.24 79.7821 92.336 78.9181 92.336ZM85.8074 92V74.84H89.2154V92H85.8074ZM91.1934 92V79.4H94.6494V92H91.1934ZM92.9454 77.504C92.2734 77.504 91.7534 77.368 91.3854 77.096C91.0334 76.808 90.8574 76.392 90.8574 75.848C90.8574 75.288 91.0334 74.864 91.3854 74.576C91.7534 74.288 92.2734 74.144 92.9454 74.144C93.6334 74.144 94.1534 74.288 94.5054 74.576C94.8734 74.864 95.0574 75.288 95.0574 75.848C95.0574 76.376 94.8734 76.784 94.5054 77.072C94.1534 77.36 93.6334 77.504 92.9454 77.504ZM96.6496 92V84.368V79.4H99.4816L99.4576 83.168H99.9376C100.146 82.256 100.442 81.496 100.826 80.888C101.21 80.28 101.69 79.824 102.266 79.52C102.858 79.216 103.554 79.064 104.354 79.064C105.81 79.064 106.914 79.576 107.666 80.6C108.434 81.624 108.818 83.232 108.818 85.424V92H105.338V85.808C105.338 84.464 105.138 83.488 104.738 82.88C104.354 82.256 103.786 81.944 103.034 81.944C102.394 81.944 101.858 82.144 101.426 82.544C100.994 82.944 100.666 83.472 100.442 84.128C100.234 84.768 100.122 85.488 100.106 86.288V92H96.6496ZM116.446 92.336C115.406 92.336 114.478 92.192 113.662 91.904C112.862 91.616 112.182 91.2 111.622 90.656C111.062 90.112 110.63 89.44 110.326 88.64C110.038 87.84 109.894 86.936 109.894 85.928C109.894 84.936 110.03 84.024 110.302 83.192C110.59 82.344 111.006 81.616 111.55 81.008C112.094 80.384 112.758 79.904 113.542 79.568C114.326 79.232 115.214 79.064 116.206 79.064C117.166 79.064 118.022 79.224 118.774 79.544C119.526 79.848 120.15 80.312 120.646 80.936C121.158 81.56 121.526 82.328 121.75 83.24C121.99 84.136 122.078 85.168 122.014 86.336L112.126 86.432V84.536L120.022 84.464L118.798 85.424C118.91 84.576 118.854 83.88 118.63 83.336C118.406 82.792 118.078 82.392 117.646 82.136C117.23 81.88 116.766 81.752 116.254 81.752C115.646 81.752 115.11 81.912 114.646 82.232C114.182 82.552 113.822 83.024 113.566 83.648C113.31 84.256 113.182 84.992 113.182 85.856C113.182 87.216 113.478 88.216 114.07 88.856C114.678 89.496 115.47 89.816 116.446 89.816C116.894 89.816 117.27 89.76 117.574 89.648C117.894 89.52 118.15 89.36 118.342 89.168C118.55 88.976 118.71 88.76 118.822 88.52C118.95 88.28 119.054 88.04 119.134 87.8L122.134 88.448C121.99 89.04 121.774 89.576 121.486 90.056C121.214 90.52 120.846 90.928 120.382 91.28C119.918 91.616 119.358 91.872 118.702 92.048C118.062 92.24 117.31 92.336 116.446 92.336Z" fill="white"/>
<path d="M42.404 129.504C40.844 129.504 39.476 129.348 38.3 129.036C37.148 128.724 36.188 128.268 35.42 127.668C34.652 127.068 34.052 126.336 33.62 125.472C33.188 124.608 32.924 123.648 32.828 122.592L37.508 121.116C37.556 121.86 37.712 122.508 37.976 123.06C38.24 123.612 38.588 124.068 39.02 124.428C39.452 124.788 39.968 125.052 40.568 125.22C41.168 125.388 41.816 125.472 42.512 125.472C43.424 125.472 44.228 125.34 44.924 125.076C45.644 124.812 46.196 124.404 46.58 123.852C46.988 123.3 47.192 122.604 47.192 121.764C47.192 120.708 46.832 119.844 46.112 119.172C45.392 118.5 44.324 118.044 42.908 117.804C41.492 117.54 39.716 117.504 37.58 117.696V114.744L45.572 109.632V109.308L34.016 109.416V105.204H50.792V110.064L43.304 115.104V115.428C45.584 115.308 47.372 115.536 48.668 116.112C49.988 116.688 50.924 117.504 51.476 118.56C52.052 119.592 52.34 120.72 52.34 121.944C52.34 123.48 51.98 124.812 51.26 125.94C50.54 127.068 49.448 127.944 47.984 128.568C46.52 129.192 44.66 129.504 42.404 129.504Z" fill="white"/>
<g clip-path="url(#clip2_210_155)">
<path fill-rule="evenodd" clip-rule="evenodd" d="M263.333 26.25C264.947 26.25 266.494 26.8909 267.635 28.0318C268.776 29.1726 269.417 30.7199 269.417 32.3333V38.4167H281.583C284.81 38.4167 287.905 39.6985 290.186 41.9802C292.468 44.2619 293.75 47.3565 293.75 50.5833V123.583C293.75 126.81 292.468 129.905 290.186 132.186C287.905 134.468 284.81 135.75 281.583 135.75H196.417C193.19 135.75 190.095 134.468 187.814 132.186C185.532 129.905 184.25 126.81 184.25 123.583V50.5833C184.25 47.3565 185.532 44.2619 187.814 41.9802C190.095 39.6985 193.19 38.4167 196.417 38.4167H208.583V32.3333C208.583 30.7199 209.224 29.1726 210.365 28.0318C211.506 26.8909 213.053 26.25 214.667 26.25C216.28 26.25 217.827 26.8909 218.968 28.0318C220.109 29.1726 220.75 30.7199 220.75 32.3333V38.4167H257.25V32.3333C257.25 30.7199 257.891 29.1726 259.032 28.0318C260.173 26.8909 261.72 26.25 263.333 26.25ZM214.667 50.5833H196.417V62.75H281.583V50.5833H263.333H214.667ZM196.417 74.9167V123.583H281.583V74.9167H196.417ZM208.583 87.0833C208.583 85.4699 209.224 83.9226 210.365 82.7818C211.506 81.6409 213.053 81 214.667 81H214.728C216.341 81 217.888 81.6409 219.029 82.7818C220.17 83.9226 220.811 85.4699 220.811 87.0833C220.811 88.6967 220.17 90.2441 219.029 91.3849C217.888 92.5257 216.341 93.1667 214.728 93.1667H214.667C213.053 93.1667 211.506 92.5257 210.365 91.3849C209.224 90.2441 208.583 88.6967 208.583 87.0833ZM214.667 99.25C213.053 99.25 211.506 99.8909 210.365 101.032C209.224 102.173 208.583 103.72 208.583 105.333C208.583 106.947 209.224 108.494 210.365 109.635C211.506 110.776 213.053 111.417 214.667 111.417H214.728C216.341 111.417 217.888 110.776 219.029 109.635C220.17 108.494 220.811 106.947 220.811 105.333C220.811 103.72 220.17 102.173 219.029 101.032C217.888 99.8909 216.341 99.25 214.728 99.25H214.667ZM232.917 87.0833C232.917 85.4699 233.558 83.9226 234.698 82.7818C235.839 81.6409 237.387 81 239 81H239.061C240.674 81 242.222 81.6409 243.362 82.7818C244.503 83.9226 245.144 85.4699 245.144 87.0833C245.144 88.6967 244.503 90.2441 243.362 91.3849C242.222 92.5257 240.674 93.1667 239.061 93.1667H239C237.387 93.1667 235.839 92.5257 234.698 91.3849C233.558 90.2441 232.917 88.6967 232.917 87.0833ZM239 99.25C237.387 99.25 235.839 99.8909 234.698 101.032C233.558 102.173 232.917 103.72 232.917 105.333C232.917 106.947 233.558 108.494 234.698 109.635C235.839 110.776 237.387 111.417 239 111.417H239.061C240.674 111.417 242.222 110.776 243.362 109.635C244.503 108.494 245.144 106.947 245.144 105.333C245.144 103.72 244.503 102.173 243.362 101.032C242.222 99.8909 240.674 99.25 239.061 99.25H239ZM257.25 87.0833C257.25 85.4699 257.891 83.9226 259.032 82.7818C260.173 81.6409 261.72 81 263.333 81H263.394C265.008 81 266.555 81.6409 267.696 82.7818C268.837 83.9226 269.478 85.4699 269.478 87.0833C269.478 88.6967 268.837 90.2441 267.696 91.3849C266.555 92.5257 265.008 93.1667 263.394 93.1667H263.333C261.72 93.1667 260.173 92.5257 259.032 91.3849C257.891 90.2441 257.25 88.6967 257.25 87.0833ZM263.333 99.25C261.72 99.25 260.173 99.8909 259.032 101.032C257.891 102.173 257.25 103.72 257.25 105.333C257.25 106.947 257.891 108.494 259.032 109.635C260.173 110.776 261.72 111.417 263.333 111.417H263.394C265.008 111.417 266.555 110.776 267.696 109.635C268.837 108.494 269.478 106.947 269.478 105.333C269.478 103.72 268.837 102.173 267.696 101.032C266.555 99.8909 265.008 99.25 263.394 99.25H263.333Z" fill="#FFD04E"/>
</g>
</g>
<defs>
<clipPath id="clip0_210_155">
<rect width="252" height="161" rx="24" fill="white"/>
</clipPath>
<clipPath id="clip1_210_155">
<rect width="28" height="28" fill="white" transform="translate(32 23)"/>
</clipPath>
<clipPath id="clip2_210_155">
<rect width="146" height="146" fill="white" transform="translate(166 8)"/>
</clipPath>
</defs>
</svg>
